if (_typeface_js && _typeface_js.loadFace) _typeface_js.loadFace({"glyphs":{"0":{"ha":666,"x_min":93,"x_max":673,"o":"m 93 313 q 198 734 93 544 q 456 938 311 938 q 617 843 557 938 q 672 655 667 764 q 673 620 673 640 q 568 190 673 382 q 306 -19 453 -19 q 139 98 197 -19 q 93 313 93 191 m 170 373 q 202 195 170 275 q 327 87 245 87 q 518 252 435 87 q 595 588 595 403 q 559 747 595 683 q 428 825 516 825 l 429 825 q 241 684 317 825 q 170 373 170 553 z "},"1":{"ha":666,"x_min":129,"x_max":584,"o":"m 129 3 q 142 35 129 27 q 174 39 147 39 q 282 125 260 39 l 454 789 q 272 706 304 706 q 262 724 262 706 q 267 752 262 745 q 288 765 271 757 q 516 910 388 812 q 549 920 528 920 q 584 913 584 920 q 583 909 584 911 l 385 138 q 379 100 379 117 q 427 43 379 55 q 511 39 446 39 q 524 29 524 39 q 503 -9 524 -9 q 444 -5 505 -9 q 322 0 374 0 q 198 -5 271 0 q 139 -9 136 -9 q 129 3 129 -9 z "},"2":{"ha":666,"x_min":74,"x_max":628,"o":"m 74 14 q 83 49 74 32 q 96 64 87 56 q 400 388 307 252 q 516 680 516 556 q 474 789 516 749 q 362 828 432 828 q 270 800 319 828 q 199 749 236 781 q 166 721 167 721 q 150 731 163 721 q 136 745 136 742 q 140 753 136 748 q 429 938 279 938 q 574 869 517 938 q 628 713 628 804 q 201 105 628 465 l 576 105 q 589 95 589 105 q 566 47 589 88 q 537 3 543 5 q 515 0 532 0 l 87 0 q 74 14 74 0 z "},"3":{"ha":666,"x_min":13,"x_max":620,"o":"m 13 58 q 74 121 13 121 q 150 85 110 121 q 225 49 190 49 q 314 70 267 49 q 436 180 389 104 q 481 339 481 255 q 446 441 481 400 q 350 485 410 485 q 322 481 340 485 q 294 477 304 477 q 280 487 289 477 q 272 502 272 496 q 280 512 272 509 q 368 554 341 540 q 446 611 414 580 q 513 736 513 675 q 475 817 513 786 q 387 848 438 848 q 232 777 300 848 q 227 773 228 773 q 213 782 223 773 q 202 795 202 791 q 204 802 202 799 q 302 898 238 859 q 430 938 366 938 q 561 894 505 938 q 620 772 620 846 q 559 650 620 718 q 450 558 511 597 q 553 487 514 542 q 589 367 589 434 q 448 106 589 228 q 132 -19 303 -19 q 56 -2 90 -19 q 13 58 13 20 z "},"4":{"ha":666,"x_min":72,"x_max":654,"o":"m 72 337 q 79 364 72 357 l 597 926 q 637 937 607 937 q 648 930 648 937 q 615 796 648 926 l 503 361 l 642 361 q 654 350 654 361 q 642 298 654 332 q 621 281 635 281 l 482 281 l 415 19 q 391 0 410 0 l 335 0 q 320 13 320 0 q 335 79 320 19 q 388 281 353 146 l 98 281 q 72 337 72 281 m 146 361 l 408 361 l 516 778 l 146 361 z "},"5":{"ha":666,"x_min":94,"x_max":637,"o":"m 94 14 q 106 28 94 22 q 170 60 127 39 q 368 197 291 122 q 467 385 467 293 q 387 545 467 458 q 222 661 317 621 q 201 674 201 669 q 323 900 201 676 q 353 919 334 919 l 625 919 q 637 909 637 919 q 600 835 637 892 q 567 814 587 814 l 357 814 q 311 785 328 814 q 298 754 298 763 q 303 746 298 749 q 374 700 358 711 q 439 647 412 673 q 575 382 575 514 q 416 127 575 250 q 136 -22 296 34 q 129 -24 132 -24 q 115 -18 119 -24 q 94 14 94 5 z "},"6":{"ha":666,"x_min":81,"x_max":696,"o":"m 81 273 q 90 368 81 320 q 300 728 133 583 q 671 933 433 843 q 678 935 675 935 q 696 895 696 935 q 685 882 696 887 q 613 850 661 872 q 365 671 461 778 q 221 418 264 559 q 432 509 318 509 q 581 453 525 509 q 637 304 637 397 q 547 83 637 182 q 332 -19 454 -19 q 144 70 214 -19 q 81 273 81 151 m 191 237 q 224 98 191 158 q 336 26 264 26 q 471 113 412 26 q 528 296 528 196 q 490 400 528 359 q 391 442 453 442 q 248 383 304 442 q 191 237 191 323 z "},"7":{"ha":666,"x_min":132,"x_max":745,"o":"m 132 5 q 135 16 132 10 l 614 814 l 204 814 q 189 826 189 814 q 222 897 189 834 q 254 919 234 919 l 719 919 q 745 903 745 919 q 736 876 745 889 l 208 -23 q 190 -33 202 -33 q 156 -18 181 -33 q 132 5 132 -3 z "},"8":{"ha":666,"x_min":83,"x_max":671,"o":"m 83 202 q 317 458 83 382 q 195 688 195 576 q 275 864 195 789 q 455 938 353 938 q 605 878 541 938 q 671 732 671 817 q 612 574 671 646 q 472 476 557 509 q 581 245 581 353 q 578 214 581 227 q 483 44 562 107 q 294 -19 404 -19 q 143 46 203 -19 q 83 202 83 111 m 186 192 q 216 81 186 129 q 309 26 250 26 q 425 85 376 26 q 471 210 471 141 q 342 433 471 311 q 186 192 186 332 m 303 727 q 350 606 303 669 q 441 507 376 570 q 570 728 570 600 q 539 838 570 790 q 444 892 503 892 q 342 839 384 892 q 303 727 303 789 z "},"9":{"ha":666,"x_min":90,"x_max":686,"o":"m 90 24 q 100 37 90 33 q 162 63 121 45 q 392 243 288 122 q 541 499 497 364 q 344 418 449 418 q 199 473 253 418 q 145 618 145 528 q 233 837 145 739 q 443 937 323 937 q 625 848 557 937 q 686 649 686 766 q 677 551 686 600 q 475 185 635 339 q 107 -17 324 41 q 104 -18 106 -18 q 90 24 90 -18 m 255 628 q 290 528 255 568 q 385 485 326 485 q 530 546 480 485 q 574 700 574 602 q 547 829 574 779 q 439 892 511 892 q 308 806 365 892 q 255 628 255 726 z "},"\u0000":{"ha":1389,"x_min":0,"x_max":0,"o":""},"\r":{"ha":456,"x_min":0,"x_max":0,"o":""}," ":{"ha":456,"x_min":0,"x_max":0,"o":""},"!":{"ha":333,"x_min":83,"x_max":427,"o":"m 83 59 q 104 120 83 94 q 161 146 126 146 q 212 124 193 146 q 232 69 232 102 q 210 7 232 33 q 153 -18 189 -18 q 102 4 122 -18 q 83 59 83 27 m 174 228 q 183 280 174 233 l 205 394 l 277 744 q 328 904 302 865 q 370 929 344 929 q 427 862 427 929 q 405 765 427 827 l 219 232 q 197 219 214 219 q 174 228 174 219 z "},"\"":{"ha":458,"x_min":118,"x_max":529,"o":"m 118 640 l 180 895 q 268 983 201 983 q 319 939 319 983 q 301 885 319 917 l 166 640 q 146 627 159 627 l 128 627 q 118 640 115 627 m 328 640 l 390 895 q 478 983 411 983 q 529 939 529 983 q 511 885 529 917 l 376 640 q 357 627 370 627 l 338 627 q 328 640 325 627 z "},"#":{"ha":694,"x_min":31,"x_max":620,"o":"m 31 166 q 44 220 31 179 q 66 238 50 238 l 154 238 l 199 383 l 102 383 q 88 397 88 383 q 101 451 88 410 q 123 469 106 469 l 225 469 l 320 778 q 335 789 323 789 l 373 789 q 381 773 386 789 l 287 469 l 464 469 l 559 778 q 574 789 562 789 l 612 789 q 620 773 625 789 l 526 469 l 604 469 q 618 456 618 469 q 605 401 618 444 q 583 383 600 383 l 500 383 l 455 238 l 547 238 q 562 226 562 238 q 548 170 562 214 q 526 153 543 153 l 429 153 l 334 -155 q 319 -167 330 -167 l 281 -167 q 273 -151 268 -167 l 366 153 l 190 153 l 95 -155 q 80 -167 92 -167 l 42 -167 q 34 -151 29 -167 l 127 153 l 45 153 q 31 166 31 153 m 216 238 l 393 238 l 437 383 l 261 383 l 216 238 z "},"$":{"ha":609,"x_min":41,"x_max":629,"o":"m 41 54 q 60 124 41 60 q 83 194 79 187 q 106 205 90 205 q 134 197 134 205 q 126 164 134 190 q 117 122 117 138 q 241 35 117 39 l 328 397 q 292 432 323 403 q 189 564 220 502 q 160 668 160 621 q 236 856 160 782 q 426 929 311 929 q 456 927 440 929 l 478 1021 q 501 1031 481 1031 q 522 1015 522 1031 q 522 1008 522 1011 l 500 919 q 541 907 519 914 q 629 850 629 876 q 617 786 629 844 q 602 723 604 728 q 579 712 596 712 q 551 723 551 712 q 552 743 551 730 q 554 764 554 757 q 487 866 554 838 l 398 496 q 508 378 485 409 q 560 245 560 310 q 559 214 560 231 q 466 43 555 108 q 275 -18 385 -17 l 254 -102 q 231 -112 252 -112 q 210 -97 210 -112 q 211 -90 210 -92 l 229 -17 q 54 36 119 -8 q 41 54 41 44 m 275 709 q 361 535 275 629 l 443 876 l 437 876 q 321 829 367 877 q 275 709 275 781 m 288 38 q 397 86 355 48 q 445 195 445 129 q 365 359 445 269 l 288 38 z "},"%":{"ha":1048,"x_min":52,"x_max":1032,"o":"m 52 -272 q 55 -264 52 -269 l 948 906 q 975 920 959 920 l 1023 920 q 1032 913 1032 920 q 1029 906 1032 911 l 136 -264 q 109 -279 125 -279 l 61 -279 q 52 -272 52 -279 m 111 555 q 184 829 111 705 q 369 962 264 962 q 489 894 446 962 q 526 753 526 836 q 452 474 526 600 q 265 337 371 337 q 146 412 189 337 q 111 555 111 473 m 181 593 q 202 486 181 534 q 279 422 229 422 q 402 522 347 422 q 454 733 454 617 q 350 873 454 873 q 229 787 279 873 q 181 593 181 706 m 592 -81 q 666 192 592 68 q 850 326 746 326 q 970 257 928 326 q 1007 117 1007 199 q 933 -163 1007 -37 q 747 -300 852 -300 q 627 -225 670 -300 q 592 -81 592 -163 m 663 -43 q 684 -151 663 -102 q 761 -214 710 -214 q 884 -115 829 -214 q 936 96 936 -20 q 831 237 936 237 q 710 151 760 237 q 663 -43 663 69 z "},"&":{"ha":1069,"x_min":96,"x_max":1179,"o":"m 96 261 q 128 414 96 329 q 251 585 162 505 q 436 672 347 672 q 489 660 471 672 q 524 616 505 649 q 675 762 608 684 q 770 936 770 871 q 754 977 770 956 q 738 1008 738 998 q 754 1049 738 1032 q 793 1067 770 1067 q 857 991 857 1067 q 189 311 857 774 l 189 300 q 262 121 189 183 q 430 60 334 60 q 627 125 525 60 q 790 321 731 193 q 848 572 842 436 q 777 596 820 596 q 704 566 734 596 q 674 515 674 536 q 684 468 674 498 q 694 421 694 437 q 649 382 694 382 q 589 437 589 382 q 669 583 589 511 q 821 653 747 653 q 924 615 873 653 q 1002 545 935 608 q 1069 507 1043 507 q 1095 550 1095 507 q 1089 579 1095 559 q 1084 605 1084 598 q 1128 642 1084 642 q 1179 562 1179 642 q 1143 492 1179 503 q 1083 475 1123 486 q 1037 457 1080 473 q 994 444 1004 444 q 979 456 988 444 q 884 555 928 521 q 878 433 884 491 q 823 260 872 369 q 660 65 774 151 q 396 -20 546 -20 q 181 53 262 -20 q 96 261 96 130 m 192 366 q 418 536 341 468 q 420 570 420 553 q 374 612 420 612 q 302 576 348 612 q 192 366 216 506 z "},"'":{"ha":248,"x_min":118,"x_max":319,"o":"m 118 640 l 180 895 q 268 983 201 983 q 319 939 319 983 q 301 885 319 917 l 166 640 q 146 627 159 627 l 128 627 q 118 640 115 627 z "},"(":{"ha":332,"x_min":34,"x_max":464,"o":"m 34 169 q 61 393 34 290 q 195 731 115 599 q 437 1002 282 878 q 452 1009 445 1009 q 464 985 464 1009 q 448 940 464 957 q 282 725 333 820 q 118 104 118 420 q 154 -153 118 -65 q 174 -198 161 -168 q 133 -220 159 -220 q 94 -170 113 -220 q 34 169 34 -18 z "},")":{"ha":332,"x_min":-61,"x_max":369,"o":"m -61 -196 q -45 -151 -61 -168 q 121 64 70 -31 q 285 686 285 370 q 249 942 285 854 q 229 987 242 957 q 270 1009 243 1009 q 309 959 290 1009 q 369 621 369 807 q 342 397 369 500 q 208 58 288 191 q -34 -213 121 -89 q -50 -220 -42 -220 q -61 -196 -61 -220 z "},"*":{"ha":666,"x_min":208,"x_max":721,"o":"m 208 841 q 226 880 208 861 q 262 899 243 899 q 316 870 290 899 l 406 768 q 412 751 412 762 q 389 730 412 730 q 380 732 385 730 l 254 786 q 208 841 208 806 m 209 583 q 255 639 209 618 q 388 694 383 694 q 412 670 412 694 q 406 656 412 662 l 315 555 q 260 526 289 526 q 225 545 241 526 q 209 583 209 564 m 443 644 q 458 667 441 662 l 459 668 q 464 669 460 669 q 486 658 480 669 l 555 541 q 568 494 568 517 q 550 459 568 472 q 509 446 532 446 q 456 509 462 446 l 443 644 m 444 779 q 456 916 444 781 q 507 979 462 979 q 550 966 532 979 q 569 929 569 952 q 555 884 569 907 l 486 766 q 467 755 480 755 q 444 779 444 755 m 491 711 l 492 712 q 509 734 492 730 l 642 763 q 663 765 652 765 q 721 712 721 765 q 662 658 721 658 q 509 690 651 658 q 491 711 492 694 z "},"+":{"ha":750,"x_min":68,"x_max":689,"o":"m 68 286 l 68 336 q 85 353 68 353 l 336 353 l 336 604 q 353 621 336 621 l 404 621 q 421 604 421 621 l 421 353 l 671 353 q 689 336 689 353 l 689 286 q 671 268 689 268 l 421 268 l 421 18 q 404 0 421 0 l 353 0 q 336 18 336 0 l 336 268 l 85 268 q 68 286 68 268 z "},",":{"ha":333,"x_min":-7,"x_max":233,"o":"m -7 -216 q 2 -175 -7 -186 q 73 -145 37 -160 q 136 -55 136 -112 q 87 21 136 -13 q 38 80 38 56 q 58 127 38 109 q 106 145 77 145 q 201 91 165 145 q 233 -18 233 43 q 165 -157 233 -97 q 91 -204 136 -184 q 7 -227 43 -227 q -7 -216 -7 -227 z "},"-":{"ha":415,"x_min":64,"x_max":361,"o":"m 64 285 l 64 336 q 81 353 64 353 l 344 353 q 361 336 361 353 l 361 285 q 344 268 361 268 l 81 268 q 64 285 64 268 z "},".":{"ha":333,"x_min":33,"x_max":191,"o":"m 33 68 q 55 130 33 104 q 112 156 77 156 q 169 131 147 156 q 191 70 191 106 q 170 9 191 34 q 112 -18 147 -18 q 55 7 77 -18 q 33 68 33 33 z "},"/":{"ha":604,"x_min":-33,"x_max":649,"o":"m -33 -216 l 578 1006 l 649 1006 l 39 -216 l -33 -216 z "},":":{"ha":333,"x_min":33,"x_max":307,"o":"m 33 68 q 55 130 33 104 q 112 156 77 156 q 169 131 147 156 q 191 70 191 106 q 170 9 191 34 q 112 -18 147 -18 q 55 7 77 -18 q 33 68 33 33 m 148 500 q 171 562 148 536 q 229 588 193 588 q 285 563 264 588 q 307 502 307 538 q 285 439 307 465 q 227 414 263 414 q 170 439 193 414 q 148 500 148 465 z "},";":{"ha":333,"x_min":-7,"x_max":307,"o":"m -7 -216 q 2 -175 -7 -186 q 73 -145 37 -160 q 136 -55 136 -112 q 87 21 136 -13 q 38 80 38 56 q 58 127 38 109 q 106 145 77 145 q 201 91 165 145 q 233 -18 233 43 q 165 -157 233 -97 q 91 -204 136 -184 q 7 -227 43 -227 q -7 -216 -7 -227 m 148 500 q 171 562 148 536 q 229 588 193 588 q 285 563 264 588 q 307 502 307 538 q 285 439 307 465 q 227 414 263 414 q 170 439 193 414 q 148 500 148 465 z "},"<":{"ha":750,"x_min":68,"x_max":736,"o":"m 68 286 l 68 336 q 79 353 68 349 l 689 638 q 697 640 693 640 q 713 629 708 640 l 734 584 q 736 576 736 580 q 726 560 736 565 l 189 311 l 726 61 q 736 45 736 56 q 734 37 736 41 l 713 -8 q 697 -19 708 -19 q 689 -17 693 -19 l 79 268 q 68 286 68 273 z "},"=":{"ha":750,"x_min":68,"x_max":689,"o":"m 68 143 l 68 193 q 85 211 68 211 l 671 211 q 689 193 689 211 l 689 143 q 671 125 689 125 l 85 125 q 68 143 68 125 m 68 428 l 68 478 q 85 496 68 496 l 671 496 q 689 478 689 496 l 689 428 q 671 410 689 410 l 85 410 q 68 428 68 410 z "},">":{"ha":750,"x_min":14,"x_max":682,"o":"m 14 45 q 24 61 14 56 l 561 311 l 24 560 q 14 576 14 565 q 16 584 14 580 l 37 629 q 53 640 42 640 q 61 638 57 640 l 671 353 q 682 336 682 349 l 682 286 q 671 268 682 273 l 61 -17 q 53 -19 57 -19 q 37 -8 42 -19 l 16 37 q 14 45 14 41 z "},"?":{"ha":487,"x_min":176,"x_max":591,"o":"m 176 60 q 197 121 176 96 q 253 146 218 146 q 305 123 286 146 q 325 67 325 100 q 303 7 325 33 q 248 -18 282 -18 q 196 5 216 -18 q 176 60 176 28 m 194 439 q 197 474 194 460 q 295 597 220 562 q 429 637 362 617 q 519 723 503 662 q 523 747 523 735 q 495 807 523 785 q 431 827 469 827 q 415 827 426 827 q 398 827 404 827 q 313 876 313 827 q 372 929 313 929 q 530 866 469 929 q 591 706 591 804 q 507 545 591 589 q 351 501 429 523 q 267 408 267 477 q 352 324 267 324 q 419 283 419 324 q 403 240 419 260 q 365 220 387 220 q 245 299 300 220 q 194 439 194 372 z "},"@":{"ha":1135,"x_min":39,"x_max":1119,"o":"m 39 202 q 233 648 39 460 q 684 835 425 835 q 991 724 868 835 q 1119 427 1119 610 q 992 138 1119 274 q 712 0 863 0 q 631 48 648 0 q 623 151 623 71 q 616 164 623 164 q 574 121 614 164 q 484 40 526 69 q 366 -3 420 -3 q 258 136 258 -3 q 326 399 258 258 q 514 566 407 566 q 596 494 555 566 q 641 382 624 444 q 685 506 659 418 q 701 554 689 522 q 751 583 714 583 q 792 566 774 583 q 810 526 810 549 q 655 184 810 517 q 652 167 652 177 q 673 102 652 133 q 728 68 697 68 q 952 205 848 68 q 1050 464 1050 335 q 952 699 1050 613 q 708 779 859 779 q 293 602 468 779 q 119 184 119 425 q 217 -89 119 11 q 489 -189 316 -189 q 703 -150 589 -189 q 896 -48 818 -110 l 896 -53 q 741 -204 896 -144 q 507 -252 618 -252 q 176 -123 311 -252 q 39 202 39 7 m 340 132 q 382 60 340 60 q 546 186 443 60 q 621 319 594 245 q 538 480 588 480 q 416 372 479 480 q 349 208 364 284 q 340 132 340 163 z "},"A":{"ha":926,"x_min":-56,"x_max":827,"o":"m -56 0 q -45 33 -56 24 q -13 37 -41 37 q 96 119 35 37 l 682 922 q 708 931 688 931 q 723 889 723 931 l 723 127 q 744 60 723 82 q 796 39 760 43 q 827 28 827 35 q 806 -8 827 -8 q 761 -5 802 -8 q 663 0 703 0 q 566 -5 626 0 q 518 -8 523 -8 q 509 3 509 -8 q 519 33 509 23 q 574 41 546 37 q 616 127 616 54 l 616 356 l 341 356 l 186 144 q 159 79 159 108 q 234 37 159 37 q 243 28 243 37 q 220 -8 243 -8 q 178 -5 216 -8 q 88 0 125 0 q -3 -5 52 0 q -46 -8 -42 -8 q -56 0 -56 -8 m 380 410 l 616 410 l 616 732 l 380 410 z "},"B":{"ha":756,"x_min":15,"x_max":766,"o":"m 15 3 q 26 33 15 21 q 69 41 47 37 q 125 119 108 54 l 296 786 q 302 823 302 810 q 271 863 302 856 q 214 866 261 866 q 207 872 207 866 q 218 905 207 892 q 333 924 227 915 q 462 930 421 930 q 663 888 581 930 q 766 726 766 833 q 682 569 766 633 q 510 498 613 517 q 656 420 600 473 q 723 273 723 358 q 587 63 723 146 q 334 -9 469 -9 q 240 -4 302 -9 q 146 0 177 0 q 85 -4 125 0 q 24 -8 45 -8 q 15 3 15 -8 m 230 111 q 318 45 230 45 q 511 106 431 45 q 599 283 599 173 q 538 421 599 372 q 391 467 481 467 q 317 465 380 467 l 235 148 q 230 111 230 127 m 330 519 l 361 519 q 550 568 475 519 q 638 732 638 625 q 473 877 638 877 q 429 868 441 877 q 410 826 418 859 l 330 519 z "},"C":{"ha":926,"x_min":106,"x_max":998,"o":"m 106 446 q 260 783 106 643 q 656 929 420 929 q 992 795 868 929 q 998 783 998 789 q 984 718 998 778 q 969 652 971 657 q 946 639 964 639 q 920 649 920 639 q 922 669 920 656 q 924 690 924 683 q 867 804 924 751 q 667 876 792 876 q 352 725 482 876 q 228 393 228 581 q 325 136 228 236 q 579 35 422 35 q 724 87 653 35 q 833 213 771 121 q 846 221 839 221 q 865 213 852 221 q 878 198 878 204 q 856 132 878 193 q 830 60 835 71 q 806 33 821 41 q 553 -18 709 -18 q 229 115 355 -18 q 106 446 106 247 z "},"D":{"ha":999,"x_min":-12,"x_max":1003,"o":"m -12 0 q 24 37 -12 35 q 97 62 75 41 q 135 144 119 83 l 296 769 q 304 823 304 804 q 254 870 304 870 q 225 867 244 870 q 197 864 206 864 q 191 872 191 864 q 203 907 191 891 q 534 930 220 930 q 866 839 744 930 q 1003 533 1003 736 q 846 155 1003 315 q 465 -12 682 -12 q 309 -6 413 -12 q 152 0 204 0 q 75 -4 126 0 q -3 -8 23 -8 q -12 0 -12 -8 m 242 116 q 349 45 242 45 q 392 45 373 45 q 745 188 610 53 q 880 541 880 323 q 484 877 880 877 q 417 823 431 877 l 252 181 q 242 116 242 144 z "},"E":{"ha":780,"x_min":-9,"x_max":792,"o":"m -9 0 q 16 36 -9 32 q 68 45 42 41 q 117 111 102 58 l 300 779 q 307 822 307 804 q 271 869 307 859 q 205 874 256 874 q 197 882 197 874 q 218 919 197 919 q 331 915 256 919 q 444 911 406 911 q 606 914 498 911 q 769 918 715 918 q 792 904 792 918 q 758 742 792 894 q 739 731 755 731 l 730 731 q 722 747 723 731 q 702 829 721 805 q 621 859 679 859 l 479 859 q 433 846 446 859 q 414 805 423 837 l 333 506 l 504 506 q 577 547 549 506 q 608 588 605 588 l 626 588 q 633 582 633 588 q 620 534 633 576 q 603 482 604 485 q 580 385 596 450 q 559 373 576 373 q 536 382 536 373 q 538 401 536 389 q 541 420 541 414 q 501 452 541 452 l 317 452 l 245 189 q 235 122 235 151 q 274 62 235 77 q 353 54 297 54 q 579 77 528 54 q 635 121 610 90 q 677 178 656 149 q 691 187 684 187 q 708 181 696 187 q 720 170 720 174 q 655 23 720 169 q 643 0 646 3 q 618 -7 636 -7 q 406 -3 547 -7 q 194 0 264 0 q 97 -4 161 0 q 0 -8 33 -8 q -9 0 -9 -8 z "},"F":{"ha":659,"x_min":-2,"x_max":763,"o":"m -2 0 q 31 38 -2 35 q 92 56 78 43 q 124 119 113 74 l 294 779 q 300 821 300 806 q 265 869 300 859 q 198 874 249 874 q 189 882 189 874 q 210 919 189 919 q 322 915 247 919 q 435 911 397 911 q 587 914 486 911 q 739 918 688 918 q 763 903 763 918 q 748 825 763 901 q 731 742 733 749 q 713 731 728 731 q 697 734 699 731 q 695 752 695 736 q 653 841 695 817 q 554 859 623 859 l 471 859 q 426 847 438 859 q 408 805 416 838 l 331 506 l 513 506 q 586 547 558 506 q 616 588 613 588 l 634 588 q 642 582 642 588 q 629 534 642 576 q 613 482 614 486 q 591 385 607 449 q 570 373 588 373 q 549 382 549 373 q 550 400 549 388 q 552 418 552 412 q 511 452 552 452 l 317 452 l 235 132 q 229 90 229 108 q 264 41 229 52 q 331 37 280 37 q 340 29 340 37 q 320 -8 340 -8 q 270 -5 315 -8 q 165 0 207 0 q 58 -4 113 0 q 7 -8 3 -8 q -2 0 -2 -8 z "},"G":{"ha":1024,"x_min":111,"x_max":1013,"o":"m 111 433 q 264 780 111 637 q 663 929 425 929 q 843 900 742 929 q 1003 821 956 867 q 1011 804 1011 812 q 997 728 1011 793 q 979 652 983 662 q 958 641 975 641 q 933 652 933 641 q 935 671 933 659 q 936 691 936 684 q 820 849 936 799 q 671 876 758 876 q 357 725 486 876 q 234 393 234 581 q 332 134 234 233 q 589 35 429 35 q 773 191 727 35 q 804 310 804 293 q 670 359 804 359 q 656 371 656 359 q 671 405 656 405 q 670 405 670 405 q 726 400 670 404 q 836 396 781 396 q 947 400 892 396 q 1004 405 1004 404 q 1003 405 1004 405 q 1013 396 1013 405 q 1008 363 1013 368 q 979 359 1004 359 q 901 294 920 359 l 829 41 q 772 7 824 22 q 555 -18 682 -18 q 235 109 359 -18 q 111 433 111 236 z "},"H":{"ha":1024,"x_min":-7,"x_max":1141,"o":"m -7 3 q 4 33 -7 25 q 30 37 9 37 q 121 119 98 37 l 302 779 q 309 822 309 804 q 273 869 309 859 q 208 874 258 874 q 199 882 199 874 q 220 919 199 919 q 269 916 224 919 q 374 911 332 911 q 481 916 415 911 q 533 919 528 919 q 542 911 542 919 q 536 886 542 904 q 502 871 532 876 q 450 855 465 867 q 413 791 425 837 l 334 506 l 827 506 l 905 791 q 909 819 909 806 q 807 874 909 874 q 798 882 798 874 q 820 919 798 919 q 869 916 824 919 q 974 911 931 911 q 1081 916 1015 911 q 1133 919 1128 919 q 1141 911 1141 919 q 1135 886 1141 905 q 1100 873 1132 876 q 1045 855 1062 870 q 1013 791 1025 838 l 831 132 q 824 90 824 104 q 856 43 824 53 q 918 37 871 37 q 935 31 935 37 q 915 -8 935 -8 q 865 -5 909 -8 q 760 0 802 0 q 653 -5 718 0 q 602 -8 606 -8 q 592 3 592 -8 q 604 33 592 24 q 613 37 608 37 q 684 55 660 37 q 720 119 707 74 l 812 452 l 319 452 l 228 119 q 224 92 224 104 q 326 37 224 37 q 335 31 335 37 q 315 -8 335 -8 q 265 -5 310 -8 q 160 0 202 0 q 54 -5 119 0 q 2 -8 7 -8 q -7 3 -7 -8 z "},"I":{"ha":439,"x_min":-1,"x_max":538,"o":"m -1 0 l -1 3 q 9 33 -1 26 q 41 38 16 38 q 126 119 105 38 l 296 779 q 302 823 302 806 q 269 869 302 859 q 206 874 254 874 q 197 882 197 874 q 218 919 197 919 q 267 916 222 919 q 371 911 330 911 q 477 915 422 911 q 529 919 532 919 q 538 911 538 919 q 532 886 538 905 q 495 873 528 876 q 438 855 456 871 q 406 791 418 838 l 237 132 q 231 90 231 108 q 266 41 231 52 q 333 37 282 37 q 342 29 342 37 q 322 -8 342 -8 q 272 -5 317 -8 q 168 0 209 0 q 60 -5 125 0 q 9 -8 14 -8 q -1 0 -1 -8 z "},"J":{"ha":414,"x_min":-134,"x_max":520,"o":"m -134 -218 q -86 -172 -134 -172 q -41 -199 -64 -172 q 3 -227 -18 -227 q 35 -208 22 -227 q 89 -39 54 -182 l 285 779 q 290 820 290 802 q 254 869 290 859 q 187 874 238 874 q 178 882 178 874 q 197 919 178 919 q 248 916 203 919 q 352 911 309 911 q 459 916 395 911 q 511 919 505 919 q 520 911 520 919 q 515 886 520 903 q 479 873 511 876 q 426 855 442 870 q 395 791 406 838 l 210 21 q 127 -181 180 -101 q -46 -291 55 -291 q -107 -273 -82 -291 q -134 -218 -134 -253 z "},"K":{"ha":902,"x_min":-6,"x_max":975,"o":"m -6 3 q 5 33 -6 26 q 33 37 9 37 q 125 119 104 37 l 294 779 q 301 821 301 806 q 266 869 301 859 q 199 874 250 874 q 189 882 189 874 q 210 919 189 919 q 259 916 214 919 q 363 911 321 911 q 471 915 415 911 q 523 919 526 919 q 532 911 532 919 q 526 886 532 905 q 492 873 523 876 q 438 855 455 870 q 405 791 416 836 l 317 452 l 720 789 q 762 845 762 824 q 681 874 762 874 q 670 885 670 874 q 693 919 670 919 q 736 916 697 919 q 827 911 790 911 q 921 916 864 911 q 966 919 962 919 q 975 911 975 919 q 969 886 975 904 q 947 875 966 875 q 826 817 897 875 l 486 536 l 717 126 q 831 37 768 37 q 846 29 846 37 q 825 -8 846 -8 q 779 -4 829 -8 q 680 0 728 0 q 578 -5 640 0 q 530 -8 534 -8 q 520 3 520 -8 q 532 33 520 24 q 581 38 532 33 q 621 69 621 42 q 602 119 621 86 l 406 472 l 300 384 l 232 119 q 228 90 228 104 q 313 37 228 37 q 321 29 321 37 q 300 -8 321 -8 q 254 -5 296 -8 q 154 0 194 0 q 52 -5 114 0 q 3 -8 8 -8 q -6 3 -6 -8 z "},"L":{"ha":780,"x_min":5,"x_max":726,"o":"m 5 0 q 10 25 5 7 q 43 37 14 35 q 95 56 79 40 q 126 119 115 74 l 296 779 q 302 821 302 806 q 267 869 302 859 q 200 874 251 874 q 191 882 191 874 q 211 919 191 919 q 260 916 216 919 q 365 911 322 911 q 472 915 417 911 q 524 919 527 919 q 534 911 534 919 q 528 886 534 905 q 493 873 524 876 q 439 855 456 870 q 406 791 418 836 l 251 189 q 240 122 240 146 q 281 62 240 77 q 362 54 304 54 q 587 77 535 54 q 644 121 617 90 q 687 179 665 150 q 700 187 693 187 q 715 178 705 187 q 726 165 726 170 q 665 23 726 161 q 652 0 656 3 q 628 -7 646 -7 q 424 -3 560 -7 q 219 1 288 1 q 14 -8 187 1 q 13 -8 14 -8 q 5 0 5 -8 z "},"M":{"ha":1024,"x_min":-39,"x_max":1108,"o":"m -39 0 q -28 33 -39 24 q 21 43 -4 38 q 86 119 62 56 l 342 811 q 225 873 320 873 q 218 879 218 873 q 235 911 218 911 l 417 919 q 418 919 417 919 q 437 874 434 919 l 483 199 l 892 872 q 937 919 920 919 q 962 916 940 919 q 1016 911 994 911 q 1059 915 1030 911 q 1102 919 1088 919 q 1108 911 1108 919 q 1107 907 1108 911 q 1097 878 1103 882 q 1065 873 1091 873 q 985 791 1002 873 l 855 132 q 851 97 851 111 q 886 43 851 55 q 956 37 903 37 q 966 29 966 37 q 945 -8 966 -8 q 899 -5 941 -8 q 799 0 839 0 q 697 -5 760 0 q 647 -8 652 -8 q 637 0 636 -8 l 638 3 q 651 34 644 29 q 683 37 656 37 q 750 119 734 37 l 872 739 l 440 42 q 420 33 435 33 q 404 45 404 33 l 357 708 l 141 119 q 133 82 133 97 q 231 37 133 37 q 241 29 241 37 q 220 -8 241 -8 q 181 -5 217 -8 q 97 0 131 0 q 12 -5 64 0 q -30 -8 -26 -8 q -39 0 -39 -8 z "},"N":{"ha":975,"x_min":26,"x_max":1090,"o":"m 26 0 q 38 33 26 23 q 118 56 64 34 q 153 119 142 74 l 330 806 q 178 873 286 873 q 146 883 146 873 q 167 919 146 919 q 199 916 170 919 q 270 911 241 911 q 344 916 299 911 q 380 919 376 919 q 399 903 390 919 l 777 216 l 925 791 q 929 819 929 807 q 825 874 929 874 q 816 882 816 874 q 837 919 816 919 q 875 916 840 919 q 957 911 924 911 q 1041 916 990 911 q 1081 919 1078 919 q 1090 911 1090 919 q 1072 874 1090 874 q 979 791 1000 874 l 812 149 q 890 9 890 11 q 862 -1 890 -1 q 847 -1 857 -1 q 833 0 838 0 q 764 9 770 0 l 367 741 l 207 119 q 203 93 203 106 q 307 37 203 37 q 315 29 315 37 q 296 -8 315 -8 q 254 -5 292 -8 q 168 0 202 0 q 79 -5 134 0 q 36 -8 41 -8 q 26 0 26 -8 z "},"O":{"ha":1048,"x_min":98,"x_max":1044,"o":"m 98 428 q 249 774 98 625 q 622 929 406 929 q 930 799 811 929 q 1044 482 1044 673 q 893 137 1044 286 q 520 -18 736 -18 q 213 111 331 -18 q 98 428 98 237 m 222 390 q 295 146 222 245 q 517 35 377 35 q 806 187 684 35 q 920 520 920 330 q 847 765 920 666 q 625 876 766 876 q 336 724 458 876 q 222 390 222 581 z "},"P":{"ha":731,"x_min":-5,"x_max":785,"o":"m -5 3 q 5 33 -5 24 q 36 38 12 38 q 121 119 100 38 l 288 770 q 295 812 295 797 q 260 861 295 850 q 193 865 243 865 q 183 874 183 865 q 195 907 183 895 q 320 922 202 916 q 462 926 411 926 q 677 864 584 926 q 785 677 785 793 q 696 478 785 567 q 496 390 607 390 q 429 401 469 390 q 378 434 378 415 q 393 465 378 465 q 398 464 395 465 q 475 446 445 446 q 611 525 559 446 q 656 682 656 593 q 604 818 656 762 q 471 873 552 873 q 408 819 422 873 l 228 119 q 224 93 224 106 q 328 37 224 37 q 337 29 337 37 q 317 -8 337 -8 q 267 -5 311 -8 q 162 0 206 0 q 56 -5 119 0 q 4 -8 10 -8 q -5 3 -5 -8 z "},"Q":{"ha":1048,"x_min":96,"x_max":1042,"o":"m 96 428 q 248 774 96 624 q 621 929 404 929 q 928 800 810 929 q 1042 482 1042 673 q 936 186 1042 322 q 676 5 832 53 q 763 -94 721 -31 q 807 -157 793 -140 q 858 -213 838 -199 q 927 -237 886 -233 q 1002 -239 964 -238 q 1030 -251 1030 -241 q 1013 -294 1030 -282 q 912 -302 1001 -302 q 672 -155 758 -302 q 589 -33 648 -113 q 560 -17 583 -25 q 532 -18 550 -16 q 505 -18 511 -18 q 221 102 339 -18 q 96 428 96 229 m 220 394 q 307 140 220 241 q 549 35 398 35 q 814 187 703 35 q 918 519 918 328 q 846 764 918 665 q 624 876 765 876 q 334 725 456 876 q 220 394 220 583 z "},"R":{"ha":902,"x_min":-16,"x_max":837,"o":"m -16 3 q -5 33 -16 26 q 27 37 1 37 q 106 75 78 37 q 140 161 125 101 l 297 770 q 305 820 305 802 q 273 863 305 856 q 213 865 267 865 q 191 874 191 865 q 203 907 191 896 q 340 924 213 916 q 495 930 445 930 q 694 884 610 930 q 798 723 798 828 q 703 549 798 623 q 515 468 621 483 q 517 465 515 466 q 596 361 568 428 l 691 136 q 744 62 713 84 q 798 41 760 51 q 834 33 816 37 q 837 28 837 31 q 817 -8 837 -8 q 780 -6 804 -8 q 743 -4 755 -4 q 709 -6 731 -4 q 675 -8 687 -8 q 608 47 631 -8 l 476 361 q 416 435 452 419 q 321 446 391 446 l 237 119 q 233 87 233 104 q 324 37 233 37 q 332 29 332 37 q 312 -8 332 -8 q 261 -4 314 -8 q 155 0 208 0 q 46 -5 111 0 q -7 -8 0 -8 q -16 3 -16 -8 m 335 500 l 346 500 q 673 708 673 500 q 610 836 673 790 q 469 877 555 877 q 422 840 431 877 l 335 500 z "},"S":{"ha":609,"x_min":41,"x_max":629,"o":"m 41 54 q 60 124 41 60 q 83 194 79 187 q 106 205 90 205 q 134 197 134 205 q 126 164 134 190 q 117 122 117 138 q 248 35 117 35 q 382 75 328 35 q 445 195 445 119 q 392 326 445 256 q 293 431 366 361 q 189 564 220 502 q 160 668 160 621 q 236 856 160 782 q 426 929 311 929 q 541 907 477 929 q 629 850 629 876 q 617 786 629 844 q 602 723 604 728 q 579 712 596 712 q 551 723 551 712 q 552 743 551 730 q 554 764 554 757 q 520 845 554 814 q 437 876 487 876 q 321 828 366 876 q 275 709 275 780 q 349 549 275 633 q 486 406 418 477 q 560 245 560 320 q 559 214 560 231 q 464 41 555 107 q 270 -18 381 -18 q 54 36 134 -18 q 41 54 41 44 z "},"T":{"ha":804,"x_min":137,"x_max":964,"o":"m 137 742 q 151 791 137 748 q 168 847 167 844 q 190 950 174 882 q 215 964 194 964 q 223 964 218 964 q 231 963 229 963 q 240 944 239 963 q 305 911 241 911 l 842 911 q 909 937 899 911 q 938 964 919 964 q 964 954 964 964 q 953 918 964 954 q 933 848 941 882 q 922 779 928 813 q 886 732 912 732 q 860 741 860 732 q 865 773 860 752 q 870 805 870 794 q 804 859 870 859 l 675 859 q 629 847 642 859 q 612 805 620 838 l 439 132 q 432 90 432 105 q 465 42 432 53 q 528 37 481 37 q 536 29 536 37 q 517 -8 536 -8 q 465 -5 512 -8 q 356 0 399 0 q 245 -5 313 0 q 191 -8 196 -8 q 182 0 182 -8 q 200 35 182 29 q 241 38 205 37 q 328 119 307 39 l 505 805 q 509 834 509 823 q 475 859 509 859 l 300 859 q 210 804 235 859 q 182 736 195 770 q 163 732 177 732 q 137 742 137 732 z "},"U":{"ha":999,"x_min":156,"x_max":1090,"o":"m 156 211 q 172 328 156 265 l 289 779 q 295 821 295 803 q 260 869 295 859 q 193 874 243 874 q 183 882 183 874 q 204 919 183 919 q 253 916 209 919 q 365 911 315 911 q 481 916 418 911 q 531 919 527 919 q 541 911 541 919 q 534 886 541 905 q 502 873 531 875 q 446 860 464 870 q 399 791 412 842 l 280 330 q 264 223 264 270 q 498 37 264 37 q 720 130 642 37 q 816 359 778 201 l 920 791 q 924 818 924 805 q 820 873 924 873 q 810 880 810 873 q 831 918 810 918 q 868 915 836 918 q 954 910 913 910 q 1019 914 976 910 q 1084 918 1063 918 q 1090 911 1090 918 q 1084 885 1090 903 q 1059 873 1080 873 q 1018 867 1028 871 q 987 824 995 858 l 876 366 q 737 62 823 143 q 469 -18 652 -18 q 156 211 156 -18 z "},"V":{"ha":951,"x_min":171,"x_max":1137,"o":"m 171 883 q 192 919 171 919 q 235 916 195 919 q 330 911 291 911 q 426 916 368 911 q 473 919 467 919 q 481 911 481 919 q 471 877 481 887 q 412 869 441 873 q 365 813 365 861 q 366 791 365 807 l 422 157 l 888 767 q 915 827 915 802 q 816 874 915 874 q 804 885 804 874 q 827 919 804 919 q 875 916 832 919 q 975 911 935 911 q 1078 915 1026 911 q 1128 919 1131 919 q 1137 911 1137 919 q 1131 886 1137 903 q 1107 874 1126 874 q 981 791 1044 874 l 366 -13 q 345 -20 361 -20 q 330 -1 332 -20 l 262 774 q 239 846 258 823 q 197 870 227 861 q 171 883 171 878 z "},"W":{"ha":1267,"x_min":163,"x_max":1444,"o":"m 163 881 q 184 919 163 919 q 237 915 201 919 q 290 911 273 911 q 369 917 322 911 q 401 920 398 920 q 414 898 414 920 q 407 877 414 880 q 356 865 381 871 q 333 817 333 857 q 334 793 333 804 l 413 146 l 631 444 l 589 795 q 566 854 583 838 q 524 871 554 865 q 498 883 498 876 q 518 919 498 919 q 574 916 536 919 q 629 912 611 912 q 746 921 679 912 q 760 910 758 918 q 761 891 760 901 q 755 878 759 883 q 708 867 731 873 q 687 825 687 857 q 688 804 687 809 l 718 561 l 891 799 q 911 844 911 826 q 853 874 911 874 q 847 881 847 874 q 871 919 847 919 q 922 915 888 919 q 973 911 956 911 q 1050 916 1008 911 q 1081 919 1080 919 q 1090 912 1090 919 q 1084 886 1090 906 q 1067 874 1081 874 q 960 791 1020 874 l 728 475 l 768 149 l 1219 767 q 1248 835 1248 807 q 1179 874 1248 874 q 1171 884 1171 874 q 1194 919 1171 919 q 1253 915 1214 919 q 1312 911 1293 911 q 1374 915 1333 911 q 1435 919 1415 919 q 1444 911 1444 919 q 1438 886 1444 905 q 1424 874 1434 874 q 1310 791 1369 873 l 724 -12 q 701 -20 718 -20 q 683 21 688 -20 l 642 358 l 371 -12 q 349 -20 365 -20 q 333 1 336 -20 l 239 774 q 216 848 233 826 q 183 871 206 863 q 163 881 163 878 z "},"X":{"ha":926,"x_min":-10,"x_max":1011,"o":"m -10 0 q -5 25 -10 7 q 13 37 -1 37 q 140 119 62 37 l 462 459 l 327 774 q 279 848 304 827 q 197 873 249 873 q 172 883 172 873 q 192 919 172 919 q 239 915 188 919 q 342 911 291 911 q 448 916 383 911 q 498 919 494 919 q 508 911 508 919 q 496 877 508 888 q 454 873 493 874 q 410 843 410 872 q 420 808 410 831 l 536 537 l 753 767 q 791 834 791 807 q 700 874 791 874 q 688 885 688 874 q 711 919 688 919 q 757 916 715 919 q 854 911 814 911 q 954 916 892 911 q 1002 919 997 919 q 1011 911 1011 919 q 1005 886 1011 904 q 987 874 1001 874 q 843 791 920 873 l 557 489 l 716 116 q 817 37 750 37 q 827 37 821 37 q 836 37 833 37 q 854 28 854 37 q 834 -8 854 -8 q 785 -5 829 -8 q 682 0 722 0 q 576 -5 640 0 q 525 -8 530 -8 q 515 3 515 -8 q 526 33 515 24 q 577 39 551 37 q 618 77 618 45 q 607 119 618 92 l 482 411 l 230 144 q 191 77 191 103 q 283 37 191 37 q 295 26 295 37 q 273 -8 295 -8 q 229 -5 269 -8 q 137 0 174 0 q 44 -5 100 0 q -1 -8 4 -8 q -10 0 -10 -8 z "},"Y":{"ha":897,"x_min":121,"x_max":1066,"o":"m 121 883 q 142 919 121 919 q 193 916 146 919 q 300 911 257 911 q 412 916 344 911 q 465 919 460 919 q 474 911 474 919 q 463 877 474 887 q 413 871 438 874 q 371 831 371 865 q 381 791 371 817 l 507 475 l 780 767 q 817 833 817 807 q 725 874 817 874 q 713 885 713 874 q 736 919 713 919 q 787 916 742 919 q 894 911 851 911 q 1004 915 947 911 q 1057 919 1060 919 q 1066 911 1066 919 q 1060 886 1066 903 q 1032 875 1056 875 q 888 791 968 875 l 513 401 l 444 132 q 436 88 436 102 q 467 41 436 52 q 527 37 481 37 q 535 29 535 37 q 515 -8 535 -8 q 464 -5 510 -8 q 355 0 399 0 q 245 -5 313 0 q 192 -8 197 -8 q 182 3 182 -8 q 194 33 182 24 q 236 39 195 34 q 300 64 277 43 q 337 136 324 84 l 412 431 l 268 774 q 142 874 226 874 q 121 883 121 874 z "},"Z":{"ha":829,"x_min":79,"x_max":798,"o":"m 79 16 l 79 16 q 96 49 83 29 l 651 859 l 312 859 q 243 840 264 859 q 209 779 228 827 q 186 769 205 769 q 159 780 159 769 q 159 783 159 781 q 187 877 169 814 q 208 971 192 909 q 233 984 212 984 q 253 981 251 984 q 256 958 256 978 q 323 911 256 911 l 774 911 q 798 899 798 911 q 798 895 798 899 l 798 895 l 798 895 q 782 861 794 879 l 227 52 l 357 52 q 602 75 536 52 q 713 190 662 97 q 732 206 722 206 q 768 194 768 206 q 737 109 768 197 q 713 30 728 85 q 700 6 708 12 q 675 0 692 0 l 104 0 q 79 16 78 0 z "},"[":{"ha":333,"x_min":-83,"x_max":506,"o":"m -83 -203 q -75 -166 -83 -195 l 214 956 q 245 1006 227 1006 l 498 1006 q 506 1000 506 1006 q 500 971 506 987 q 484 951 493 951 l 349 951 q 296 909 307 951 l 32 -119 q 31 -131 31 -125 q 63 -161 31 -161 l 197 -161 q 207 -168 207 -161 q 201 -197 207 -180 q 184 -216 193 -216 l -68 -216 q -83 -203 -83 -216 z "},"\\":{"ha":694,"x_min":198,"x_max":619,"o":"m 198 1006 l 269 1006 l 619 -216 l 548 -216 l 198 1006 z "},"]":{"ha":333,"x_min":-154,"x_max":435,"o":"m -154 -210 q -149 -182 -154 -198 q -132 -161 -141 -161 l 3 -161 q 56 -119 45 -161 l 320 909 q 321 920 321 914 q 289 951 321 951 l 155 951 q 145 958 145 951 q 151 986 145 969 q 168 1006 159 1006 l 420 1006 q 435 992 435 1006 q 427 956 435 985 l 138 -167 q 107 -216 125 -216 l -146 -216 q -154 -210 -154 -216 z "},"^":{"ha":692,"x_min":67,"x_max":627,"o":"m 67 673 l 67 737 q 212 871 160 806 q 311 1042 264 936 l 382 1042 q 481 870 429 935 q 627 737 533 806 l 627 673 q 346 850 457 750 q 67 673 239 753 z "},"_":{"ha":689,"x_min":-47,"x_max":662,"o":"m -47 -232 q -30 -214 -47 -214 l 644 -214 q 662 -232 662 -214 l 662 -282 q 644 -300 662 -300 l -30 -300 q -47 -282 -47 -300 l -47 -232 z "},"`":{"ha":248,"x_min":88,"x_max":289,"o":"m 88 939 q 139 983 88 983 q 227 895 206 983 l 289 640 q 279 627 292 627 l 260 627 q 241 640 248 627 l 106 885 q 88 939 88 917 z "},"a":{"ha":572,"x_min":0,"x_max":547,"o":"m 0 71 q 141 371 0 224 q 420 518 282 518 q 450 516 436 518 q 464 552 457 534 q 490 575 475 575 q 540 556 540 575 q 538 549 540 553 q 456 328 497 438 q 398 114 398 168 q 412 92 398 92 q 478 146 435 92 q 525 201 521 201 q 538 191 530 201 q 547 176 547 180 q 542 165 547 172 q 459 65 506 112 q 355 1 395 1 q 306 64 306 1 q 336 207 306 115 q 64 0 188 0 q 18 21 36 0 q 0 71 0 42 m 85 133 q 127 89 85 89 q 293 228 180 89 q 404 420 404 365 q 360 447 404 447 q 182 337 278 447 q 85 133 85 227 z "},"b":{"ha":595,"x_min":61,"x_max":625,"o":"m 61 92 q 68 134 61 111 l 266 817 q 270 842 270 831 q 232 882 270 871 q 194 899 194 892 q 215 934 194 925 q 241 936 225 935 q 319 952 260 938 q 379 966 377 966 q 393 953 393 966 q 353 806 393 947 l 220 355 q 527 570 391 570 q 600 527 572 570 q 625 441 625 490 q 431 121 625 283 q 170 0 288 0 q 94 22 123 0 q 61 92 61 47 m 155 117 q 201 50 155 50 q 412 196 295 50 q 526 435 526 337 q 475 494 526 494 q 271 348 389 494 q 155 117 155 205 z "},"c":{"ha":460,"x_min":38,"x_max":481,"o":"m 38 204 q 136 455 38 340 q 353 570 235 570 q 436 553 401 570 q 481 488 481 530 q 466 451 481 466 q 429 436 450 436 q 380 488 380 436 q 381 496 380 491 q 381 503 381 500 q 347 519 381 519 q 204 427 268 519 q 140 219 140 334 q 168 127 140 163 q 253 88 198 88 q 319 111 288 88 q 363 138 355 136 q 388 115 388 127 q 385 106 388 111 q 218 0 322 0 q 85 62 135 0 q 38 204 38 119 z "},"d":{"ha":618,"x_min":19,"x_max":652,"o":"m 19 149 q 125 423 19 285 q 369 570 237 570 q 462 535 426 570 l 536 846 q 538 861 538 851 q 511 890 538 882 q 484 903 484 897 q 534 940 484 935 q 568 944 545 941 q 613 958 587 948 l 635 966 q 652 954 652 966 q 651 945 652 950 l 444 138 q 441 114 441 127 q 458 92 441 92 q 526 150 482 92 q 572 208 569 208 q 585 199 576 208 q 594 185 594 190 q 592 177 594 181 q 515 70 567 127 q 412 1 452 1 q 357 71 357 1 q 387 222 357 96 q 123 0 246 0 q 44 52 74 0 q 19 149 19 96 m 119 153 q 176 73 119 73 q 337 225 242 73 q 427 444 427 370 q 411 496 427 474 q 363 520 393 520 q 231 433 301 520 q 153 300 185 375 q 119 153 119 218 z "},"e":{"ha":460,"x_min":29,"x_max":471,"o":"m 29 176 q 125 451 29 332 q 349 570 221 570 q 433 544 399 570 q 471 467 471 515 q 347 312 471 364 q 134 264 273 281 q 128 192 128 227 q 245 72 128 72 q 328 112 283 72 q 369 152 372 152 q 385 141 374 152 q 395 126 395 131 q 391 116 395 121 q 192 0 305 0 q 73 52 118 0 q 29 176 29 102 m 146 313 q 385 459 385 341 q 335 519 385 519 q 215 445 273 519 q 146 313 170 387 z "},"f":{"ha":347,"x_min":-189,"x_max":597,"o":"m -189 -235 q -127 -184 -189 -184 q -97 -199 -115 -184 q -71 -214 -80 -214 q -24 -161 -47 -214 q 79 165 14 -72 l 168 494 l 86 494 q 73 505 73 494 q 80 534 73 519 q 100 552 89 552 l 183 552 q 267 813 234 747 q 467 966 341 966 q 551 947 513 966 q 597 881 597 923 q 550 832 597 832 q 496 874 519 832 q 446 916 473 916 q 336 760 393 916 q 275 552 315 701 l 387 552 q 399 539 399 552 q 372 494 399 494 l 259 494 l 188 239 q 86 -76 126 16 q -117 -292 -7 -292 q -189 -235 -189 -292 z "},"g":{"ha":527,"x_min":-19,"x_max":560,"o":"m -19 -127 q 34 -19 -19 -66 q 144 37 78 20 q 107 90 107 66 q 178 180 107 125 q 74 342 74 222 q 140 502 74 433 q 297 570 206 570 q 435 514 380 570 l 549 514 q 560 504 560 514 q 553 478 560 493 q 535 460 545 460 l 469 460 q 482 391 482 427 q 416 233 482 300 q 259 165 349 165 q 220 168 239 165 q 193 126 193 143 q 253 73 193 107 l 396 -7 q 489 -130 489 -61 q 410 -258 489 -214 q 255 -294 346 -294 q 52 -241 132 -294 q -19 -127 -19 -193 m 66 -117 q 141 -215 66 -180 q 271 -243 199 -243 q 355 -224 319 -243 q 400 -156 400 -200 q 326 -74 400 -117 l 224 -16 q 184 9 220 -14 q 104 -36 138 -3 q 66 -117 66 -73 m 163 318 q 186 245 163 273 q 255 216 211 216 q 359 286 320 216 q 393 416 393 346 q 300 519 393 519 q 196 448 235 519 q 163 318 163 389 z "},"h":{"ha":595,"x_min":12,"x_max":577,"o":"m 12 36 q 16 51 12 39 l 237 817 q 241 843 241 831 q 206 882 241 872 q 170 899 170 892 q 191 933 170 925 q 270 944 222 937 q 311 956 273 945 q 349 966 347 966 q 365 953 365 966 q 359 929 365 948 l 178 304 q 480 570 345 570 q 577 445 577 570 q 537 259 577 357 q 439 96 499 168 q 299 0 359 0 q 240 50 240 0 q 254 88 240 71 q 290 104 269 104 q 326 91 312 104 q 344 77 339 77 q 385 113 360 77 q 448 257 420 167 q 477 410 477 347 q 435 490 477 490 q 237 315 354 490 q 106 60 141 170 q 96 26 101 43 q 68 9 87 9 q 12 36 12 9 z "},"i":{"ha":369,"x_min":59,"x_max":359,"o":"m 59 54 q 76 127 59 82 l 187 420 q 197 463 197 448 q 184 478 197 478 q 133 450 165 478 q 98 422 100 422 q 82 431 92 422 q 73 446 73 440 q 78 459 73 453 q 156 530 108 496 q 250 570 213 570 q 301 523 301 570 q 275 418 301 488 l 174 150 q 163 107 163 119 q 180 90 163 90 q 264 144 215 90 q 315 197 314 197 q 330 188 320 197 q 340 174 340 178 q 338 164 340 169 q 243 59 307 111 q 119 0 172 0 q 59 54 59 0 m 241 826 q 258 868 241 850 q 300 885 275 885 q 341 868 324 885 q 359 826 359 850 q 341 784 359 802 q 300 767 324 767 q 258 784 275 767 q 241 826 241 802 z "},"j":{"ha":302,"x_min":-134,"x_max":336,"o":"m -134 -240 q -90 -193 -134 -193 q -49 -212 -68 -193 q -26 -230 -31 -230 q -1 -186 -14 -230 l 172 431 q 176 461 176 448 q 165 477 176 477 q 116 448 147 477 q 81 419 85 419 q 66 429 75 419 q 57 446 57 439 q 62 456 57 450 q 222 570 151 570 q 275 513 275 570 q 252 393 275 473 l 177 137 q 94 -115 123 -47 q -68 -294 18 -294 q -134 -240 -134 -294 m 218 826 q 235 868 218 850 q 277 885 252 885 q 318 868 301 885 q 336 826 336 850 q 318 784 336 802 q 277 767 301 767 q 235 784 252 767 q 218 826 218 802 z "},"k":{"ha":618,"x_min":18,"x_max":589,"o":"m 18 30 q 19 37 18 35 l 240 797 q 248 842 248 823 q 217 883 248 873 q 186 899 186 892 q 208 934 186 926 q 281 944 233 937 q 335 960 296 947 q 355 966 354 966 q 371 953 371 966 q 366 928 371 945 l 218 422 q 475 568 355 568 q 553 544 522 568 q 589 473 589 518 q 585 439 589 454 q 309 278 540 297 q 357 201 340 245 q 385 134 380 144 q 435 90 409 90 q 507 130 468 90 q 549 170 547 170 q 567 159 555 170 q 578 142 578 149 q 573 130 578 138 q 396 0 477 0 q 319 58 353 0 q 265 177 308 77 q 206 271 233 250 q 178 285 203 273 l 100 19 q 81 3 96 3 q 18 30 18 3 m 194 332 q 274 326 233 326 q 408 349 347 326 q 490 442 490 381 q 437 490 490 490 q 303 435 380 490 q 194 332 242 391 z "},"l":{"ha":347,"x_min":39,"x_max":380,"o":"m 39 51 q 53 127 39 80 l 253 817 q 258 846 258 833 q 225 883 258 873 q 193 899 193 892 q 215 935 193 928 q 289 944 240 937 q 343 959 311 949 q 363 966 353 962 q 380 953 380 966 q 379 945 380 949 l 147 149 q 142 116 142 130 q 160 90 142 90 q 233 144 182 90 q 289 198 283 198 q 303 189 295 198 q 311 174 311 180 q 308 165 311 169 q 209 66 278 123 q 94 0 130 0 q 39 51 39 0 z "},"m":{"ha":1002,"x_min":45,"x_max":964,"o":"m 45 28 q 47 38 45 33 l 174 345 q 204 449 204 416 q 180 479 204 479 q 126 430 159 479 q 87 380 94 380 q 73 387 83 380 q 62 397 62 394 q 125 496 62 424 q 216 568 189 568 q 277 496 277 568 q 254 387 277 454 q 513 570 399 570 q 581 484 581 570 q 570 399 581 458 q 839 570 725 570 q 926 477 926 570 q 904 384 926 436 l 796 124 q 791 103 791 113 q 799 90 791 90 q 877 144 819 90 q 943 199 935 199 q 948 197 945 198 q 964 176 964 182 q 864 75 964 150 q 732 0 763 0 q 684 40 684 0 q 709 127 684 68 l 814 382 q 835 458 835 432 q 789 493 835 493 q 629 391 718 493 q 519 223 556 308 q 441 18 496 154 q 421 2 433 2 q 415 3 418 2 q 380 9 397 6 q 357 29 357 16 q 359 38 357 35 l 456 288 q 496 441 496 393 q 460 493 496 493 q 315 387 399 493 q 214 223 248 303 q 151 71 201 193 q 107 -6 119 -6 q 58 11 90 -6 q 45 28 45 17 z "},"n":{"ha":686,"x_min":47,"x_max":648,"o":"m 47 401 q 50 408 47 404 q 117 506 73 456 q 209 568 172 568 q 267 489 267 568 q 250 382 267 450 q 530 570 399 570 q 618 488 618 570 q 604 428 618 464 l 494 151 q 482 103 482 121 q 491 90 482 90 q 566 144 514 90 q 624 199 617 199 q 639 189 629 199 q 648 174 648 180 q 643 163 648 170 q 541 63 597 109 q 420 0 465 0 q 374 41 374 0 q 397 127 374 70 l 507 408 q 517 454 517 433 q 488 490 517 490 q 306 359 410 490 q 181 154 222 253 q 128 17 165 107 q 102 -3 118 -3 q 70 6 87 -3 q 50 31 50 17 q 52 45 50 39 l 154 302 q 197 452 197 410 q 179 479 197 479 q 117 429 149 479 q 79 379 84 379 q 59 386 71 379 q 47 401 47 393 z "},"o":{"ha":572,"x_min":48,"x_max":534,"o":"m 48 210 q 130 452 48 345 q 350 570 219 570 q 486 508 435 570 q 534 363 534 450 q 447 111 534 219 q 244 0 359 0 q 101 62 156 0 q 48 210 48 121 m 146 182 q 168 96 146 132 q 239 51 193 51 q 373 160 310 51 q 437 392 437 269 q 415 477 437 442 q 342 519 389 519 q 210 412 273 519 q 146 182 146 303 z "},"p":{"ha":572,"x_min":-103,"x_max":555,"o":"m -103 -291 q -96 -267 -103 -281 q -73 -252 -91 -255 q -39 -240 -50 -249 q -5 -180 -18 -224 l 181 468 q 52 422 118 452 q 46 420 50 420 q 25 446 25 420 q 34 463 25 456 q 199 528 62 485 l 226 619 q 244 646 233 641 q 277 647 249 647 q 286 648 279 647 q 294 648 292 648 q 316 633 316 648 q 294 552 316 621 q 429 570 372 570 q 524 525 489 570 q 555 422 555 484 q 541 331 555 376 q 408 109 506 214 q 231 0 307 0 q 146 41 177 0 l 82 -182 q 77 -212 77 -201 q 119 -251 77 -245 q 161 -264 161 -256 q 136 -303 161 -303 q 101 -299 139 -303 q 26 -295 63 -295 q -52 -299 -12 -295 q -91 -303 -92 -303 q -103 -291 -103 -303 m 174 121 q 229 50 174 50 q 347 138 277 50 q 445 322 417 225 q 456 391 456 362 q 435 465 456 435 q 367 498 410 498 q 276 488 331 498 l 177 146 q 174 121 174 136 z "},"q":{"ha":595,"x_min":15,"x_max":604,"o":"m 15 135 q 145 429 15 288 q 416 570 275 570 q 526 511 489 570 q 564 568 550 568 l 570 568 q 604 555 604 568 q 604 551 604 553 l 393 -136 q 380 -204 380 -176 q 401 -246 380 -235 q 439 -254 410 -251 q 460 -265 460 -256 q 452 -290 460 -276 q 435 -303 445 -303 q 396 -299 436 -303 q 310 -295 356 -295 q 220 -299 262 -295 q 181 -303 179 -303 q 169 -291 169 -303 q 176 -267 169 -282 q 212 -250 181 -256 q 256 -237 248 -243 q 291 -180 278 -221 l 399 173 q 146 0 256 0 q 52 38 88 0 q 15 135 15 77 m 100 102 q 153 47 100 47 q 361 203 241 47 q 476 446 476 354 q 414 520 476 520 q 218 363 336 520 q 100 102 100 207 z "},"r":{"ha":482,"x_min":45,"x_max":521,"o":"m 45 414 q 47 424 45 419 q 111 512 75 471 q 197 568 162 568 q 269 463 269 568 q 254 352 269 414 q 459 570 389 570 q 503 549 485 570 q 521 503 521 529 q 505 456 521 476 q 463 437 489 437 q 432 451 448 437 q 405 465 417 465 q 374 438 399 465 q 283 313 330 393 q 215 174 237 237 q 163 24 199 123 q 136 0 154 0 q 103 8 119 0 q 83 33 83 18 q 87 48 83 39 l 172 294 q 202 433 202 379 q 175 479 202 479 q 105 437 138 479 q 71 394 72 394 q 56 402 66 394 q 45 414 45 410 z "},"s":{"ha":369,"x_min":-6,"x_max":363,"o":"m -6 77 q 33 125 -6 125 q 86 99 54 125 q 142 72 117 72 q 200 92 173 72 q 231 143 231 113 q 151 256 231 173 q 71 396 71 340 q 74 417 71 401 q 138 527 88 484 q 255 570 188 570 q 322 557 292 570 q 363 509 363 541 q 315 462 363 462 q 270 479 297 462 q 227 496 242 496 q 178 485 201 496 q 149 447 149 470 q 229 334 149 416 q 309 200 309 252 q 304 173 309 189 q 227 54 287 106 q 96 0 164 0 q 28 18 56 0 q -6 77 -6 39 z "},"t":{"ha":392,"x_min":66,"x_max":413,"o":"m 66 62 q 75 116 66 85 l 184 494 l 98 494 q 87 505 87 494 q 94 533 87 517 q 113 552 102 552 l 201 552 l 231 655 q 255 673 236 673 l 300 673 q 315 660 315 673 q 285 552 315 653 l 402 552 q 413 541 413 552 q 406 513 413 530 q 387 494 397 494 l 269 494 l 170 158 q 163 116 163 132 q 183 90 163 90 q 280 125 226 90 q 331 161 334 161 q 345 151 335 161 q 355 138 355 142 q 347 125 355 133 q 136 0 219 0 q 66 62 66 0 z "},"u":{"ha":640,"x_min":43,"x_max":602,"o":"m 43 56 q 65 137 43 84 l 186 433 q 195 461 195 452 q 180 474 195 474 q 127 429 168 474 q 81 383 86 383 q 68 393 76 383 q 61 408 61 402 q 66 418 61 412 q 260 564 184 564 q 300 526 300 564 q 267 410 300 490 l 172 182 q 161 134 161 157 q 169 119 161 119 q 351 286 211 119 q 507 503 484 444 q 521 543 514 524 q 548 570 532 570 q 580 563 562 570 q 602 543 602 555 q 599 526 602 534 l 473 169 q 461 104 461 136 q 469 90 461 90 q 532 145 486 90 q 581 199 577 199 q 592 190 585 199 q 600 176 600 181 q 597 164 600 170 q 505 63 571 119 q 389 0 431 0 q 353 34 353 0 q 375 127 353 63 l 444 324 q 273 136 363 226 q 81 0 135 0 q 43 56 43 0 z "},"v":{"ha":640,"x_min":41,"x_max":642,"o":"m 41 372 q 87 483 41 411 q 170 559 134 559 q 229 556 189 559 q 288 553 268 553 q 341 556 306 553 q 395 559 377 559 q 415 545 415 559 q 408 531 415 539 q 255 178 255 340 q 324 90 255 90 q 492 196 408 90 q 574 416 574 299 q 545 466 574 444 q 516 511 516 488 q 534 552 516 535 q 576 570 552 570 q 642 477 642 570 q 528 161 642 319 q 299 0 412 0 q 205 38 241 0 q 170 134 170 76 q 311 473 170 290 l 175 473 q 131 457 150 473 q 113 417 113 441 q 120 394 113 410 q 127 367 127 377 q 114 336 127 349 q 85 322 102 322 q 41 372 41 322 z "},"w":{"ha":889,"x_min":43,"x_max":886,"o":"m 43 365 q 93 487 43 416 q 180 559 143 559 q 238 556 199 559 q 296 553 277 553 q 350 556 314 553 q 404 559 385 559 q 423 545 423 559 q 418 532 423 538 l 415 530 q 256 181 256 371 q 274 118 256 144 q 328 87 294 87 q 439 141 378 87 q 436 179 436 158 q 491 446 436 328 q 617 564 546 564 q 672 478 672 564 q 512 147 672 342 q 581 87 539 87 q 735 197 652 87 q 818 409 818 307 q 793 462 818 436 q 768 513 768 488 q 784 553 768 536 q 821 570 800 570 q 886 484 886 570 q 777 163 886 325 q 560 0 667 0 q 453 83 488 0 q 293 0 365 0 q 200 36 237 0 q 164 127 164 71 q 320 477 164 308 l 179 477 q 136 463 156 477 q 112 427 112 448 q 132 357 112 425 q 85 321 124 321 q 56 334 68 321 q 43 365 43 347 m 492 254 q 496 201 492 228 q 616 456 616 351 q 591 486 616 486 q 526 411 559 486 q 492 254 492 332 z "},"x":{"ha":572,"x_min":-1,"x_max":566,"o":"m -1 52 q 10 91 -1 74 q 44 111 24 111 q 78 99 61 111 q 99 88 96 88 q 130 115 111 88 l 246 283 l 204 414 q 151 480 183 480 q 108 453 133 480 q 81 427 83 427 q 66 436 76 427 q 56 450 56 446 q 59 460 56 455 q 178 570 115 570 q 278 451 240 570 l 304 369 l 376 473 q 496 570 442 570 q 566 502 566 570 q 556 456 566 477 q 522 430 544 430 q 485 465 494 430 q 467 500 475 500 q 435 468 456 500 l 324 308 l 372 159 q 420 92 393 92 q 484 136 450 92 q 520 181 517 181 q 536 172 527 181 q 546 157 546 163 q 544 150 545 154 q 486 58 529 108 q 399 1 436 1 q 302 104 334 1 l 265 222 l 179 98 q 59 0 112 0 q -1 52 -1 0 z "},"y":{"ha":563,"x_min":-3,"x_max":566,"o":"m -3 -225 q 15 -181 -3 -200 q 58 -161 33 -161 q 95 -173 73 -161 q 128 -185 117 -185 q 156 -174 141 -185 q 218 -111 176 -158 q 264 -33 254 -70 q 271 56 271 -6 q 255 280 271 184 q 162 480 221 480 q 93 429 128 480 q 52 378 57 378 q 35 385 45 378 q 24 399 24 393 q 26 406 24 402 q 85 507 48 460 q 178 570 135 570 q 326 368 280 570 q 355 83 355 240 q 480 432 480 277 q 475 498 480 462 q 473 506 473 507 q 515 570 473 570 q 566 498 566 570 q 530 330 566 437 q 462 170 498 238 q 242 -160 362 -17 q 67 -296 128 -296 q 17 -276 37 -296 q -3 -225 -3 -256 z "},"z":{"ha":510,"x_min":5,"x_max":547,"o":"m 5 24 q 69 100 5 39 q 182 214 72 102 q 360 396 243 273 q 306 410 332 401 q 239 448 292 415 q 174 476 193 476 q 142 461 155 476 q 130 427 130 446 q 141 398 130 415 q 153 372 153 380 q 133 355 153 355 q 96 389 111 355 q 83 441 83 416 q 121 531 83 492 q 209 570 159 570 q 324 528 250 570 q 439 486 399 486 q 482 527 463 486 q 524 568 502 568 q 547 543 547 568 q 515 485 547 518 q 299 266 503 471 q 172 136 254 222 l 184 130 q 326 -20 277 83 q 376 -77 353 -77 q 413 -41 395 -77 q 454 -6 431 -6 q 486 -38 486 -6 q 439 -101 486 -75 q 357 -123 398 -123 q 250 -77 303 -123 q 170 9 235 -64 q 103 56 128 56 q 65 31 87 56 q 28 5 44 5 q 5 24 5 5 z "},"{":{"ha":418,"x_min":34,"x_max":522,"o":"m 34 386 l 40 413 q 206 597 184 456 q 241 840 223 719 q 522 1006 295 971 l 515 973 q 377 889 418 951 q 338 730 342 835 q 288 524 332 592 q 116 400 241 450 q 241 233 241 337 q 206 84 241 180 q 171 -64 171 -13 q 279 -184 171 -158 l 272 -216 q 56 -43 56 -182 q 95 111 56 11 q 134 266 134 212 q 34 386 134 352 z "},"|":{"ha":692,"x_min":349,"x_max":420,"o":"m 349 -216 l 349 1006 l 420 1006 l 420 -216 l 349 -216 z "},"}":{"ha":418,"x_min":-21,"x_max":467,"o":"m -21 -216 l -14 -184 q 124 -100 83 -162 q 163 60 159 -45 q 213 266 169 197 q 385 389 260 340 q 260 557 260 452 q 295 706 260 609 q 330 854 330 802 q 222 973 330 947 l 229 1006 q 446 833 446 971 q 407 678 446 779 q 368 524 368 578 q 467 404 368 437 l 461 376 q 295 193 317 333 q 260 -51 278 71 q -21 -216 206 -182 z "},"~":{"ha":750,"x_min":56,"x_max":701,"o":"m 56 260 q 221 399 141 399 q 366 374 277 399 q 509 330 437 352 q 556 321 543 321 q 684 395 627 321 l 701 375 q 641 275 673 307 q 536 234 600 234 q 368 269 475 234 q 208 311 242 311 q 73 241 138 311 l 56 260 z "},"":{"ha":456,"x_min":0,"x_max":0,"o":""},"":{"ha":460,"x_min":89,"x_max":532,"o":"m 89 246 q 186 496 89 383 q 388 611 277 604 l 414 704 q 437 715 418 715 q 460 697 460 715 q 437 610 460 691 q 532 530 532 595 q 516 493 532 508 q 479 478 501 478 q 431 530 431 478 q 432 538 431 533 q 432 545 432 543 q 422 559 432 556 l 298 130 l 304 130 q 370 153 339 130 q 414 180 407 179 q 439 157 439 170 q 435 149 439 155 q 272 42 374 44 l 241 -63 q 218 -75 238 -75 q 194 -58 194 -75 q 224 47 194 -54 q 123 123 159 64 q 89 246 89 176 m 191 261 q 251 142 191 173 l 372 559 q 254 469 308 547 q 191 261 191 377 z "},"":{"ha":666,"x_min":22,"x_max":664,"o":"m 22 37 q 81 125 22 90 q 187 160 128 155 q 229 448 214 242 l 111 448 q 101 458 101 448 q 116 504 101 504 l 234 504 q 283 781 248 691 q 490 933 345 933 q 602 903 550 933 q 664 811 664 867 q 612 747 664 747 q 555 783 570 747 q 539 852 547 817 q 497 888 529 888 q 405 815 438 888 q 332 504 357 709 l 475 504 q 485 485 485 504 q 470 448 485 448 l 320 448 q 231 160 288 289 l 260 153 q 378 109 287 147 q 499 78 452 78 q 564 133 564 78 q 524 187 564 170 q 460 218 467 212 q 444 250 444 235 q 511 311 444 311 q 591 257 562 311 q 615 157 615 212 q 568 38 615 93 q 454 -19 517 -19 q 318 21 379 -19 q 203 103 260 62 q 71 -19 138 -19 q 36 -2 50 -19 q 22 37 22 15 z "},"":{"ha":897,"x_min":121,"x_max":1066,"o":"m 121 883 q 142 919 121 919 q 193 916 146 919 q 300 911 257 911 q 412 916 343 911 q 465 919 460 919 q 474 911 474 919 q 463 877 474 886 q 412 871 438 874 q 371 831 371 865 q 381 791 371 817 l 507 475 l 780 767 q 817 833 817 807 q 725 874 817 874 q 713 885 713 874 q 736 919 713 919 q 787 916 741 919 q 894 911 852 911 q 1004 915 947 911 q 1057 919 1061 919 q 1066 911 1066 919 q 1060 886 1066 903 q 1032 875 1057 875 q 888 791 968 875 l 549 439 l 736 439 q 744 433 744 439 q 735 402 744 420 q 714 382 725 382 l 508 382 l 486 296 l 680 296 q 688 288 688 296 q 679 259 688 276 q 658 239 669 239 l 471 239 l 444 132 q 436 88 436 102 q 467 42 436 52 q 527 37 481 37 q 535 29 535 37 q 515 -8 535 -8 q 464 -5 511 -8 q 355 0 399 0 q 245 -5 313 0 q 192 -8 196 -8 q 182 0 182 -8 q 220 38 182 35 q 300 63 276 43 q 337 136 324 84 l 363 239 l 170 239 q 161 246 161 239 q 174 283 161 254 q 191 296 180 296 l 378 296 l 400 382 l 195 382 q 186 389 186 382 q 195 418 186 401 q 216 439 205 439 l 409 439 l 268 774 q 140 874 226 874 q 121 883 121 874 z "},"":{"ha":623,"x_min":176,"x_max":576,"o":"m 176 840 q 195 886 176 867 q 241 905 214 905 q 286 886 267 905 q 305 840 305 867 q 286 795 305 814 q 241 776 267 776 q 195 795 214 776 q 176 840 176 814 m 448 840 q 467 886 448 867 q 512 905 486 905 q 557 886 538 905 q 576 840 576 867 q 557 795 576 814 q 512 776 538 776 q 467 795 486 776 q 448 840 448 814 z "},"":{"ha":795,"x_min":61,"x_max":764,"o":"m 61 283 q 163 533 61 431 q 412 635 264 635 q 663 534 561 635 q 764 283 764 432 q 662 34 764 136 q 412 -68 560 -68 q 163 34 264 -68 q 61 283 61 136 m 98 283 q 189 60 98 151 q 412 -31 280 -31 q 636 60 545 -31 q 727 283 727 151 q 636 507 727 416 q 412 598 545 598 q 189 507 279 598 q 98 283 98 416 m 191 276 q 263 434 191 368 q 444 500 336 500 q 600 437 543 500 q 606 425 606 432 q 592 363 606 395 q 572 351 587 351 l 569 351 q 551 366 551 351 q 552 375 551 369 q 553 384 553 380 q 530 427 553 406 q 449 456 500 456 q 318 394 372 456 q 265 253 265 332 q 305 146 265 187 q 410 104 345 104 q 493 149 456 104 q 514 178 500 158 q 528 186 519 186 q 552 166 552 186 q 530 101 552 149 q 515 84 525 90 q 398 60 470 60 q 249 122 307 60 q 191 276 191 184 z "},"":{"ha":601,"x_min":73,"x_max":549,"o":"m 73 310 q 90 334 73 321 l 330 517 q 336 520 333 520 q 349 511 340 520 q 358 498 358 502 q 355 490 358 494 l 182 304 q 277 92 277 93 q 267 81 277 89 q 255 74 258 74 l 251 76 l 78 294 q 73 310 73 301 m 264 310 q 281 334 264 321 l 521 517 q 528 520 524 520 q 541 511 532 520 q 549 498 549 502 q 546 490 549 494 l 373 304 q 468 92 468 93 q 458 81 468 89 q 446 74 449 74 l 442 76 l 269 294 q 264 310 264 301 z "},"":{"ha":415,"x_min":64,"x_max":361,"o":"m 64 285 l 64 336 q 81 353 64 353 l 344 353 q 361 336 361 353 l 361 285 q 344 268 361 268 l 81 268 q 64 285 64 268 z "},"":{"ha":791,"x_min":71,"x_max":774,"o":"m 71 602 q 173 851 71 749 q 422 954 275 954 q 673 852 571 954 q 774 602 774 750 q 672 352 774 454 q 422 250 570 250 q 173 352 275 250 q 71 602 71 454 m 109 602 q 199 378 109 469 q 422 288 290 288 q 646 378 555 288 q 737 602 737 469 q 646 825 737 734 q 422 916 555 916 q 199 825 290 916 q 109 602 109 734 m 214 405 q 237 430 214 429 q 244 430 231 430 q 284 477 272 430 l 353 747 q 357 766 357 760 q 340 776 357 777 q 326 776 321 776 l 323 776 q 307 790 307 777 q 315 812 307 804 q 379 821 319 817 q 451 825 431 825 q 544 804 504 825 q 595 723 595 776 q 552 639 595 675 q 482 604 517 608 q 527 515 500 583 q 567 439 552 450 q 602 429 574 434 q 612 416 612 427 q 593 390 612 390 q 577 391 588 390 q 560 391 566 391 q 546 391 555 391 q 531 390 536 390 q 492 420 505 390 l 433 559 q 382 591 420 591 l 347 454 q 345 442 345 448 q 375 430 345 430 q 389 416 389 430 q 370 390 389 390 q 347 392 370 390 q 300 393 323 393 q 264 392 288 393 q 229 390 241 390 q 214 405 214 390 m 393 635 q 519 717 519 637 q 439 781 519 781 q 429 772 431 781 l 393 635 z "},"":{"ha":369,"x_min":229,"x_max":459,"o":"m 229 722 q 232 733 229 728 l 357 984 q 404 1015 372 1015 q 439 1004 423 1015 q 459 974 459 992 q 450 951 459 962 l 252 711 q 242 707 248 707 q 229 722 229 707 z "},"":{"ha":408,"x_min":165,"x_max":408,"o":"m 165 -234 q 188 -210 165 -210 q 227 -223 198 -210 q 275 -237 256 -237 q 331 -186 331 -237 q 276 -140 331 -140 q 249 -142 262 -140 q 227 -113 233 -127 l 344 -7 l 373 -16 l 323 -78 q 408 -162 408 -93 q 358 -249 408 -215 q 259 -279 315 -279 q 165 -234 165 -279 z "},"":{"ha":601,"x_min":64,"x_max":541,"o":"m 64 98 q 68 105 64 101 l 241 292 q 146 504 146 503 q 155 514 146 507 q 168 522 165 522 l 172 519 l 345 301 q 350 286 350 294 q 333 261 350 274 l 93 78 q 86 75 90 75 q 73 85 82 75 q 64 98 64 94 m 256 98 q 260 105 256 101 l 432 292 q 337 504 337 503 q 347 514 337 507 q 359 522 356 522 l 363 519 l 536 301 q 541 286 541 294 q 524 261 541 274 l 284 78 q 277 75 281 75 q 264 85 273 75 q 256 98 256 94 z "},"":{"ha":780,"x_min":-9,"x_max":792,"o":"m -9 0 q 16 36 -9 32 q 68 45 42 41 q 117 111 102 58 l 300 779 q 307 822 307 804 q 271 869 307 859 q 205 874 256 874 q 197 882 197 874 q 218 919 197 919 q 331 915 256 919 q 444 911 406 911 q 606 914 498 911 q 769 918 715 918 q 792 904 792 918 q 758 742 792 894 q 739 731 755 731 l 730 731 q 722 747 723 731 q 702 829 721 805 q 621 859 679 859 l 479 859 q 433 846 446 859 q 414 805 423 837 l 333 506 l 504 506 q 577 547 549 506 q 608 588 605 588 l 626 588 q 633 582 633 588 q 620 534 633 576 q 603 482 604 485 q 580 385 596 450 q 559 373 576 373 q 536 382 536 373 q 538 401 536 389 q 541 420 541 414 q 501 452 541 452 l 317 452 l 245 189 q 235 122 235 151 q 274 62 235 77 q 353 54 297 54 q 579 77 528 54 q 635 121 610 90 q 677 178 656 149 q 691 187 684 187 q 708 181 696 187 q 720 170 720 174 q 655 23 720 169 q 643 0 646 3 q 618 -7 636 -7 q 406 -3 547 -7 q 194 0 264 0 q 97 -4 161 0 q 0 -8 33 -8 q -9 0 -9 -8 m 419 1245 q 439 1276 419 1263 q 475 1286 455 1286 q 522 1255 507 1286 l 646 1004 q 649 993 649 999 q 636 979 649 979 q 627 983 630 979 l 428 1222 q 419 1245 419 1233 z "},"":{"ha":780,"x_min":-9,"x_max":792,"o":"m -9 0 q 16 36 -9 32 q 68 45 42 41 q 117 111 102 58 l 300 779 q 307 822 307 804 q 271 869 307 859 q 205 874 256 874 q 197 882 197 874 q 218 919 197 919 q 331 915 256 919 q 444 911 406 911 q 606 914 498 911 q 769 918 715 918 q 792 904 792 918 q 758 742 792 894 q 739 731 755 731 l 730 731 q 722 747 723 731 q 702 829 721 805 q 621 859 679 859 l 479 859 q 433 846 446 859 q 414 805 423 837 l 333 506 l 504 506 q 577 547 549 506 q 608 588 605 588 l 626 588 q 633 582 633 588 q 620 534 633 576 q 603 482 604 485 q 580 385 596 450 q 559 373 576 373 q 536 382 536 373 q 538 401 536 389 q 541 420 541 414 q 501 452 541 452 l 317 452 l 245 189 q 235 122 235 151 q 274 62 235 77 q 353 54 297 54 q 579 77 528 54 q 635 121 610 90 q 677 178 656 149 q 691 187 684 187 q 708 181 696 187 q 720 170 720 174 q 655 23 720 169 q 643 0 646 3 q 618 -7 636 -7 q 406 -3 547 -7 q 194 0 264 0 q 97 -4 161 0 q 0 -8 33 -8 q -9 0 -9 -8 m 359 1112 q 378 1157 359 1138 q 424 1176 397 1176 q 469 1157 450 1176 q 488 1112 488 1138 q 469 1066 488 1085 q 424 1047 450 1047 q 378 1066 397 1047 q 359 1112 359 1085 m 644 1112 q 663 1157 644 1138 q 709 1176 682 1176 q 754 1157 735 1176 q 773 1112 773 1138 q 754 1066 773 1085 q 709 1047 735 1047 q 663 1066 682 1047 q 644 1112 644 1085 z "},"":{"ha":1004,"x_min":134,"x_max":983,"o":"m 134 742 q 134 745 134 742 q 165 847 145 779 q 187 950 171 884 q 212 964 192 964 q 220 964 215 964 q 228 963 225 963 q 237 944 235 963 q 300 911 239 911 l 838 911 q 905 937 895 911 q 935 964 916 964 q 961 954 961 964 q 949 918 961 954 q 930 848 939 885 q 919 779 924 813 q 883 732 908 732 q 857 741 857 732 q 862 775 857 752 q 867 809 867 798 q 801 859 867 859 l 692 859 q 648 848 659 859 q 629 805 637 838 l 532 428 q 823 562 726 562 q 945 504 902 562 q 983 370 983 452 q 854 15 983 182 q 542 -197 724 -153 q 476 -208 497 -208 q 465 -195 465 -208 q 477 -175 465 -180 q 508 -164 488 -172 q 597 -123 564 -144 q 791 71 715 -50 q 873 332 873 199 q 756 480 873 480 q 517 372 673 480 l 456 132 q 449 90 449 105 q 481 42 449 53 q 545 37 498 37 q 554 29 554 37 q 534 -8 554 -8 q 482 -5 528 -8 q 374 0 418 0 q 262 -5 329 0 q 208 -8 214 -8 q 199 3 199 -8 q 211 33 199 24 q 222 37 216 37 q 304 49 282 37 q 345 119 331 65 l 522 805 q 526 837 526 823 q 490 859 526 859 l 296 859 q 205 802 231 859 q 178 736 192 769 q 160 732 172 732 q 134 742 134 732 z "},"":{"ha":659,"x_min":-2,"x_max":763,"o":"m -2 0 q 3 25 -2 7 q 39 38 7 35 q 92 56 75 41 q 124 119 113 74 l 294 779 q 300 821 300 806 q 265 869 300 859 q 198 874 249 874 q 189 882 189 874 q 210 919 189 919 q 322 915 247 919 q 435 911 397 911 q 587 914 486 911 q 739 918 688 918 q 763 903 763 918 q 748 825 763 901 q 731 742 733 749 q 713 731 728 731 q 697 734 699 731 q 695 752 695 736 q 653 841 695 817 q 554 859 623 859 l 471 859 q 426 847 438 859 q 408 805 416 838 l 235 132 q 229 90 229 108 q 264 41 229 52 q 331 37 280 37 q 340 29 340 37 q 320 -8 340 -8 q 270 -5 315 -8 q 165 0 208 0 q 58 -4 113 0 q 7 -8 4 -8 q -2 0 -2 -8 m 439 993 q 442 1004 439 999 l 567 1255 q 614 1286 582 1286 q 650 1276 633 1286 q 669 1245 669 1263 q 661 1222 669 1233 l 462 983 q 452 979 458 979 q 439 993 439 979 z "},"":{"ha":926,"x_min":106,"x_max":998,"o":"m 106 446 q 260 783 106 643 q 656 929 420 929 q 992 795 868 929 q 998 783 998 789 q 984 717 998 778 q 969 652 971 656 q 946 639 964 639 q 920 649 920 639 q 922 669 920 656 q 924 690 924 683 q 867 804 924 751 q 667 876 792 876 q 391 765 514 876 q 240 506 275 659 l 592 506 q 665 547 637 506 q 696 588 693 588 l 714 588 q 722 582 722 588 q 721 578 722 581 q 691 482 711 547 q 668 385 684 450 q 647 373 665 373 q 625 382 625 373 q 627 401 625 389 q 629 420 629 414 q 589 452 629 452 l 231 452 q 228 393 228 428 q 325 136 228 236 q 579 35 422 35 q 724 87 653 35 q 833 213 770 120 q 846 221 839 221 q 865 213 852 221 q 878 198 878 204 q 856 132 878 193 q 830 60 836 73 q 806 33 822 42 q 553 -18 706 -18 q 229 115 355 -18 q 106 446 106 247 z "},"":{"ha":609,"x_min":41,"x_max":629,"o":"m 41 54 q 60 124 41 60 q 83 194 79 187 q 106 205 90 205 q 134 197 134 205 q 126 164 134 190 q 117 122 117 138 q 248 35 117 35 q 382 75 328 35 q 445 195 445 119 q 392 326 445 256 q 293 431 366 361 q 189 564 220 502 q 160 668 160 621 q 236 856 160 782 q 426 929 311 929 q 541 907 477 929 q 629 850 629 876 q 617 786 629 844 q 602 723 604 728 q 579 712 596 712 q 551 723 551 712 q 552 743 551 730 q 554 764 554 757 q 520 845 554 814 q 437 876 487 876 q 321 828 366 876 q 275 709 275 780 q 349 549 275 633 q 486 406 418 477 q 560 245 560 320 q 559 214 560 231 q 464 41 555 107 q 270 -18 381 -18 q 54 36 134 -18 q 41 54 41 44 z "},"":{"ha":439,"x_min":-1,"x_max":538,"o":"m -1 0 l -1 3 q 9 33 -1 26 q 41 38 16 38 q 126 119 105 38 l 296 779 q 302 823 302 806 q 269 869 302 859 q 206 874 254 874 q 197 882 197 874 q 218 919 197 919 q 267 916 222 919 q 371 911 330 911 q 477 915 422 911 q 529 919 532 919 q 538 911 538 919 q 532 886 538 905 q 495 873 528 876 q 438 855 456 871 q 406 791 418 838 l 237 132 q 231 90 231 108 q 266 41 231 52 q 333 37 282 37 q 342 29 342 37 q 322 -8 342 -8 q 272 -5 317 -8 q 168 0 209 0 q 60 -5 125 0 q 9 -8 14 -8 q -1 0 -1 -8 z "},"":{"ha":439,"x_min":-1,"x_max":617,"o":"m -1 0 l -1 3 q 9 33 -1 26 q 41 38 16 38 q 126 119 105 38 l 296 779 q 302 823 302 806 q 269 869 302 859 q 206 874 254 874 q 197 882 197 874 q 218 919 197 919 q 267 916 222 919 q 371 911 330 911 q 477 915 422 911 q 529 919 532 919 q 538 911 538 919 q 532 886 538 905 q 495 873 528 876 q 438 855 456 871 q 406 791 418 838 l 237 132 q 231 90 231 108 q 266 41 231 52 q 333 37 282 37 q 342 29 342 37 q 322 -8 342 -8 q 272 -5 317 -8 q 168 0 209 0 q 60 -5 125 0 q 9 -8 14 -8 q -1 0 -1 -8 m 217 1112 q 236 1157 217 1138 q 281 1176 255 1176 q 327 1157 308 1176 q 346 1112 346 1138 q 327 1066 346 1085 q 281 1047 308 1047 q 236 1066 255 1047 q 217 1112 217 1085 m 488 1112 q 507 1157 488 1138 q 553 1176 526 1176 q 598 1157 579 1176 q 617 1112 617 1138 q 598 1066 617 1085 q 553 1047 579 1047 q 507 1066 526 1047 q 488 1112 488 1085 z "},"":{"ha":414,"x_min":-134,"x_max":520,"o":"m -134 -218 q -86 -172 -134 -172 q -41 -199 -64 -172 q 3 -227 -18 -227 q 35 -208 22 -227 q 89 -39 54 -182 l 285 779 q 290 820 290 802 q 254 869 290 859 q 187 874 238 874 q 178 882 178 874 q 197 919 178 919 q 248 916 203 919 q 352 911 309 911 q 459 916 395 911 q 511 919 505 919 q 520 911 520 919 q 515 886 520 903 q 479 873 511 876 q 426 855 442 870 q 395 791 406 838 l 210 21 q 127 -181 180 -101 q -46 -291 55 -291 q -107 -273 -82 -291 q -134 -218 -134 -253 z "},"":{"ha":1217,"x_min":-56,"x_max":1198,"o":"m -56 0 q -45 33 -56 23 q -14 37 -41 37 q 96 119 35 37 l 682 922 q 708 931 688 931 q 722 888 722 931 q 721 813 722 863 q 720 737 720 762 q 720 614 720 696 q 722 492 722 530 q 867 528 784 528 q 1089 466 995 528 q 1198 273 1198 395 q 1061 63 1198 146 q 806 -8 942 -8 q 760 -5 795 -8 q 663 0 712 0 q 564 -5 615 0 q 517 -8 528 -8 q 507 3 507 -8 q 518 33 507 20 q 570 41 545 37 q 614 127 613 53 l 620 757 l 186 144 q 159 79 159 105 q 234 37 159 37 q 243 28 243 37 q 220 -8 243 -8 q 178 -5 214 -8 q 88 0 126 0 q -3 -5 52 0 q -47 -8 -41 -8 q -56 0 -56 -8 m 720 220 q 722 124 720 153 q 737 66 724 83 q 793 45 753 45 q 986 106 905 45 q 1074 283 1074 174 q 1013 427 1074 374 q 862 477 955 477 q 722 438 793 477 q 721 329 722 408 q 720 220 720 260 z "},"":{"ha":1289,"x_min":-7,"x_max":1291,"o":"m -7 3 q 5 33 -7 24 q 31 37 9 37 q 121 119 99 37 l 302 779 q 309 822 309 804 q 273 869 309 859 q 208 874 258 874 q 199 882 199 874 q 220 919 199 919 q 270 916 226 919 q 374 911 332 911 q 481 916 416 911 q 534 919 528 919 q 542 911 542 919 q 536 886 542 904 q 501 871 532 876 q 450 855 465 866 q 413 791 425 837 l 335 506 l 787 506 l 865 791 q 869 823 869 809 q 767 874 869 874 q 758 882 758 874 q 779 919 758 919 q 829 916 785 919 q 933 911 891 911 q 1040 916 975 911 q 1093 919 1086 919 q 1101 911 1101 919 q 1095 886 1101 907 q 1059 873 1091 876 q 1005 855 1022 870 q 972 791 984 837 l 897 519 q 1152 471 1046 519 q 1291 281 1291 408 l 1291 274 q 1151 63 1291 147 q 895 -9 1031 -9 q 808 -4 866 -9 q 722 0 751 0 q 614 -4 669 0 q 563 -8 560 -8 q 554 0 554 -8 q 587 38 554 35 q 648 56 634 43 q 680 119 667 73 l 772 452 l 320 452 l 229 119 q 224 88 224 102 q 326 37 224 37 q 335 31 335 37 q 315 -8 335 -8 q 265 -5 310 -8 q 161 0 203 0 q 54 -5 118 0 q 2 -8 7 -8 q -7 3 -7 -8 m 785 89 q 819 49 785 58 q 878 45 833 45 q 1075 106 992 45 q 1166 283 1166 173 q 1105 421 1166 372 q 958 467 1048 467 q 884 465 947 467 l 795 148 q 785 89 785 109 z "},"":{"ha":1001,"x_min":137,"x_max":967,"o":"m 137 742 q 138 745 137 742 q 168 847 148 779 q 190 950 174 884 q 215 964 195 964 q 223 964 218 964 q 231 963 229 963 q 240 944 239 963 q 302 911 242 911 l 842 911 q 908 937 899 911 q 937 964 918 964 q 964 954 964 964 q 953 918 964 951 q 933 848 942 885 q 911 745 927 813 q 886 732 907 732 q 860 741 860 732 q 865 775 860 752 q 870 809 870 798 q 804 859 870 859 l 695 859 q 650 847 662 859 q 632 805 640 838 l 502 299 q 648 507 570 420 q 854 632 761 632 q 967 478 967 632 q 926 273 967 380 q 821 90 886 170 q 666 -20 733 -20 q 600 33 600 -20 q 652 92 600 92 q 692 76 677 92 q 715 60 708 60 q 765 104 737 60 q 832 267 804 166 q 861 441 861 368 q 805 549 861 549 q 593 366 715 549 q 452 96 499 225 q 452 92 452 94 q 484 42 452 53 q 548 37 498 37 q 557 29 557 37 q 537 -8 557 -8 q 485 -5 531 -8 q 376 0 420 0 q 265 -5 332 0 q 212 -8 217 -8 q 202 3 202 -8 q 214 33 202 24 q 225 37 219 37 q 307 49 286 37 q 348 119 334 65 l 525 805 q 530 837 530 823 q 492 859 530 859 l 300 859 q 208 802 235 859 q 182 736 195 769 q 163 732 176 732 q 137 742 137 732 z "},"":{"ha":902,"x_min":-6,"x_max":998,"o":"m -6 3 q 5 33 -6 24 q 33 37 9 37 q 125 119 104 37 l 294 779 q 301 821 301 806 q 266 869 301 859 q 199 874 250 874 q 189 882 189 874 q 210 919 189 919 q 259 916 216 919 q 363 911 320 911 q 471 915 417 911 q 523 919 524 919 q 532 911 532 919 q 526 886 532 904 q 492 873 523 876 q 438 855 455 870 q 405 791 416 836 l 326 484 q 547 570 470 515 q 684 718 618 621 q 753 819 743 806 q 844 898 795 872 q 913 919 883 919 q 973 893 948 919 q 998 831 998 867 q 973 777 998 798 q 913 757 947 757 q 859 788 873 757 q 838 820 846 820 q 768 755 811 820 q 618 568 678 621 q 402 467 534 496 q 528 418 484 456 q 604 312 562 390 q 663 192 633 252 q 751 62 713 93 q 873 37 784 37 q 888 29 888 37 q 869 -9 888 -9 q 805 -4 867 -9 q 689 0 752 0 q 618 -9 669 0 q 539 203 561 153 q 424 387 479 344 q 311 425 391 412 l 232 119 q 228 90 228 104 q 313 37 228 37 q 321 29 321 37 q 300 -8 321 -8 q 254 -5 295 -8 q 154 0 195 0 q 52 -5 113 0 q 3 -8 9 -8 q -6 3 -6 -8 m 602 993 q 605 1004 602 999 l 730 1255 q 777 1286 745 1286 q 812 1276 796 1286 q 832 1245 832 1263 q 823 1222 832 1233 l 625 983 q 615 979 621 979 q 602 993 602 979 z "},"":{"ha":1054,"x_min":-1,"x_max":1153,"o":"m -1 0 l -1 3 q 8 32 1 26 q 41 38 16 38 q 126 119 105 38 l 296 779 q 302 823 302 806 q 269 869 302 859 q 206 874 254 874 q 197 882 197 874 q 218 919 197 919 q 267 916 222 919 q 371 911 330 911 q 477 915 422 911 q 529 919 532 919 q 538 911 538 919 q 532 886 538 905 q 495 873 528 876 q 438 855 456 871 q 406 791 418 838 l 254 200 l 916 798 q 918 823 918 809 q 884 869 918 859 q 821 874 869 874 q 812 882 812 874 q 833 919 812 919 q 882 916 838 919 q 986 911 945 911 q 1093 915 1038 911 q 1144 919 1147 919 q 1153 911 1153 919 q 1147 886 1153 905 q 1110 873 1143 876 q 1053 855 1071 871 q 1021 791 1033 838 l 852 132 q 846 90 846 108 q 881 41 846 52 q 948 37 897 37 q 957 29 957 37 q 937 -8 957 -8 q 887 -5 932 -8 q 783 0 824 0 q 675 -5 741 0 q 624 -8 629 -8 q 614 0 614 -8 l 614 3 q 623 32 616 26 q 656 38 631 38 q 741 119 720 38 l 895 719 l 234 120 q 231 90 231 104 q 266 41 231 52 q 333 37 282 37 q 342 29 342 37 q 322 -8 342 -8 q 272 -5 317 -8 q 168 0 209 0 q 60 -5 126 0 q 9 -8 14 -8 q -1 0 -1 -8 m 548 1245 q 568 1276 548 1263 q 604 1286 584 1286 q 650 1255 635 1286 l 775 1004 q 778 993 778 999 q 765 979 778 979 q 755 983 759 979 l 557 1222 q 548 1245 548 1233 z "},"":{"ha":951,"x_min":113,"x_max":1128,"o":"m 113 102 q 135 159 113 134 q 189 183 156 183 q 254 143 241 183 q 264 70 259 106 q 308 30 271 30 q 459 147 376 30 l 321 774 q 275 844 313 814 q 197 874 238 874 q 175 883 175 874 q 196 919 175 919 q 246 916 201 919 q 355 911 309 911 q 465 916 399 911 q 519 919 513 919 q 528 911 528 919 q 517 877 528 888 q 467 871 492 874 q 425 831 425 865 q 430 791 425 816 l 545 267 l 902 767 q 932 835 932 809 q 863 874 932 874 q 854 884 854 874 q 878 919 854 919 q 937 915 897 919 q 996 911 977 911 q 1059 915 1017 911 q 1122 919 1101 919 q 1128 911 1128 919 q 1122 886 1128 903 q 1103 874 1118 874 q 993 791 1053 874 l 591 237 q 453 64 495 104 q 258 -23 361 -23 q 161 13 206 -23 q 113 102 113 51 m 507 1160 q 594 1255 507 1255 q 673 1180 645 1255 q 749 1105 701 1105 q 969 1206 854 1105 l 981 1206 l 997 1191 q 701 1037 879 1037 q 576 1063 629 1037 q 507 1160 507 1096 z "},"":{"ha":1024,"x_min":-10,"x_max":1139,"o":"m -10 -1 q -4 25 -10 5 q 31 38 -1 35 q 86 56 69 41 q 119 119 106 73 l 300 779 q 307 821 307 804 q 276 868 307 858 q 214 873 260 873 q 197 880 197 873 q 217 919 197 919 q 267 916 222 919 q 372 911 330 911 q 478 916 413 911 q 530 919 525 919 q 539 907 539 919 q 528 877 539 886 q 519 874 524 874 q 411 791 434 874 l 226 119 q 222 92 222 104 q 241 52 222 65 l 677 52 q 718 119 705 69 l 903 791 q 907 819 907 806 q 805 874 907 874 q 797 880 797 874 q 817 919 797 919 q 867 916 822 919 q 971 911 930 911 q 1078 916 1013 911 q 1130 919 1125 919 q 1139 907 1139 919 q 1127 877 1139 885 q 1101 874 1123 874 q 1010 791 1034 874 l 829 132 q 822 89 822 104 q 858 41 822 52 q 924 37 873 37 q 932 29 932 37 q 911 -8 932 -8 q 862 -5 907 -8 q 694 0 800 0 q 585 -9 618 0 q 506 -75 526 -24 q 484 -136 494 -106 q 434 -170 466 -170 q 395 -126 395 -170 q 397 -100 395 -117 q 399 -73 399 -82 q 249 0 399 0 l 157 0 q 51 -5 117 0 q -1 -8 4 -8 q -10 -1 -10 -8 z "},"":{"ha":926,"x_min":-56,"x_max":827,"o":"m -56 0 q -45 33 -56 24 q -13 37 -41 37 q 96 119 35 37 l 682 922 q 708 931 688 931 q 723 889 723 931 l 723 127 q 744 60 723 82 q 796 39 760 43 q 827 28 827 35 q 806 -8 827 -8 q 761 -5 802 -8 q 663 0 703 0 q 566 -5 626 0 q 518 -8 523 -8 q 509 3 509 -8 q 519 33 509 23 q 574 41 546 37 q 616 127 616 54 l 616 356 l 341 356 l 186 144 q 159 79 159 108 q 234 37 159 37 q 243 28 243 37 q 220 -8 243 -8 q 178 -5 216 -8 q 88 0 125 0 q -3 -5 52 0 q -46 -8 -42 -8 q -56 0 -56 -8 m 380 410 l 616 410 l 616 732 l 380 410 z "},"":{"ha":707,"x_min":-3,"x_max":763,"o":"m -3 0 q 22 37 -3 33 q 75 45 75 45 q 124 119 109 61 l 294 779 q 300 821 300 803 q 264 869 300 859 q 197 874 248 874 q 189 882 189 874 q 209 919 189 919 q 321 915 246 919 q 435 911 397 911 q 587 914 486 911 q 739 918 688 918 q 763 903 763 918 q 747 823 763 901 q 730 742 732 745 q 713 731 726 731 q 697 734 699 731 q 695 752 695 737 q 653 841 695 817 q 554 859 623 859 l 471 859 q 427 848 438 859 q 408 805 416 838 l 334 519 q 587 471 482 519 q 728 281 726 408 l 728 273 q 593 63 730 146 q 338 -9 475 -9 q 252 -4 310 -9 q 165 0 195 0 q 58 -4 111 0 q 7 -8 5 -8 q -3 0 -3 -8 m 229 89 q 263 49 229 58 q 322 45 277 45 q 515 106 435 45 q 604 283 604 173 q 543 421 604 372 q 395 467 486 467 q 321 465 385 467 l 239 148 q 229 89 229 108 z "},"":{"ha":756,"x_min":15,"x_max":766,"o":"m 15 3 q 26 33 15 21 q 69 41 47 37 q 125 119 108 54 l 296 786 q 302 823 302 810 q 271 863 302 856 q 214 866 261 866 q 207 872 207 866 q 218 905 207 892 q 333 924 227 915 q 462 930 421 930 q 663 888 581 930 q 766 726 766 833 q 682 569 766 633 q 510 498 613 517 q 656 420 600 473 q 723 273 723 358 q 587 63 723 146 q 334 -9 469 -9 q 240 -4 302 -9 q 146 0 177 0 q 85 -4 125 0 q 24 -8 45 -8 q 15 3 15 -8 m 230 111 q 318 45 230 45 q 511 106 431 45 q 599 283 599 173 q 538 421 599 372 q 391 467 481 467 q 317 465 380 467 l 235 148 q 230 111 230 127 m 330 519 l 361 519 q 550 568 475 519 q 638 732 638 625 q 473 877 638 877 q 429 868 441 877 q 410 826 418 859 l 330 519 z "},"":{"ha":659,"x_min":-2,"x_max":763,"o":"m -2 0 q 3 25 -2 7 q 39 38 7 35 q 92 56 75 41 q 124 119 113 74 l 294 779 q 300 821 300 806 q 265 869 300 859 q 198 874 249 874 q 189 882 189 874 q 210 919 189 919 q 322 915 247 919 q 435 911 397 911 q 587 914 486 911 q 739 918 688 918 q 763 903 763 918 q 748 825 763 901 q 731 742 733 749 q 713 731 728 731 q 697 734 699 731 q 695 752 695 736 q 653 841 695 817 q 554 859 623 859 l 471 859 q 426 847 438 859 q 408 805 416 838 l 235 132 q 229 90 229 108 q 264 41 229 52 q 331 37 280 37 q 340 29 340 37 q 320 -8 340 -8 q 270 -5 315 -8 q 165 0 208 0 q 58 -4 113 0 q 7 -8 4 -8 q -2 0 -2 -8 z "},"":{"ha":819,"x_min":-94,"x_max":782,"o":"m -94 -149 l -68 29 q 6 56 -18 36 q 59 119 21 68 l 645 922 q 671 931 652 931 q 690 889 690 931 l 690 48 q 782 12 782 39 l 782 -155 q 770 -164 782 -164 q 747 -152 753 -164 q 728 -87 741 -139 q 702 -27 718 -45 q 552 0 677 0 l 133 0 q 54 -4 71 0 q -21 -90 16 -13 q -77 -163 -56 -163 q -94 -149 -96 -163 m 111 76 q 161 50 111 50 l 448 50 q 583 53 523 50 l 583 741 l 203 220 q 149 149 176 184 q 111 76 111 95 z "},"":{"ha":780,"x_min":-9,"x_max":792,"o":"m -9 0 q 16 36 -9 32 q 68 45 42 41 q 117 111 102 58 l 300 779 q 307 822 307 804 q 271 869 307 859 q 205 874 256 874 q 197 882 197 874 q 218 919 197 919 q 331 915 256 919 q 444 911 406 911 q 606 914 498 911 q 769 918 715 918 q 792 904 792 918 q 758 742 792 894 q 739 731 755 731 l 730 731 q 722 747 723 731 q 702 829 721 805 q 621 859 679 859 l 479 859 q 433 846 446 859 q 414 805 423 837 l 333 506 l 504 506 q 577 547 549 506 q 608 588 605 588 l 626 588 q 633 582 633 588 q 620 534 633 576 q 603 482 604 485 q 580 385 596 450 q 559 373 576 373 q 536 382 536 373 q 538 401 536 389 q 541 420 541 414 q 501 452 541 452 l 317 452 l 245 189 q 235 122 235 151 q 274 62 235 77 q 353 54 297 54 q 579 77 528 54 q 635 121 610 90 q 677 178 656 149 q 691 187 684 187 q 708 181 696 187 q 720 170 720 174 q 655 23 720 169 q 643 0 646 3 q 618 -7 636 -7 q 406 -3 547 -7 q 194 0 264 0 q 97 -4 161 0 q 0 -8 33 -8 q -9 0 -9 -8 z "},"":{"ha":1411,"x_min":-77,"x_max":1507,"o":"m -77 3 q -45 37 -77 37 q 85 62 39 37 q 239 192 138 92 q 361 313 300 252 q 492 418 437 386 q 646 467 542 447 q 526 532 561 490 q 462 684 490 574 q 418 812 433 794 q 382 829 404 829 q 349 793 370 829 q 293 757 328 757 q 243 776 264 757 q 222 823 222 795 q 256 892 222 864 q 330 919 288 919 q 403 897 367 919 q 455 842 439 876 q 506 678 459 833 q 584 535 538 570 q 727 484 629 500 l 803 779 q 810 821 810 806 q 774 869 810 859 q 707 874 758 874 q 698 882 698 874 q 718 919 698 919 q 768 916 725 919 q 872 911 828 911 q 979 915 926 911 q 1031 919 1033 919 q 1041 911 1041 919 q 1035 886 1041 903 q 1000 873 1031 876 q 947 855 964 870 q 913 791 925 837 l 835 484 q 1055 570 979 515 q 1193 718 1127 621 q 1262 819 1252 806 q 1352 898 1304 872 q 1421 919 1392 919 q 1482 893 1457 919 q 1507 831 1507 867 q 1481 777 1507 798 q 1421 757 1456 757 q 1368 788 1381 757 q 1347 820 1354 820 q 1276 755 1320 820 q 1126 568 1187 621 q 911 467 1042 496 q 1037 418 992 456 q 1112 312 1069 390 q 1172 192 1142 252 q 1260 62 1221 93 q 1385 37 1293 37 q 1397 29 1397 37 q 1377 -9 1397 -9 q 1314 -4 1375 -9 q 1198 0 1261 0 q 1126 -9 1178 0 q 1048 203 1069 153 q 932 387 988 345 q 819 425 900 412 l 741 119 q 736 90 736 104 q 822 37 736 37 q 829 29 829 37 q 809 -8 829 -8 q 762 -5 804 -8 q 663 0 705 0 q 561 -5 621 0 q 512 -8 518 -8 q 503 3 503 -8 q 513 33 503 24 q 541 37 517 37 q 633 119 612 37 l 712 425 q 579 387 624 412 q 371 205 500 343 q 182 -9 333 165 q 115 0 135 0 q -3 -4 52 0 q -69 -9 -68 -9 q -77 3 -77 -9 z "},"":{"ha":829,"x_min":116,"x_max":840,"o":"m 116 127 q 129 195 116 134 q 144 259 142 256 q 165 272 152 272 q 193 262 193 272 q 191 241 193 255 q 189 221 189 228 q 266 89 189 147 q 414 35 337 35 q 600 101 528 35 q 672 280 672 168 q 618 415 672 366 q 479 465 565 465 l 332 465 q 323 472 323 465 q 329 501 323 485 q 347 522 336 522 q 390 522 361 522 q 433 521 419 521 q 623 567 549 521 q 711 732 711 623 q 547 877 711 877 q 407 829 472 877 q 321 739 365 798 q 280 691 285 691 q 261 700 274 691 q 249 715 249 709 q 270 782 249 720 q 296 852 291 844 q 321 879 304 869 q 425 916 357 901 q 535 930 487 930 q 735 888 653 930 q 840 726 840 833 q 755 569 840 633 q 583 498 686 517 q 730 419 673 473 q 796 271 796 357 q 675 55 796 137 q 427 -18 567 -18 q 260 18 345 -18 q 121 115 174 56 q 116 127 116 121 z "},"":{"ha":1054,"x_min":-1,"x_max":1153,"o":"m -1 0 l -1 3 q 8 32 1 26 q 41 38 16 38 q 126 119 105 38 l 296 779 q 302 823 302 806 q 269 869 302 859 q 206 874 254 874 q 197 882 197 874 q 218 919 197 919 q 267 916 222 919 q 371 911 330 911 q 477 915 422 911 q 529 919 532 919 q 538 911 538 919 q 532 886 538 905 q 495 873 528 876 q 438 855 456 871 q 406 791 418 838 l 254 200 l 916 798 q 918 823 918 809 q 884 869 918 859 q 821 874 869 874 q 812 882 812 874 q 833 919 812 919 q 882 916 838 919 q 986 911 945 911 q 1093 915 1038 911 q 1144 919 1147 919 q 1153 911 1153 919 q 1147 886 1153 905 q 1110 873 1143 876 q 1053 855 1071 871 q 1021 791 1033 838 l 852 132 q 846 90 846 108 q 881 41 846 52 q 948 37 897 37 q 957 29 957 37 q 937 -8 957 -8 q 887 -5 932 -8 q 783 0 824 0 q 675 -5 741 0 q 624 -8 629 -8 q 614 0 614 -8 l 614 3 q 623 32 616 26 q 656 38 631 38 q 741 119 720 38 l 895 719 l 234 120 q 231 90 231 104 q 266 41 231 52 q 333 37 282 37 q 342 29 342 37 q 322 -8 342 -8 q 272 -5 317 -8 q 168 0 209 0 q 60 -5 126 0 q 9 -8 14 -8 q -1 0 -1 -8 z "},"":{"ha":1054,"x_min":-1,"x_max":1153,"o":"m -1 0 l -1 3 q 8 32 1 26 q 41 38 16 38 q 126 119 105 38 l 296 779 q 302 823 302 806 q 269 869 302 859 q 206 874 254 874 q 197 882 197 874 q 218 919 197 919 q 267 916 222 919 q 371 911 330 911 q 477 915 422 911 q 529 919 532 919 q 538 911 538 919 q 532 886 538 905 q 495 873 528 876 q 438 855 456 871 q 406 791 418 838 l 254 200 l 916 798 q 918 823 918 809 q 884 869 918 859 q 821 874 869 874 q 812 882 812 874 q 833 919 812 919 q 882 916 838 919 q 986 911 945 911 q 1093 915 1038 911 q 1144 919 1147 919 q 1153 911 1153 919 q 1147 886 1153 905 q 1110 873 1143 876 q 1053 855 1071 871 q 1021 791 1033 838 l 852 132 q 846 90 846 108 q 881 41 846 52 q 948 37 897 37 q 957 29 957 37 q 937 -8 957 -8 q 887 -5 932 -8 q 783 0 824 0 q 675 -5 741 0 q 624 -8 629 -8 q 614 0 614 -8 l 614 3 q 623 32 616 26 q 656 38 631 38 q 741 119 720 38 l 895 719 l 234 120 q 231 90 231 104 q 266 41 231 52 q 333 37 282 37 q 342 29 342 37 q 322 -8 342 -8 q 272 -5 317 -8 q 168 0 209 0 q 60 -5 126 0 q 9 -8 14 -8 q -1 0 -1 -8 m 507 1160 q 594 1255 507 1255 q 673 1180 645 1255 q 749 1105 701 1105 q 969 1206 854 1105 l 981 1206 l 997 1191 q 701 1037 879 1037 q 576 1063 629 1037 q 507 1160 507 1096 z "},"":{"ha":902,"x_min":-6,"x_max":998,"o":"m -6 3 q 5 33 -6 24 q 33 37 9 37 q 125 119 104 37 l 294 779 q 301 821 301 806 q 266 869 301 859 q 199 874 250 874 q 189 882 189 874 q 210 919 189 919 q 259 916 216 919 q 363 911 320 911 q 471 915 417 911 q 523 919 524 919 q 532 911 532 919 q 526 886 532 904 q 492 873 523 876 q 438 855 455 870 q 405 791 416 836 l 326 484 q 547 570 470 515 q 684 718 618 621 q 753 819 743 806 q 844 898 795 872 q 913 919 883 919 q 973 893 948 919 q 998 831 998 867 q 973 777 998 798 q 913 757 947 757 q 859 788 873 757 q 838 820 846 820 q 768 755 811 820 q 618 568 678 621 q 402 467 534 496 q 528 418 484 456 q 604 312 562 390 q 663 192 633 252 q 751 62 713 93 q 873 37 784 37 q 888 29 888 37 q 869 -9 888 -9 q 805 -4 867 -9 q 689 0 752 0 q 618 -9 669 0 q 539 203 561 153 q 424 387 479 344 q 311 425 391 412 l 232 119 q 228 90 228 104 q 313 37 228 37 q 321 29 321 37 q 300 -8 321 -8 q 254 -5 295 -8 q 154 0 195 0 q 52 -5 113 0 q 3 -8 9 -8 q -6 3 -6 -8 z "},"":{"ha":926,"x_min":-56,"x_max":827,"o":"m -56 0 q -45 33 -56 24 q -13 37 -41 37 q 96 119 35 37 l 682 922 q 708 931 688 931 q 723 889 723 931 l 723 127 q 744 60 723 82 q 796 39 760 43 q 827 28 827 35 q 806 -8 827 -8 q 761 -5 802 -8 q 663 0 703 0 q 566 -5 626 0 q 518 -8 523 -8 q 509 3 509 -8 q 519 33 509 23 q 574 41 546 37 q 616 127 616 54 l 616 732 l 186 144 q 159 79 159 108 q 234 37 159 37 q 243 28 243 37 q 220 -8 243 -8 q 178 -5 216 -8 q 88 0 125 0 q -3 -5 52 0 q -46 -8 -42 -8 q -56 0 -56 -8 z "},"":{"ha":1024,"x_min":-39,"x_max":1108,"o":"m -39 0 q -28 33 -39 24 q 21 43 -4 38 q 86 119 62 56 l 342 811 q 225 873 320 873 q 218 879 218 873 q 235 911 218 911 l 417 919 q 437 874 434 920 l 483 199 l 892 872 q 937 919 920 919 q 962 916 940 919 q 1016 911 994 911 q 1059 915 1030 911 q 1102 919 1088 919 q 1108 911 1108 919 q 1107 907 1108 911 q 1097 878 1103 882 q 1065 873 1091 873 q 985 791 1002 873 l 855 132 q 851 97 851 111 q 886 43 851 55 q 956 37 903 37 q 966 29 966 37 q 945 -8 966 -8 q 899 -5 941 -8 q 799 0 839 0 q 697 -5 760 0 q 647 -8 652 -8 q 637 0 636 -8 l 638 3 q 651 34 644 29 q 683 37 656 37 q 750 119 734 37 l 872 739 l 440 42 q 420 33 435 33 q 404 45 404 33 l 357 708 l 141 119 q 133 82 133 97 q 231 37 133 37 q 241 29 241 37 q 220 -8 241 -8 q 181 -5 217 -8 q 97 0 131 0 q 12 -5 64 0 q -30 -8 -26 -8 q -39 0 -39 -8 z "},"":{"ha":1024,"x_min":-7,"x_max":1141,"o":"m -7 3 q 4 33 -7 25 q 30 37 9 37 q 121 119 98 37 l 302 779 q 309 822 309 804 q 273 869 309 859 q 208 874 258 874 q 199 882 199 874 q 220 919 199 919 q 269 916 224 919 q 374 911 332 911 q 481 916 415 911 q 533 919 528 919 q 542 911 542 919 q 536 886 542 904 q 502 871 532 876 q 450 855 465 867 q 413 791 425 837 l 334 506 l 827 506 l 905 791 q 909 819 909 806 q 807 874 909 874 q 798 882 798 874 q 820 919 798 919 q 869 916 824 919 q 974 911 931 911 q 1081 916 1015 911 q 1133 919 1128 919 q 1141 911 1141 919 q 1135 886 1141 905 q 1100 873 1132 876 q 1045 855 1062 870 q 1013 791 1025 838 l 831 132 q 824 90 824 104 q 856 43 824 53 q 918 37 871 37 q 935 31 935 37 q 915 -8 935 -8 q 865 -5 909 -8 q 760 0 802 0 q 653 -5 718 0 q 602 -8 606 -8 q 592 3 592 -8 q 604 33 592 24 q 613 37 608 37 q 684 55 660 37 q 720 119 707 74 l 812 452 l 319 452 l 228 119 q 224 92 224 104 q 326 37 224 37 q 335 31 335 37 q 315 -8 335 -8 q 265 -5 310 -8 q 160 0 202 0 q 54 -5 119 0 q 2 -8 7 -8 q -7 3 -7 -8 z "},"":{"ha":1048,"x_min":98,"x_max":1044,"o":"m 98 428 q 249 774 98 625 q 622 929 406 929 q 930 799 811 929 q 1044 482 1044 673 q 893 137 1044 286 q 520 -18 736 -18 q 213 111 331 -18 q 98 428 98 237 m 222 390 q 295 146 222 245 q 517 35 377 35 q 806 187 684 35 q 920 520 920 330 q 847 765 920 666 q 625 876 766 876 q 336 724 458 876 q 222 390 222 581 z "},"":{"ha":997,"x_min":-7,"x_max":1114,"o":"m -7 3 q 4 33 -7 25 q 30 37 9 37 q 121 119 98 37 l 302 779 q 309 822 309 804 q 273 869 309 859 q 208 874 258 874 q 199 882 199 874 q 220 919 199 919 q 269 916 224 919 q 367 911 332 911 l 954 911 q 1054 916 988 911 q 1106 919 1101 919 q 1114 911 1114 919 q 1108 886 1114 905 q 1073 873 1105 876 q 1018 855 1035 870 q 985 791 998 838 l 804 132 q 797 90 797 104 q 829 43 797 53 q 890 37 844 37 q 907 31 907 37 q 888 -8 907 -8 q 838 -5 882 -8 q 733 0 774 0 q 626 -5 691 0 q 574 -8 579 -8 q 565 3 565 -8 q 577 33 565 24 q 586 37 581 37 q 656 55 633 37 q 693 119 680 74 l 878 791 q 882 819 882 806 q 863 859 882 846 l 454 859 q 413 791 427 841 l 228 119 q 224 92 224 104 q 326 37 224 37 q 335 31 335 37 q 315 -8 335 -8 q 265 -5 310 -8 q 160 0 202 0 q 54 -5 119 0 q 2 -8 7 -8 q -7 3 -7 -8 z "},"":{"ha":731,"x_min":-5,"x_max":785,"o":"m -5 3 q 5 33 -5 24 q 36 38 12 38 q 121 119 100 38 l 288 770 q 295 812 295 797 q 260 861 295 850 q 193 865 243 865 q 183 874 183 865 q 195 907 183 895 q 320 922 202 916 q 462 926 411 926 q 677 864 584 926 q 785 677 785 793 q 696 478 785 567 q 496 390 607 390 q 429 401 469 390 q 378 434 378 415 q 393 465 378 465 q 398 464 395 465 q 475 446 445 446 q 611 525 559 446 q 656 682 656 593 q 604 818 656 762 q 471 873 552 873 q 408 819 422 873 l 228 119 q 224 93 224 106 q 328 37 224 37 q 337 29 337 37 q 317 -8 337 -8 q 267 -5 311 -8 q 162 0 206 0 q 56 -5 119 0 q 4 -8 10 -8 q -5 3 -5 -8 z "},"":{"ha":926,"x_min":106,"x_max":998,"o":"m 106 446 q 260 783 106 643 q 656 929 420 929 q 992 795 868 929 q 998 783 998 789 q 984 718 998 778 q 969 652 971 657 q 946 639 964 639 q 920 649 920 639 q 922 669 920 656 q 924 690 924 683 q 867 804 924 751 q 667 876 792 876 q 352 725 482 876 q 228 393 228 581 q 325 136 228 236 q 579 35 422 35 q 724 87 653 35 q 833 213 771 121 q 846 221 839 221 q 865 213 852 221 q 878 198 878 204 q 856 132 878 193 q 830 60 835 71 q 806 33 821 41 q 553 -18 709 -18 q 229 115 355 -18 q 106 446 106 247 z "},"":{"ha":804,"x_min":137,"x_max":964,"o":"m 137 742 q 151 791 137 748 q 168 847 167 844 q 190 950 174 882 q 215 964 194 964 q 223 964 218 964 q 231 963 229 963 q 240 944 239 963 q 305 911 241 911 l 842 911 q 909 937 899 911 q 938 964 919 964 q 964 954 964 964 q 953 918 964 954 q 933 848 941 882 q 922 779 928 813 q 886 732 912 732 q 860 741 860 732 q 865 773 860 752 q 870 805 870 794 q 804 859 870 859 l 675 859 q 629 847 642 859 q 612 805 620 838 l 439 132 q 432 90 432 105 q 465 42 432 53 q 528 37 481 37 q 536 29 536 37 q 517 -8 536 -8 q 465 -5 512 -8 q 356 0 399 0 q 245 -5 313 0 q 191 -8 196 -8 q 182 0 182 -8 q 200 35 182 29 q 241 38 205 37 q 328 119 307 39 l 505 805 q 509 834 509 823 q 475 859 509 859 l 300 859 q 210 804 235 859 q 182 736 195 770 q 163 732 177 732 q 137 742 137 732 z "},"":{"ha":951,"x_min":113,"x_max":1128,"o":"m 113 102 q 135 159 113 134 q 189 183 156 183 q 254 143 241 183 q 264 70 259 106 q 308 30 271 30 q 459 147 376 30 l 321 774 q 275 844 313 814 q 197 874 238 874 q 175 883 175 874 q 196 919 175 919 q 246 916 201 919 q 355 911 309 911 q 465 916 399 911 q 519 919 513 919 q 528 911 528 919 q 517 877 528 888 q 467 871 492 874 q 425 831 425 865 q 430 791 425 816 l 545 267 l 902 767 q 932 835 932 809 q 863 874 932 874 q 854 884 854 874 q 878 919 854 919 q 937 915 897 919 q 996 911 977 911 q 1059 915 1017 911 q 1122 919 1101 919 q 1128 911 1128 919 q 1122 886 1128 903 q 1103 874 1118 874 q 993 791 1053 874 l 591 237 q 453 64 495 104 q 258 -23 361 -23 q 161 13 206 -23 q 113 102 113 51 z "},"":{"ha":1109,"x_min":97,"x_max":1105,"o":"m 97 446 q 230 668 97 568 q 629 795 388 787 q 632 823 632 811 q 599 869 632 859 q 536 874 583 874 q 527 882 527 874 q 547 919 527 919 q 597 916 553 919 q 700 911 657 911 q 806 915 753 911 q 858 919 859 919 q 867 911 867 919 q 861 886 867 903 q 824 873 858 876 q 767 855 785 871 q 735 790 747 838 q 964 711 871 773 q 1099 516 1070 639 q 1105 464 1105 490 q 972 243 1105 344 q 562 116 808 119 q 559 90 559 102 q 595 41 559 52 q 662 37 611 37 q 671 29 671 37 q 651 -8 671 -8 q 602 -5 646 -8 q 496 0 541 0 q 390 -5 453 0 q 338 -8 345 -8 q 329 3 329 -8 q 340 33 329 24 q 370 38 346 38 q 456 123 436 38 q 103 394 157 165 q 97 446 97 420 m 229 416 q 302 252 229 317 q 470 176 366 193 l 615 739 q 482 713 545 734 q 307 604 378 679 q 229 416 229 519 m 576 171 q 720 197 652 175 q 895 307 825 232 q 974 494 974 391 q 897 663 974 597 q 722 737 829 723 l 576 171 z "},"":{"ha":926,"x_min":-10,"x_max":1011,"o":"m -10 0 q -5 25 -10 7 q 13 37 -1 37 q 140 119 62 37 l 462 459 l 327 774 q 279 848 304 827 q 197 873 249 873 q 172 883 172 873 q 192 919 172 919 q 239 915 188 919 q 342 911 291 911 q 448 916 383 911 q 498 919 494 919 q 508 911 508 919 q 496 877 508 888 q 454 873 493 874 q 410 843 410 872 q 420 808 410 831 l 536 537 l 753 767 q 791 834 791 807 q 700 874 791 874 q 688 885 688 874 q 711 919 688 919 q 757 916 715 919 q 854 911 814 911 q 954 916 892 911 q 1002 919 997 919 q 1011 911 1011 919 q 1005 886 1011 904 q 987 874 1001 874 q 843 791 920 873 l 557 489 l 716 116 q 817 37 750 37 q 827 37 821 37 q 836 37 833 37 q 854 28 854 37 q 834 -8 854 -8 q 785 -5 829 -8 q 682 0 722 0 q 576 -5 640 0 q 525 -8 530 -8 q 515 3 515 -8 q 526 33 515 24 q 577 39 551 37 q 618 77 618 45 q 607 119 618 92 l 482 411 l 230 144 q 191 77 191 103 q 283 37 191 37 q 295 26 295 37 q 273 -8 295 -8 q 229 -5 269 -8 q 137 0 174 0 q 44 -5 100 0 q -1 -8 4 -8 q -10 0 -10 -8 z "},"":{"ha":1024,"x_min":-10,"x_max":1139,"o":"m -10 -1 q -3 25 -10 3 q 32 38 0 35 q 86 56 69 41 q 119 119 107 74 l 300 779 q 307 821 307 804 q 276 868 307 858 q 214 873 260 873 q 197 880 197 873 q 217 919 197 919 q 267 916 222 919 q 372 911 330 911 q 479 916 414 911 q 530 919 526 919 q 540 907 540 919 q 528 877 540 886 q 519 874 524 874 q 411 791 434 874 l 227 119 q 223 93 223 107 q 248 52 223 52 l 669 52 q 719 119 701 52 l 904 791 q 908 819 908 806 q 806 874 908 874 q 797 880 797 874 q 817 919 797 919 q 867 916 821 919 q 971 911 930 911 q 1078 916 1013 911 q 1130 919 1125 919 q 1139 907 1139 919 q 1127 877 1139 886 q 1102 874 1124 874 q 1011 791 1034 874 l 829 132 q 825 101 825 115 q 876 52 825 52 q 930 50 918 52 q 964 16 964 43 q 964 12 964 14 l 918 -155 q 906 -164 915 -164 q 886 -151 890 -164 q 883 -77 884 -144 q 872 -24 882 -39 q 720 0 855 0 l 150 0 q 51 -5 117 0 q -1 -8 4 -8 q -10 -1 -10 -8 z "},"":{"ha":961,"x_min":183,"x_max":1060,"o":"m 183 882 q 204 919 183 919 q 253 916 208 919 q 365 911 317 911 q 481 916 415 911 q 531 919 529 919 q 541 911 541 919 q 534 886 541 905 q 502 873 531 875 q 446 860 464 870 q 399 791 412 842 q 369 679 384 735 q 352 562 352 610 q 586 376 352 376 q 726 422 669 376 l 818 779 q 825 823 825 806 q 791 869 825 859 q 728 874 777 874 q 720 882 720 874 q 741 919 720 919 q 789 916 745 919 q 893 911 851 911 q 1000 915 945 911 q 1051 919 1054 919 q 1060 911 1060 919 q 1054 886 1060 905 q 1017 873 1050 876 q 960 855 978 871 q 928 791 940 838 l 759 132 q 753 90 753 108 q 788 41 753 52 q 855 37 804 37 q 864 29 864 37 q 844 -8 864 -8 q 794 -5 839 -8 q 690 0 732 0 q 583 -5 647 0 q 531 -8 536 -8 q 522 3 522 -8 q 533 33 522 24 q 563 38 539 38 q 648 119 627 38 l 711 365 q 556 321 633 321 q 243 550 243 321 q 289 779 243 603 q 295 821 295 803 q 260 869 295 859 q 193 874 243 874 q 183 882 183 874 z "},"":{"ha":1543,"x_min":-7,"x_max":1661,"o":"m -7 -1 q -1 25 -7 5 q 34 38 2 35 q 89 56 72 41 q 121 119 109 73 l 303 779 q 310 821 310 804 q 279 868 310 858 q 217 873 263 873 q 199 880 199 873 q 220 919 199 919 q 269 916 224 919 q 374 911 332 911 q 481 916 416 911 q 532 919 528 919 q 543 911 543 919 q 530 877 543 886 q 522 874 527 874 q 414 791 437 874 l 229 119 q 224 92 224 104 q 243 52 224 65 l 640 52 q 680 119 667 69 l 865 791 q 869 819 869 806 q 767 874 869 874 q 758 880 758 874 q 779 919 758 919 q 828 916 783 919 q 933 911 891 911 q 1040 916 975 911 q 1092 919 1087 919 q 1101 911 1102 919 l 1101 907 q 1093 880 1100 886 q 1063 874 1086 874 q 972 791 996 874 l 787 119 q 783 92 783 104 q 802 52 783 65 l 1199 52 q 1240 119 1226 69 l 1425 791 q 1429 819 1429 806 q 1326 874 1429 874 q 1318 880 1318 874 q 1338 919 1318 919 q 1388 916 1342 919 q 1493 911 1451 911 q 1600 916 1535 911 q 1651 919 1647 919 q 1661 911 1662 919 l 1661 907 q 1653 880 1659 886 q 1623 874 1646 874 q 1532 791 1555 874 l 1351 132 q 1343 89 1343 104 q 1379 41 1343 52 q 1445 37 1395 37 q 1454 29 1454 37 q 1433 -8 1454 -8 q 1383 -5 1428 -8 q 1286 0 1321 0 l 153 0 q 54 -5 119 0 q 1 -8 7 -8 q -7 -1 -7 -8 z "},"":{"ha":1543,"x_min":-10,"x_max":1658,"o":"m -10 -1 q -4 25 -10 5 q 31 38 -1 35 q 86 56 69 41 q 119 119 106 73 l 300 779 q 307 821 307 804 q 276 868 307 858 q 214 873 260 873 q 197 880 197 873 q 217 919 197 919 q 267 916 221 919 q 372 911 330 911 q 479 916 414 911 q 530 919 526 919 q 540 911 540 919 q 528 877 540 886 q 519 874 524 874 q 411 791 434 874 l 226 119 q 222 92 222 104 q 241 52 222 66 l 637 52 q 678 119 665 70 l 863 791 q 867 819 867 806 q 764 874 867 874 q 756 880 756 874 q 776 919 756 919 q 826 916 781 919 q 930 911 889 911 q 1038 916 972 911 q 1089 919 1084 919 q 1099 911 1099 919 l 1099 907 q 1090 880 1097 886 q 1061 874 1084 874 q 970 791 993 874 l 785 119 q 781 92 781 104 q 800 52 781 66 l 1196 52 q 1238 119 1224 70 l 1422 791 q 1426 819 1426 806 q 1324 874 1426 874 q 1316 880 1316 874 q 1335 919 1316 919 q 1385 916 1340 919 q 1490 911 1449 911 q 1597 916 1532 911 q 1649 919 1644 919 q 1658 911 1659 919 l 1658 907 q 1650 880 1657 886 q 1620 874 1643 874 q 1529 791 1552 874 l 1348 132 q 1343 101 1343 115 q 1394 52 1343 52 q 1449 50 1436 52 q 1483 16 1483 43 q 1482 12 1483 14 l 1436 -155 q 1425 -164 1434 -164 q 1405 -151 1409 -164 q 1402 -76 1403 -144 q 1391 -24 1401 -39 q 1239 0 1374 0 l 151 0 q 51 -5 117 0 q -1 -8 4 -8 q -10 -1 -10 -8 z "},"":{"ha":945,"x_min":137,"x_max":947,"o":"m 137 742 q 138 745 137 742 q 168 847 148 779 q 190 950 174 884 q 215 964 195 964 q 223 964 218 964 q 231 963 229 963 q 240 944 239 963 q 302 911 242 911 l 596 911 q 697 916 633 911 q 749 919 743 919 q 758 911 758 919 q 724 873 758 877 q 662 855 676 867 q 629 791 641 837 l 554 519 q 808 471 703 519 q 947 281 947 408 l 947 274 q 808 63 947 147 q 551 -9 688 -9 q 465 -4 523 -9 q 378 0 408 0 q 271 -4 326 0 q 220 -8 217 -8 q 210 0 210 -8 q 243 38 210 35 q 305 56 291 43 q 337 119 324 73 l 522 791 q 530 831 530 821 q 485 859 530 859 l 300 859 q 208 802 235 859 q 182 736 195 769 q 163 732 176 732 q 137 742 137 732 m 441 89 q 475 49 441 58 q 535 45 490 45 q 732 106 649 45 q 823 283 823 173 q 762 421 823 372 q 614 467 705 467 q 541 465 604 467 l 452 148 q 441 89 441 109 z "},"":{"ha":1117,"x_min":-1,"x_max":1216,"o":"m -1 0 q 33 38 -1 35 q 94 56 80 43 q 126 119 113 73 l 311 791 q 315 823 315 806 q 212 874 315 874 q 204 882 204 874 q 225 919 204 919 q 275 916 231 919 q 379 911 336 911 q 486 916 422 911 q 538 919 532 919 q 547 911 547 919 q 541 886 547 904 q 505 873 537 876 q 451 855 469 870 q 418 791 430 837 l 343 519 q 597 471 492 519 q 736 281 736 408 l 736 274 q 597 63 736 147 q 340 -9 477 -9 q 254 -4 312 -9 q 168 0 197 0 q 60 -4 114 0 q 9 -8 7 -8 q -1 0 -1 -8 m 231 89 q 264 49 231 58 q 324 45 279 45 q 521 106 438 45 q 612 283 612 173 q 551 421 612 372 q 404 467 494 467 q 330 465 393 467 l 241 148 q 231 89 231 109 m 677 0 l 677 3 q 687 33 677 26 q 719 38 694 38 q 804 119 783 38 l 974 779 q 981 823 981 806 q 947 869 981 859 q 884 874 932 874 q 876 882 876 874 q 897 919 876 919 q 945 916 901 919 q 1049 911 1008 911 q 1156 915 1101 911 q 1207 919 1211 919 q 1216 911 1216 919 q 1210 886 1216 905 q 1173 873 1206 876 q 1116 855 1134 871 q 1084 791 1096 838 l 915 132 q 909 90 909 108 q 944 41 909 52 q 1011 37 960 37 q 1020 29 1020 37 q 1000 -8 1020 -8 q 950 -5 996 -8 q 846 0 887 0 q 739 -5 804 0 q 687 -8 692 -8 q 677 0 677 -8 z "},"":{"ha":734,"x_min":-1,"x_max":736,"o":"m -1 0 q 33 38 -1 35 q 94 56 80 43 q 126 119 113 73 l 311 791 q 315 823 315 806 q 212 874 315 874 q 204 882 204 874 q 225 919 204 919 q 275 916 231 919 q 379 911 336 911 q 486 916 422 911 q 538 919 532 919 q 547 911 547 919 q 541 886 547 904 q 505 873 537 876 q 451 855 469 870 q 418 791 430 837 l 343 519 q 597 471 492 519 q 736 281 736 408 l 736 274 q 597 63 736 147 q 340 -9 477 -9 q 254 -4 312 -9 q 168 0 197 0 q 60 -4 114 0 q 9 -8 7 -8 q -1 0 -1 -8 m 231 89 q 264 49 231 58 q 324 45 279 45 q 521 106 438 45 q 612 283 612 173 q 551 421 612 372 q 404 467 494 467 q 330 465 393 467 l 241 148 q 231 89 231 109 z "},"":{"ha":1011,"x_min":116,"x_max":1008,"o":"m 116 127 q 129 194 116 133 q 144 259 142 254 q 168 272 150 272 q 193 262 193 272 q 191 241 193 255 q 189 221 189 228 q 246 106 189 160 q 447 35 321 35 q 739 163 612 35 q 882 452 861 284 l 519 452 q 446 411 474 452 q 415 370 418 370 l 397 370 q 390 377 390 370 q 391 380 390 378 q 420 476 401 412 q 444 574 428 509 q 465 585 447 585 q 487 576 487 585 q 485 557 487 570 q 483 538 483 545 q 522 506 483 506 l 886 506 l 886 517 q 789 775 887 674 q 534 876 691 876 q 389 823 461 876 q 280 698 343 789 q 267 690 275 690 q 249 698 261 690 q 236 713 236 707 q 258 779 236 718 q 283 850 278 838 q 308 877 291 868 q 561 929 408 929 q 884 795 758 929 q 1008 465 1008 664 q 853 127 1008 268 q 458 -18 693 -18 q 119 117 239 -18 q 116 127 116 121 z "},"":{"ha":1381,"x_min":-7,"x_max":1376,"o":"m -7 3 q 4 33 -7 23 q 30 37 8 37 q 121 119 98 37 l 302 779 q 309 822 309 804 q 273 869 309 859 q 208 874 258 874 q 199 882 199 874 q 220 919 199 919 q 269 916 226 919 q 374 911 330 911 q 481 916 418 911 q 533 919 526 919 q 542 911 542 919 q 536 886 542 905 q 501 871 532 876 q 450 855 464 866 q 413 791 426 837 l 334 506 l 572 506 q 723 800 598 677 q 1022 929 854 929 q 1290 788 1192 929 q 1376 486 1376 665 q 1245 140 1376 290 q 920 -18 1108 -18 q 652 122 751 -18 q 566 422 566 245 q 567 452 566 437 l 319 452 l 228 119 q 224 88 224 104 q 326 37 224 37 q 335 31 335 37 q 315 -8 335 -8 q 265 -5 309 -8 q 160 0 204 0 q 54 -5 117 0 q 2 -8 9 -8 q -7 3 -7 -8 m 690 380 q 739 156 690 251 q 917 35 800 35 q 1153 186 1051 35 q 1252 530 1252 333 q 1204 755 1252 660 q 1025 876 1143 876 q 789 724 891 876 q 690 380 690 578 z "},"":{"ha":913,"x_min":-78,"x_max":1013,"o":"m -78 2 q -65 33 -78 25 q -5 45 -39 39 q 39 62 22 53 q 130 136 81 84 l 340 361 q 472 465 404 429 q 476 468 475 466 q 356 520 405 479 q 300 634 300 567 q 327 730 300 683 q 502 882 382 827 q 732 930 610 930 q 881 924 782 930 q 1012 907 1004 917 q 1013 902 1013 906 q 993 865 1013 870 q 946 865 994 865 q 878 839 901 865 q 848 770 861 819 l 694 161 q 682 94 682 115 q 704 46 682 58 q 758 37 719 37 q 775 27 775 37 q 754 -8 775 -8 q 704 -5 749 -8 q 597 0 641 0 q 488 -4 543 0 q 435 -8 433 -8 q 427 3 427 -8 q 447 37 427 37 q 564 87 536 37 q 576 119 572 102 l 659 446 q 550 432 585 446 q 460 361 512 416 l 168 47 q 72 -8 116 -8 q 39 -6 61 -8 q 7 -4 18 -4 q -31 -6 -6 -4 q -69 -8 -56 -8 q -78 2 -78 -8 m 414 618 q 672 500 414 500 l 759 840 q 761 853 761 848 q 731 877 761 877 q 566 835 644 877 q 445 717 486 791 q 414 618 414 661 z "},"":{"ha":572,"x_min":0,"x_max":547,"o":"m 0 71 q 141 371 0 224 q 420 518 282 518 q 450 516 436 518 q 464 552 457 534 q 490 575 475 575 q 540 556 540 575 q 538 549 540 553 q 456 328 497 438 q 398 114 398 168 q 412 92 398 92 q 478 146 435 92 q 525 201 521 201 q 538 191 530 201 q 547 176 547 180 q 542 165 547 172 q 459 65 506 112 q 355 1 395 1 q 306 64 306 1 q 336 207 306 115 q 64 0 188 0 q 18 21 36 0 q 0 71 0 42 m 85 133 q 127 89 85 89 q 293 228 180 89 q 404 420 404 365 q 360 447 404 447 q 182 337 278 447 q 85 133 85 227 z "},"":{"ha":572,"x_min":48,"x_max":632,"o":"m 48 210 q 168 593 48 397 q 478 813 302 813 q 515 811 490 813 q 553 809 541 809 q 593 827 579 809 q 616 845 607 845 q 632 831 632 845 q 632 829 632 829 q 485 711 596 711 q 455 712 475 711 q 426 713 436 713 q 377 707 399 713 q 182 507 278 683 q 350 570 257 570 q 486 508 435 570 q 534 363 534 450 q 446 110 534 220 q 244 0 359 0 q 101 62 156 0 q 48 210 48 121 m 146 182 q 168 96 146 133 q 239 51 193 51 q 373 160 310 51 q 437 392 437 269 q 415 477 437 442 q 342 519 389 519 q 210 412 273 519 q 146 182 146 303 z "},"":{"ha":553,"x_min":29,"x_max":512,"o":"m 29 184 q 117 442 29 324 q 349 570 213 570 q 454 547 409 570 q 512 463 512 518 q 467 362 512 410 q 372 299 428 321 q 479 186 479 268 q 391 51 479 108 q 230 0 313 0 q 29 184 29 0 m 127 189 q 155 102 127 136 q 236 66 184 66 q 331 96 294 66 q 371 184 371 127 q 338 248 371 223 q 267 269 308 269 q 240 267 258 269 q 213 264 222 264 q 176 294 176 264 q 214 323 176 323 q 246 322 224 323 q 279 321 268 321 q 364 369 323 321 q 403 460 403 414 q 323 520 403 520 q 168 358 241 520 q 127 189 127 270 z "},"":{"ha":384,"x_min":6,"x_max":394,"o":"m 6 115 q 83 235 6 171 q 226 338 154 286 q 302 437 302 396 q 232 493 302 493 q 165 467 201 493 q 111 431 121 435 q 86 455 86 446 q 89 465 86 460 q 260 570 153 570 q 347 549 309 570 q 394 479 394 524 q 319 340 394 411 q 180 232 314 336 q 104 136 104 174 q 192 73 104 73 q 276 112 229 73 q 320 151 323 151 q 336 140 325 151 q 347 125 347 130 q 342 115 347 121 q 144 0 256 0 q 50 30 89 0 q 6 115 6 62 z "},"":{"ha":572,"x_min":48,"x_max":546,"o":"m 48 216 q 129 453 48 347 q 343 568 216 568 q 450 538 404 568 q 334 823 419 703 q 232 928 304 864 q 228 936 228 932 q 250 954 228 943 q 279 963 271 963 q 338 918 294 963 q 393 859 372 884 q 546 416 546 662 q 416 77 546 199 q 243 0 334 0 q 100 64 154 0 q 48 216 48 125 m 148 192 q 172 98 148 138 q 250 51 199 51 q 378 154 317 51 q 439 377 439 258 q 416 471 439 432 q 337 519 388 519 q 209 414 270 519 q 148 192 148 310 z "},"":{"ha":460,"x_min":29,"x_max":471,"o":"m 29 176 q 125 451 29 332 q 349 570 221 570 q 433 544 399 570 q 471 467 471 515 q 347 312 471 364 q 134 264 273 281 q 128 192 128 227 q 245 72 128 72 q 328 112 283 72 q 369 152 372 152 q 385 141 374 152 q 395 126 395 131 q 391 116 395 121 q 192 0 305 0 q 73 52 118 0 q 29 176 29 102 m 146 313 q 385 459 385 341 q 335 519 385 519 q 215 445 273 519 q 146 313 170 387 z "},"":{"ha":1080,"x_min":38,"x_max":1101,"o":"m 38 82 q 53 119 38 104 q 90 134 68 134 q 138 81 138 134 q 138 74 138 79 q 138 66 138 69 q 172 50 138 50 q 315 143 251 50 q 379 351 379 235 q 351 442 379 407 q 266 481 321 481 q 199 459 231 481 q 156 431 163 433 q 131 454 131 442 q 134 464 131 459 q 301 570 197 570 q 434 508 384 570 q 481 366 481 450 q 479 326 481 344 l 536 326 l 601 547 q 649 570 608 570 q 688 549 688 570 q 684 533 688 545 l 624 326 l 679 326 q 755 454 703 393 q 972 570 854 570 q 1056 553 1021 570 q 1101 488 1101 530 q 1085 451 1101 466 q 1048 436 1070 436 q 1000 488 1000 436 q 1001 496 1000 491 q 1001 503 1001 500 q 966 519 1001 519 q 824 427 888 519 q 760 219 760 334 q 787 127 760 163 q 873 88 818 88 q 939 111 908 88 q 983 138 975 136 q 1008 115 1008 127 q 1005 106 1008 111 q 838 0 942 0 q 705 62 755 0 q 658 204 658 119 q 663 268 658 238 l 607 268 l 534 19 q 515 3 530 3 q 452 30 452 3 q 457 54 452 38 l 519 268 l 467 268 q 383 115 444 186 q 166 0 284 0 q 83 17 118 0 q 38 82 38 39 z "},"":{"ha":543,"x_min":24,"x_max":540,"o":"m 24 91 q 40 127 24 113 q 77 142 55 142 q 125 90 125 142 q 124 84 125 88 q 123 79 123 81 q 205 50 123 50 q 287 81 254 50 q 319 162 319 113 q 301 219 319 193 q 251 248 281 248 q 217 241 239 248 q 184 235 195 235 q 161 273 161 235 q 196 306 161 306 q 229 303 207 306 q 262 301 252 301 q 378 333 330 301 q 433 435 433 370 q 343 503 433 503 q 239 476 287 503 q 175 425 210 459 q 138 397 147 397 q 121 405 131 397 q 112 420 112 413 q 161 490 112 443 q 380 570 247 570 q 490 534 444 570 q 540 433 540 495 q 353 269 540 312 q 425 157 425 234 q 348 36 425 80 q 200 0 283 0 q 73 25 117 0 q 24 91 24 53 z "},"":{"ha":640,"x_min":43,"x_max":602,"o":"m 43 56 q 65 137 43 84 l 186 433 q 195 461 195 452 q 180 474 195 474 q 127 429 168 474 q 81 383 86 383 q 68 393 76 383 q 61 408 61 402 q 66 418 61 412 q 260 564 184 564 q 300 526 300 564 q 267 410 300 490 l 172 182 q 161 134 161 157 q 169 119 161 119 q 351 286 211 119 q 507 503 484 444 q 521 543 514 524 q 548 570 532 570 q 580 563 562 570 q 602 543 602 555 q 599 526 602 534 l 473 169 q 461 104 461 136 q 469 90 461 90 q 532 145 486 90 q 581 199 577 199 q 592 190 585 199 q 600 176 600 181 q 597 164 600 170 q 505 63 571 119 q 389 0 431 0 q 353 34 353 0 q 375 127 353 63 l 444 324 q 273 136 363 226 q 81 0 135 0 q 43 56 43 0 z "},"":{"ha":640,"x_min":43,"x_max":704,"o":"m 43 56 q 65 137 43 84 l 186 433 q 195 461 195 452 q 180 474 195 474 q 127 429 168 474 q 81 383 86 383 q 68 393 76 383 q 61 408 61 402 q 66 418 61 412 q 260 564 184 564 q 300 526 300 564 q 267 410 300 490 l 172 182 q 161 134 161 157 q 169 119 161 119 q 351 286 211 119 q 507 503 484 444 q 521 543 514 524 q 548 570 532 570 q 580 563 562 570 q 602 543 602 555 q 599 526 602 534 l 473 169 q 461 104 461 136 q 469 90 461 90 q 532 145 486 90 q 581 199 577 199 q 592 190 585 199 q 600 176 600 181 q 597 164 600 170 q 505 63 571 119 q 389 0 431 0 q 353 34 353 0 q 375 127 353 63 l 444 324 q 273 136 363 226 q 81 0 135 0 q 43 56 43 0 m 283 858 q 359 940 283 940 q 427 876 404 940 q 491 812 451 812 q 677 899 581 812 l 689 899 l 704 884 q 450 752 603 752 q 342 774 388 752 q 283 858 283 802 z "},"":{"ha":618,"x_min":18,"x_max":604,"o":"m 18 30 q 169 554 18 34 q 215 570 174 570 q 254 549 254 570 q 193 338 254 545 q 213 333 205 335 q 547 570 456 570 q 588 550 572 570 q 604 506 604 531 q 586 458 604 479 q 543 437 568 437 q 502 459 518 437 q 480 482 486 482 q 441 465 472 482 q 259 316 351 414 q 304 290 288 303 q 359 206 338 260 q 386 137 372 172 q 435 90 409 90 q 507 130 468 90 q 549 170 547 170 q 567 159 555 170 q 578 142 578 149 q 573 130 578 138 q 396 0 477 0 q 319 60 353 0 q 266 180 309 78 q 208 276 235 255 q 180 290 201 281 l 100 19 q 81 3 96 3 q 18 30 18 3 z "},"":{"ha":634,"x_min":-12,"x_max":598,"o":"m -12 42 q 30 95 -12 71 q 87 130 50 106 q 249 332 177 195 q 357 497 310 450 q 535 570 430 570 q 587 528 587 570 q 566 435 587 505 l 478 135 q 474 107 474 121 q 488 92 474 92 q 538 120 506 92 q 574 148 570 148 q 589 139 580 148 q 598 123 598 130 q 593 111 598 118 q 516 41 569 77 q 422 0 457 0 q 370 42 370 0 q 391 134 370 62 l 478 435 q 485 473 485 458 q 464 503 485 503 q 277 277 402 503 q 84 21 170 83 q 33 0 55 0 q 2 13 16 0 q -12 42 -12 25 z "},"":{"ha":827,"x_min":-5,"x_max":791,"o":"m -5 40 q 27 94 -5 63 q 77 138 52 115 q 231 485 185 255 l 232 488 q 199 513 232 499 q 167 539 167 526 q 201 568 167 568 q 234 566 212 568 q 266 564 255 564 q 288 565 273 564 q 310 566 302 566 q 338 541 333 566 l 416 189 q 425 172 420 172 q 440 186 430 172 q 505 278 462 216 q 625 443 534 319 q 707 557 652 486 q 748 570 719 570 q 790 549 790 570 q 789 542 790 544 l 672 137 q 667 109 667 118 q 680 94 667 94 q 731 121 699 94 q 767 149 764 149 q 782 140 773 149 q 791 125 791 131 q 786 113 791 120 q 709 42 760 77 q 615 2 651 2 q 564 43 564 2 q 584 136 564 66 l 673 444 q 500 192 616 360 q 420 65 450 117 q 380 25 397 25 q 363 44 370 25 q 339 154 359 59 q 272 448 319 252 q 247 339 262 392 q 168 143 219 245 q 40 0 96 0 q 9 12 22 0 q -5 40 -5 23 z "},"":{"ha":675,"x_min":74,"x_max":640,"o":"m 74 446 q 79 459 74 452 q 157 530 109 496 q 251 570 214 570 q 302 528 302 570 q 248 321 302 506 l 486 321 l 553 551 q 600 567 558 567 q 638 547 638 567 q 637 539 638 541 l 519 135 q 515 107 515 119 q 528 92 515 92 q 579 120 547 92 q 615 148 612 148 q 630 139 621 148 q 640 123 640 130 q 634 111 640 117 q 556 40 606 75 q 463 0 499 0 q 412 42 412 0 q 469 263 412 63 l 231 263 l 159 16 q 139 0 154 0 q 76 26 76 0 q 77 33 76 31 l 194 435 q 199 463 199 453 q 185 478 199 478 q 134 450 167 478 q 98 422 101 422 q 83 431 92 422 q 74 446 74 440 z "},"":{"ha":572,"x_min":48,"x_max":534,"o":"m 48 210 q 130 452 48 345 q 350 570 219 570 q 486 508 435 570 q 534 363 534 450 q 447 111 534 219 q 244 0 359 0 q 101 62 156 0 q 48 210 48 121 m 146 182 q 168 96 146 132 q 239 51 193 51 q 373 160 310 51 q 437 392 437 269 q 415 477 437 442 q 342 519 389 519 q 210 412 273 519 q 146 182 146 303 z "},"":{"ha":686,"x_min":47,"x_max":648,"o":"m 47 401 q 50 408 47 404 q 117 506 73 456 q 209 568 172 568 q 267 489 267 568 q 250 382 267 450 q 530 570 399 570 q 618 488 618 570 q 604 428 618 464 l 494 151 q 482 103 482 121 q 491 90 482 90 q 566 144 514 90 q 624 199 617 199 q 639 189 629 199 q 648 174 648 180 q 643 163 648 170 q 541 63 597 109 q 420 0 465 0 q 374 41 374 0 q 397 127 374 70 l 507 408 q 517 454 517 433 q 488 490 517 490 q 306 359 410 490 q 181 154 222 253 q 128 17 165 107 q 102 -3 118 -3 q 70 6 87 -3 q 50 31 50 17 q 52 45 50 39 l 154 302 q 197 452 197 410 q 179 479 197 479 q 117 429 149 479 q 79 379 84 379 q 59 386 71 379 q 47 401 47 393 z "},"":{"ha":572,"x_min":-103,"x_max":555,"o":"m -103 -291 q -96 -267 -103 -281 q -73 -252 -91 -255 q -39 -240 -50 -249 q -5 -180 -18 -224 l 181 468 q 52 422 118 452 q 46 420 50 420 q 25 446 25 420 q 34 463 25 456 q 199 528 62 485 l 226 619 q 244 646 233 641 q 277 647 249 647 q 286 648 279 647 q 294 648 292 648 q 316 633 316 648 q 294 552 316 621 q 429 570 372 570 q 524 525 489 570 q 555 422 555 484 q 541 331 555 376 q 408 109 506 214 q 231 0 307 0 q 146 41 177 0 l 82 -182 q 77 -212 77 -201 q 119 -251 77 -245 q 161 -264 161 -256 q 136 -303 161 -303 q 101 -299 139 -303 q 26 -295 63 -295 q -52 -299 -12 -295 q -91 -303 -92 -303 q -103 -291 -103 -303 m 174 121 q 229 50 174 50 q 347 138 277 50 q 445 322 417 225 q 456 391 456 362 q 435 465 456 435 q 367 498 410 498 q 276 488 331 498 l 177 146 q 174 121 174 136 z "},"":{"ha":460,"x_min":38,"x_max":481,"o":"m 38 204 q 136 455 38 340 q 353 570 235 570 q 436 553 401 570 q 481 488 481 530 q 466 451 481 466 q 429 436 450 436 q 380 488 380 436 q 381 496 380 491 q 381 503 381 500 q 347 519 381 519 q 204 427 268 519 q 140 219 140 334 q 168 127 140 163 q 253 88 198 88 q 319 111 288 88 q 363 138 355 136 q 388 115 388 127 q 385 106 388 111 q 218 0 322 0 q 85 62 135 0 q 38 204 38 119 z "},"":{"ha":1002,"x_min":45,"x_max":964,"o":"m 45 28 q 47 38 45 33 l 174 345 q 204 449 204 416 q 180 479 204 479 q 126 430 159 479 q 87 380 94 380 q 73 387 83 380 q 62 397 62 394 q 125 496 62 424 q 216 568 189 568 q 277 496 277 568 q 254 387 277 454 q 513 570 399 570 q 581 484 581 570 q 570 399 581 458 q 839 570 725 570 q 926 477 926 570 q 904 384 926 436 l 796 124 q 791 103 791 113 q 799 90 791 90 q 877 144 819 90 q 943 199 935 199 q 948 197 945 198 q 964 176 964 182 q 864 75 964 150 q 732 0 763 0 q 684 40 684 0 q 709 127 684 68 l 814 382 q 835 458 835 432 q 789 493 835 493 q 629 391 718 493 q 519 223 556 308 q 441 18 496 154 q 421 2 433 2 q 415 3 418 2 q 380 9 397 6 q 357 29 357 16 q 359 38 357 35 l 456 288 q 496 441 496 393 q 460 493 496 493 q 315 387 399 493 q 214 223 248 303 q 151 71 201 193 q 107 -6 119 -6 q 58 11 90 -6 q 45 28 45 17 z "},"":{"ha":563,"x_min":-3,"x_max":566,"o":"m -3 -225 q 15 -181 -3 -200 q 58 -161 33 -161 q 95 -173 73 -161 q 128 -185 117 -185 q 156 -174 141 -185 q 218 -111 176 -158 q 264 -33 254 -70 q 271 56 271 -6 q 255 280 271 184 q 162 480 221 480 q 93 429 128 480 q 52 378 57 378 q 35 385 45 378 q 24 399 24 393 q 26 406 24 402 q 85 507 48 460 q 178 570 135 570 q 326 368 280 570 q 355 83 355 240 q 480 432 480 277 q 475 498 480 462 q 473 506 473 507 q 515 570 473 570 q 566 498 566 570 q 530 330 566 437 q 462 170 498 238 q 242 -160 362 -17 q 67 -296 128 -296 q 17 -276 37 -296 q -3 -225 -3 -256 z "},"":{"ha":864,"x_min":48,"x_max":825,"o":"m 48 210 q 130 452 48 345 q 350 570 219 570 q 444 544 402 570 q 501 736 468 654 q 616 872 556 872 q 650 859 635 872 q 665 828 665 846 q 637 778 665 805 q 592 736 614 757 q 526 542 557 696 q 641 570 581 570 q 777 508 726 570 q 825 363 825 450 q 737 110 825 220 q 535 0 650 0 q 427 32 474 0 q 351 -167 405 -67 q 208 -298 280 -298 q 153 -276 176 -298 q 130 -223 130 -254 q 144 -184 130 -201 q 182 -167 159 -167 q 212 -172 192 -167 q 241 -178 231 -178 q 342 22 296 -178 q 244 0 296 0 q 101 62 156 0 q 48 210 48 121 m 146 182 q 168 96 146 132 q 239 51 193 51 q 368 151 307 51 l 427 452 q 342 519 403 519 q 210 412 273 519 q 146 182 146 302 m 446 127 q 530 51 467 51 q 664 160 601 51 q 728 392 728 269 q 706 477 728 442 q 633 519 680 519 q 518 441 570 519 q 501 412 502 416 l 446 127 z "},"":{"ha":572,"x_min":-1,"x_max":566,"o":"m -1 52 q 10 91 -1 74 q 44 111 24 111 q 78 99 61 111 q 99 88 96 88 q 130 115 111 88 l 246 283 l 204 414 q 151 480 183 480 q 108 453 133 480 q 81 427 83 427 q 66 436 76 427 q 56 450 56 446 q 59 460 56 455 q 178 570 115 570 q 278 451 240 570 l 304 369 l 376 473 q 496 570 442 570 q 566 502 566 570 q 556 456 566 477 q 522 430 544 430 q 485 465 494 430 q 467 500 475 500 q 435 468 456 500 l 324 308 l 372 159 q 420 92 393 92 q 484 136 450 92 q 520 181 517 181 q 536 172 527 181 q 546 157 546 163 q 544 150 545 154 q 486 58 529 108 q 399 1 436 1 q 302 104 334 1 l 265 222 l 179 98 q 59 0 112 0 q -1 52 -1 0 z "},"":{"ha":640,"x_min":43,"x_max":602,"o":"m 43 56 q 65 137 43 84 l 186 433 q 195 461 195 452 q 180 474 195 474 q 127 429 168 474 q 81 383 86 383 q 68 393 76 383 q 61 408 61 402 q 66 418 61 412 q 260 564 184 564 q 300 526 300 564 q 267 410 300 490 l 172 182 q 161 134 161 157 q 169 119 161 119 q 351 286 211 119 q 507 503 483 444 q 521 543 514 524 q 548 570 532 570 q 580 563 562 570 q 602 543 602 555 q 599 526 602 534 l 473 169 q 461 104 461 136 q 469 90 461 90 q 532 145 486 90 q 581 199 577 199 q 592 190 585 199 q 600 176 600 181 q 597 164 600 170 q 547 104 587 146 q 431 9 500 53 q 405 -16 420 3 q 388 -96 399 -43 q 307 -188 375 -157 q 264 -201 277 -201 q 246 -181 246 -201 q 267 -164 246 -172 q 295 -151 291 -156 q 314 -93 302 -144 q 355 -19 326 -45 q 379 1 363 -12 q 353 34 353 5 q 375 127 353 63 l 444 324 q 273 136 363 226 q 81 0 135 0 q 43 56 43 0 z "},"":{"ha":640,"x_min":61,"x_max":604,"o":"m 61 403 q 66 413 61 407 q 260 557 190 557 q 300 520 300 557 q 271 418 300 481 q 242 327 242 355 q 280 296 242 296 q 393 337 331 296 q 478 424 455 378 q 507 498 490 449 q 521 541 514 519 q 549 570 532 570 q 581 563 563 570 q 604 543 604 555 q 601 527 604 536 l 475 169 q 463 110 463 136 q 471 90 463 90 q 533 145 488 90 q 582 199 578 199 q 594 190 586 199 q 602 176 602 181 q 598 164 602 170 q 507 63 574 121 q 391 0 432 0 q 354 34 354 0 q 376 127 354 63 l 445 321 q 326 238 403 279 q 191 192 241 192 q 130 257 130 192 q 162 368 130 295 q 195 455 195 441 q 180 468 195 468 q 127 423 168 468 q 81 378 86 378 q 68 387 75 378 q 61 403 61 397 z "},"":{"ha":941,"x_min":43,"x_max":903,"o":"m 43 56 q 65 137 43 84 l 186 433 q 195 461 195 452 q 180 474 195 474 q 127 429 168 474 q 81 383 86 383 q 68 393 76 383 q 61 408 61 402 q 66 418 61 412 q 260 564 184 564 q 300 526 300 564 q 267 410 300 490 l 172 182 q 161 134 161 157 q 169 119 161 119 q 351 287 211 119 q 507 503 484 445 q 521 543 514 523 q 547 570 532 570 q 580 563 561 570 q 602 543 602 555 q 600 527 602 534 l 473 182 q 461 134 461 151 q 469 119 461 119 q 652 287 511 119 q 808 503 785 445 q 821 543 814 523 q 848 570 831 570 q 880 563 861 570 q 903 543 903 555 q 900 527 903 534 l 774 170 q 762 106 762 138 q 770 92 762 92 q 833 146 787 92 q 882 201 878 201 q 893 192 886 201 q 901 178 901 182 q 898 165 901 172 q 806 64 872 121 q 690 2 732 2 q 654 35 654 2 q 676 129 654 65 l 745 324 q 573 136 664 226 q 381 0 435 0 q 344 56 344 0 q 366 137 344 85 l 441 321 q 271 135 361 222 q 81 0 135 0 q 43 56 43 0 z "},"":{"ha":941,"x_min":43,"x_max":903,"o":"m 43 56 q 65 137 43 84 l 186 433 q 195 461 195 452 q 180 474 195 474 q 127 429 168 474 q 81 383 86 383 q 68 393 76 383 q 61 408 61 402 q 66 418 61 412 q 260 564 184 564 q 300 526 300 564 q 267 410 300 490 l 172 182 q 161 134 161 157 q 169 119 161 119 q 351 286 211 119 q 507 503 484 444 q 521 543 514 523 q 547 570 532 570 q 580 563 562 570 q 602 543 602 555 q 600 527 602 534 l 473 182 q 461 134 461 151 q 469 119 461 119 q 652 286 511 119 q 808 503 784 444 q 821 543 814 523 q 848 570 831 570 q 880 563 862 570 q 903 543 903 555 q 900 527 903 534 l 774 170 q 762 106 762 138 q 770 92 762 92 q 833 146 787 92 q 882 201 878 201 q 893 192 886 201 q 901 178 901 182 q 898 165 901 172 q 848 105 888 147 q 732 11 802 56 q 706 -14 711 -2 q 689 -94 701 -41 q 608 -186 676 -155 q 566 -200 576 -200 q 547 -180 547 -200 q 568 -163 547 -170 q 596 -149 592 -154 q 615 -91 603 -142 q 656 -17 627 -43 q 680 3 665 -9 q 654 35 654 7 q 676 129 654 65 l 745 324 q 573 136 664 226 q 381 0 435 0 q 344 56 344 0 q 366 137 344 85 l 441 321 q 271 135 361 222 q 81 0 135 0 q 43 56 43 0 z "},"":{"ha":741,"x_min":44,"x_max":707,"o":"m 44 374 q 89 484 44 412 q 172 561 136 561 q 231 558 191 561 q 290 555 270 555 q 346 562 309 555 q 402 570 383 570 q 441 524 441 570 q 429 456 441 497 l 356 208 q 624 373 507 373 q 683 347 660 373 q 707 285 707 321 q 556 79 707 183 q 347 0 443 0 q 271 22 300 0 q 239 92 239 47 q 245 134 239 111 l 335 445 q 338 461 338 454 q 326 475 338 475 l 178 475 q 134 459 153 475 q 115 419 115 444 q 122 396 115 412 q 129 369 129 379 q 116 338 129 351 q 87 324 104 324 q 44 374 44 324 m 347 82 q 377 50 347 50 q 570 177 474 50 q 617 276 617 239 q 585 307 617 307 q 436 224 525 307 q 347 82 347 141 z "},"":{"ha":898,"x_min":45,"x_max":869,"o":"m 45 414 q 50 425 45 418 q 243 569 167 569 q 283 523 283 569 q 271 456 283 497 l 198 208 q 467 373 349 373 q 526 347 503 373 q 549 285 549 321 q 399 79 549 182 q 189 0 285 0 q 113 22 142 0 q 81 92 81 47 q 88 134 81 109 l 177 444 q 180 463 180 456 q 164 480 180 480 q 111 435 151 480 q 65 389 70 389 q 52 399 60 389 q 45 414 45 408 m 189 82 q 219 50 189 50 q 412 177 316 50 q 459 276 459 239 q 427 307 459 307 q 278 224 367 307 q 189 82 189 141 m 588 54 q 605 127 588 82 l 716 420 q 726 463 726 448 q 713 478 726 478 q 662 450 694 478 q 627 422 629 422 q 611 431 621 422 q 602 446 602 440 q 607 459 602 453 q 685 530 637 496 q 779 570 742 570 q 830 523 830 570 q 804 418 830 488 l 703 150 q 692 107 692 119 q 709 90 692 90 q 793 144 744 90 q 844 197 843 197 q 859 188 849 197 q 869 174 869 178 q 867 164 869 169 q 772 59 836 111 q 648 0 701 0 q 588 54 588 0 z "},"":{"ha":584,"x_min":45,"x_max":549,"o":"m 45 414 q 50 425 45 418 q 243 569 167 569 q 283 523 283 569 q 271 456 283 497 l 198 208 q 467 373 349 373 q 526 347 503 373 q 549 285 549 321 q 399 79 549 182 q 189 0 285 0 q 113 22 142 0 q 81 92 81 47 q 88 134 81 109 l 177 444 q 180 463 180 456 q 164 480 180 480 q 111 435 151 480 q 65 389 70 389 q 52 399 60 389 q 45 414 45 408 m 189 82 q 219 50 189 50 q 412 177 316 50 q 459 276 459 239 q 427 307 459 307 q 278 224 367 307 q 189 82 189 141 z "},"":{"ha":460,"x_min":38,"x_max":481,"o":"m 38 82 q 53 119 38 104 q 90 134 68 134 q 138 81 138 134 q 138 74 138 79 q 138 66 138 69 q 172 50 138 50 q 302 125 243 50 q 370 268 352 189 l 146 268 q 136 279 136 268 q 143 307 136 290 q 161 326 152 326 l 378 326 q 379 351 379 346 q 351 442 379 407 q 266 481 321 481 q 199 459 231 481 q 156 431 163 433 q 131 454 131 442 q 134 464 131 459 q 301 570 196 570 q 434 508 384 570 q 481 366 481 450 q 383 115 481 229 q 166 0 285 0 q 83 17 118 0 q 38 82 38 39 z "},"":{"ha":836,"x_min":73,"x_max":796,"o":"m 73 446 q 77 458 73 452 q 155 528 107 494 q 249 568 212 568 q 300 527 300 568 q 248 326 300 504 l 386 326 q 477 491 413 422 q 642 570 551 570 q 760 507 718 570 q 796 373 796 452 q 716 112 796 223 q 536 0 637 0 q 411 62 457 0 q 370 201 370 119 q 374 268 370 234 l 231 268 l 159 20 q 139 5 154 5 q 76 31 76 5 q 77 38 76 36 l 192 433 q 197 462 197 452 q 183 477 197 477 q 132 449 165 477 q 97 421 100 421 q 82 430 91 421 q 73 446 73 439 m 468 168 q 481 95 468 127 q 531 51 498 51 q 640 158 585 51 q 700 408 700 273 q 687 479 700 448 q 634 519 669 519 q 528 414 583 519 q 468 168 468 298 z "},"":{"ha":621,"x_min":-41,"x_max":585,"o":"m -41 14 q -28 39 -41 32 q -1 45 -26 41 q 92 98 46 52 l 224 227 q 298 289 248 250 q 227 319 256 294 q 194 385 194 346 q 239 486 194 437 q 334 547 281 530 q 543 570 402 570 q 584 549 584 570 q 583 543 584 545 l 465 135 q 460 107 460 116 q 473 92 460 92 q 525 120 492 92 q 560 148 557 148 q 575 139 566 148 q 585 123 585 130 q 579 111 585 118 q 502 40 554 76 q 408 0 444 0 q 357 42 357 0 q 416 265 357 63 q 313 214 365 264 l 128 32 q 62 -2 94 -2 q 42 -1 55 -2 q 22 0 28 0 q -2 -1 14 0 q -25 -2 -17 -2 q -41 14 -41 -2 m 291 374 q 430 317 291 317 q 484 503 484 502 q 471 518 484 518 q 351 480 405 518 q 291 374 291 438 z "},"":{"ha":460,"x_min":29,"x_max":500,"o":"m 29 176 q 125 451 29 332 q 349 570 221 570 q 433 544 399 570 q 471 467 471 515 q 347 312 471 364 q 134 264 273 281 q 128 192 128 227 q 245 72 128 72 q 328 112 283 72 q 369 152 372 152 q 385 141 374 152 q 395 126 395 131 q 391 116 395 121 q 192 0 305 0 q 73 52 118 0 q 29 176 29 102 m 146 313 q 385 459 385 341 q 335 519 385 519 q 215 445 273 519 q 146 313 170 387 m 270 974 q 290 1004 270 992 q 326 1015 306 1015 q 372 984 357 1015 l 497 733 q 500 722 500 728 q 487 707 500 707 q 477 711 481 707 l 279 951 q 270 974 270 962 z "},"":{"ha":460,"x_min":29,"x_max":573,"o":"m 29 176 q 125 451 29 332 q 349 570 221 570 q 433 544 399 570 q 471 467 471 515 q 347 312 471 364 q 134 264 273 281 q 128 192 128 227 q 245 72 128 72 q 328 112 283 72 q 369 152 372 152 q 385 141 374 152 q 395 126 395 131 q 391 116 395 121 q 192 0 305 0 q 73 52 118 0 q 29 176 29 102 m 146 313 q 385 459 385 341 q 335 519 385 519 q 215 445 273 519 q 146 313 170 387 m 214 840 q 233 886 214 867 q 278 905 252 905 q 323 886 304 905 q 342 840 342 867 q 323 795 342 814 q 278 776 304 776 q 233 795 252 776 q 214 840 214 814 m 444 840 q 463 886 444 867 q 509 905 482 905 q 554 886 535 905 q 573 840 573 867 q 554 795 573 814 q 509 776 535 776 q 463 795 482 776 q 444 840 444 814 z "},"":{"ha":595,"x_min":12,"x_max":577,"o":"m 12 36 q 16 51 12 39 l 200 688 l 104 688 q 93 699 93 688 q 100 726 93 711 q 119 745 108 745 l 217 745 q 241 843 241 829 q 206 882 241 872 q 170 899 170 892 q 191 934 170 925 q 228 939 193 935 q 311 956 269 943 q 349 966 347 966 q 365 953 365 966 q 306 745 365 947 l 443 745 q 454 734 454 745 q 447 707 454 723 q 429 688 438 688 l 290 688 l 178 304 q 480 570 345 570 q 577 445 577 570 q 472 109 577 289 q 174 -136 363 -77 l 164 -112 q 391 120 303 -44 q 477 410 477 282 q 435 490 477 490 q 237 315 354 490 q 106 60 140 170 q 96 26 101 43 q 68 9 87 9 q 12 36 12 9 z "},"":{"ha":384,"x_min":6,"x_max":493,"o":"m 6 115 q 83 235 6 171 q 226 338 154 286 q 302 437 302 396 q 232 493 302 493 q 165 467 201 493 q 111 431 121 435 q 86 455 86 446 q 89 465 86 460 q 260 570 153 570 q 347 549 309 570 q 394 479 394 524 q 319 340 394 411 q 180 232 314 336 q 104 136 104 174 q 192 73 104 73 q 276 112 229 73 q 320 151 323 151 q 336 140 325 151 q 347 125 347 130 q 342 115 347 121 q 144 0 256 0 q 50 30 89 0 q 6 115 6 62 m 263 722 q 266 733 263 728 l 391 984 q 437 1015 406 1015 q 473 1004 457 1015 q 493 974 493 992 q 484 951 493 962 l 286 711 q 276 707 282 707 q 263 722 263 707 z "},"":{"ha":460,"x_min":38,"x_max":481,"o":"m 38 204 q 136 455 38 340 q 353 570 234 570 q 436 553 401 570 q 481 488 481 530 q 466 451 481 466 q 429 436 450 436 q 380 488 380 436 q 381 496 380 491 q 381 503 381 500 q 347 519 381 519 q 224 453 281 519 q 155 326 177 398 l 385 326 q 395 315 395 326 q 388 287 395 303 q 370 268 379 268 l 143 268 q 140 219 140 241 q 168 127 140 163 q 253 88 198 88 q 319 111 288 88 q 363 138 355 136 q 388 115 388 127 q 385 106 388 111 q 218 0 323 0 q 85 62 135 0 q 38 204 38 119 z "},"":{"ha":369,"x_min":-6,"x_max":363,"o":"m -6 77 q 33 125 -6 125 q 86 99 54 125 q 142 72 117 72 q 200 92 173 72 q 231 143 231 113 q 151 256 231 173 q 71 396 71 340 q 74 417 71 401 q 138 527 88 484 q 255 570 188 570 q 322 557 292 570 q 363 509 363 541 q 315 462 363 462 q 270 479 297 462 q 227 496 242 496 q 178 485 201 496 q 149 447 149 470 q 229 334 149 416 q 309 200 309 252 q 304 173 309 189 q 227 54 287 106 q 96 0 164 0 q 28 18 56 0 q -6 77 -6 39 z "},"":{"ha":369,"x_min":59,"x_max":359,"o":"m 59 54 q 76 127 59 82 l 187 420 q 197 463 197 448 q 184 478 197 478 q 133 450 165 478 q 98 422 100 422 q 82 431 92 422 q 73 446 73 440 q 78 459 73 453 q 156 530 108 496 q 250 570 213 570 q 301 523 301 570 q 275 418 301 488 l 174 150 q 163 107 163 119 q 180 90 163 90 q 264 144 215 90 q 315 197 314 197 q 330 188 320 197 q 340 174 340 178 q 338 164 340 169 q 243 59 307 111 q 119 0 172 0 q 59 54 59 0 m 241 826 q 258 868 241 850 q 300 885 275 885 q 341 868 324 885 q 359 826 359 850 q 341 784 359 802 q 300 767 324 767 q 258 784 275 767 q 241 826 241 802 z "},"":{"ha":369,"x_min":59,"x_max":505,"o":"m 59 54 q 76 127 59 82 l 187 420 q 197 463 197 448 q 184 478 197 478 q 133 450 165 478 q 98 422 100 422 q 82 431 92 422 q 73 446 73 440 q 78 459 73 453 q 156 530 108 496 q 250 570 213 570 q 301 523 301 570 q 275 418 301 488 l 174 150 q 163 107 163 119 q 180 90 163 90 q 264 144 215 90 q 315 197 314 197 q 330 188 320 197 q 340 174 340 178 q 338 164 340 169 q 243 59 307 111 q 119 0 172 0 q 59 54 59 0 m 146 840 q 165 886 146 867 q 210 905 184 905 q 256 886 237 905 q 275 840 275 867 q 256 795 275 814 q 210 776 237 776 q 165 795 184 776 q 146 840 146 814 m 376 840 q 395 886 376 867 q 441 905 414 905 q 486 886 467 905 q 505 840 505 867 q 486 795 505 814 q 441 776 467 776 q 395 795 414 776 q 376 840 376 814 z "},"":{"ha":302,"x_min":-134,"x_max":336,"o":"m -134 -240 q -90 -193 -134 -193 q -49 -212 -68 -193 q -26 -230 -31 -230 q -1 -186 -14 -230 l 172 431 q 176 461 176 448 q 165 477 176 477 q 116 448 147 477 q 81 419 85 419 q 66 429 75 419 q 57 446 57 439 q 62 456 57 450 q 222 570 151 570 q 275 513 275 570 q 252 393 275 473 l 177 137 q 94 -115 123 -47 q -68 -294 18 -294 q -134 -240 -134 -294 m 218 826 q 235 868 218 850 q 277 885 252 885 q 318 868 301 885 q 336 826 336 850 q 318 784 336 802 q 277 767 301 767 q 235 784 252 767 q 218 826 218 802 z "},"":{"ha":884,"x_min":-12,"x_max":850,"o":"m -12 42 q 30 95 -12 70 q 87 130 50 106 q 249 332 176 194 q 357 497 311 450 q 535 570 430 570 q 587 528 587 570 q 566 435 587 505 l 499 208 q 768 373 650 373 q 827 347 804 373 q 850 285 850 321 q 699 79 850 183 q 490 0 585 0 q 384 92 384 0 q 391 134 384 109 l 478 435 q 485 473 485 458 q 464 503 485 503 q 277 277 402 503 q 84 21 170 82 q 33 0 54 0 q 2 13 16 0 q -12 42 -12 25 m 490 82 q 520 50 490 50 q 713 177 617 50 q 760 276 760 239 q 728 307 760 307 q 579 224 668 307 q 490 82 490 141 z "},"":{"ha":903,"x_min":74,"x_max":868,"o":"m 74 446 q 79 459 74 452 q 157 530 109 496 q 251 570 214 570 q 302 528 302 570 q 248 321 302 506 l 461 321 l 528 551 q 576 567 533 567 q 614 547 614 567 q 518 210 614 542 q 785 373 668 373 q 845 347 821 373 q 868 285 868 321 q 718 79 868 183 q 509 0 604 0 q 433 22 462 0 q 400 92 400 47 q 407 134 400 111 l 444 263 l 231 263 l 159 16 q 139 0 154 0 q 76 26 76 0 q 77 33 76 31 l 194 435 q 199 463 199 453 q 185 478 199 478 q 134 450 167 478 q 98 422 101 422 q 83 431 92 422 q 74 446 74 440 m 508 82 q 538 50 508 50 q 732 177 635 50 q 779 276 779 239 q 746 307 779 307 q 597 224 686 307 q 508 82 508 141 z "},"":{"ha":595,"x_min":12,"x_max":577,"o":"m 12 36 q 16 51 12 39 l 200 688 l 104 688 q 93 699 93 688 q 100 726 93 711 q 119 745 108 745 l 217 745 q 241 843 241 829 q 206 882 241 872 q 170 899 170 892 q 191 934 170 925 q 228 939 193 935 q 311 956 269 943 q 349 966 347 966 q 365 953 365 966 q 306 745 365 947 l 443 745 q 454 734 454 745 q 447 707 454 723 q 429 688 438 688 l 290 688 l 178 304 q 480 570 345 570 q 577 445 577 570 q 537 259 577 357 q 439 96 499 168 q 299 0 359 0 q 240 50 240 0 q 254 88 240 71 q 290 104 269 104 q 326 91 312 104 q 344 77 339 77 q 385 113 360 77 q 448 257 420 167 q 477 410 477 347 q 435 490 477 490 q 237 315 354 490 q 106 60 141 170 q 96 26 101 43 q 68 9 87 9 q 12 36 12 9 z "},"":{"ha":618,"x_min":18,"x_max":604,"o":"m 18 30 q 169 554 18 34 q 215 570 174 570 q 254 549 254 570 q 193 338 254 545 q 213 333 205 335 q 547 570 456 570 q 588 550 572 570 q 604 506 604 531 q 586 458 604 479 q 543 437 568 437 q 502 459 518 437 q 480 482 486 482 q 441 465 472 482 q 259 316 351 414 q 304 290 288 303 q 359 206 338 260 q 386 137 372 172 q 435 90 409 90 q 507 130 468 90 q 549 170 547 170 q 567 159 555 170 q 578 142 578 149 q 573 130 578 138 q 396 0 477 0 q 319 60 353 0 q 266 180 309 78 q 208 276 235 255 q 180 290 201 281 l 100 19 q 81 3 96 3 q 18 30 18 3 m 345 722 q 347 733 345 728 l 472 984 q 519 1015 487 1015 q 555 1004 538 1015 q 574 974 574 992 q 566 951 574 962 l 367 711 q 357 707 363 707 q 345 722 345 707 z "},"":{"ha":640,"x_min":43,"x_max":602,"o":"m 43 56 q 65 137 43 84 l 186 433 q 195 461 195 452 q 180 474 195 474 q 127 429 168 474 q 81 383 86 383 q 68 393 76 383 q 61 408 61 402 q 66 418 61 412 q 260 564 184 564 q 300 526 300 564 q 267 410 300 490 l 172 182 q 161 134 161 157 q 169 119 161 119 q 351 286 211 119 q 507 503 484 444 q 521 543 514 524 q 548 570 532 570 q 580 563 562 570 q 602 543 602 555 q 599 526 602 534 l 473 169 q 461 104 461 136 q 469 90 461 90 q 532 145 486 90 q 581 199 577 199 q 592 190 585 199 q 600 176 600 181 q 597 164 600 170 q 505 63 571 119 q 389 0 431 0 q 353 34 353 0 q 375 127 353 63 l 444 324 q 273 136 363 226 q 81 0 135 0 q 43 56 43 0 m 324 974 q 344 1004 324 992 q 380 1015 360 1015 q 427 984 412 1015 l 551 733 q 554 722 554 728 q 541 707 554 707 q 532 711 535 707 l 333 951 q 324 974 324 962 z "},"":{"ha":563,"x_min":-3,"x_max":663,"o":"m -3 -225 q 15 -181 -3 -200 q 58 -161 33 -161 q 95 -173 73 -161 q 128 -185 117 -185 q 156 -174 141 -185 q 218 -111 176 -158 q 264 -33 254 -70 q 271 56 271 -6 q 255 280 271 184 q 162 480 221 480 q 93 429 128 480 q 52 378 57 378 q 35 385 45 378 q 24 399 24 393 q 26 406 24 402 q 85 507 48 460 q 178 570 135 570 q 326 368 280 570 q 355 83 355 240 q 480 432 480 277 q 475 498 480 462 q 473 506 473 507 q 515 570 473 570 q 566 498 566 570 q 530 330 566 437 q 462 170 498 238 q 242 -160 362 -17 q 67 -296 128 -296 q 17 -276 37 -296 q -3 -225 -3 -256 m 243 858 q 319 940 243 940 q 387 876 363 940 q 450 812 410 812 q 637 899 541 812 l 648 899 l 663 884 q 410 752 562 752 q 302 774 347 752 q 243 858 243 802 z "},"":{"ha":640,"x_min":-63,"x_max":602,"o":"m -63 -180 q -43 -163 -63 -171 q -14 -150 -18 -155 q 5 -92 -7 -142 q 45 -18 16 -43 q 68 1 53 -12 q 43 56 43 8 q 65 137 43 84 l 186 433 q 195 461 195 452 q 180 474 195 474 q 127 429 168 474 q 81 383 86 383 q 68 393 76 383 q 61 408 61 402 q 66 418 61 412 q 260 564 184 564 q 300 526 300 564 q 267 410 300 490 l 172 182 q 161 134 161 157 q 169 119 161 119 q 351 286 211 119 q 507 503 484 444 q 521 543 514 524 q 548 570 532 570 q 580 563 562 570 q 602 543 602 555 q 599 526 602 534 l 473 169 q 461 104 461 136 q 469 90 461 90 q 532 145 486 90 q 581 199 577 199 q 592 190 585 199 q 600 176 600 181 q 597 164 600 170 q 505 63 571 119 q 389 0 431 0 q 353 34 353 0 q 375 127 353 63 l 444 325 q 137 20 263 106 q 96 -14 120 12 q 79 -94 90 -41 q -3 -186 66 -155 q -45 -201 -34 -201 q -63 -180 -63 -201 z "},"":{"ha":804,"x_min":139,"x_max":966,"o":"m 139 742 q 153 791 139 748 q 170 847 169 844 q 181 918 175 882 q 217 964 191 964 q 225 964 220 964 q 233 963 231 963 q 242 944 241 963 q 305 911 244 911 l 536 911 q 551 979 551 962 q 448 1030 551 1030 q 439 1038 439 1030 q 460 1075 439 1075 q 546 1061 515 1075 q 612 1004 581 1046 q 662 1047 627 1025 q 722 1072 696 1069 q 774 1075 760 1075 q 783 1067 783 1075 q 776 1042 783 1063 q 741 1029 772 1031 q 686 1011 703 1026 q 644 911 666 994 l 844 911 q 910 937 901 911 q 939 964 920 964 q 966 954 966 964 q 955 918 966 951 q 935 848 944 884 q 913 745 930 813 q 888 732 909 732 q 862 741 862 732 q 867 775 862 752 q 872 809 872 798 q 806 859 872 859 l 629 859 l 536 519 q 789 471 684 519 q 929 281 927 408 l 929 274 q 791 63 931 147 q 533 -9 670 -9 q 447 -4 505 -9 q 360 0 389 0 q 253 -4 307 0 q 201 -8 199 -8 q 192 0 192 -8 q 198 25 192 5 q 233 38 201 35 q 286 56 269 41 q 319 119 306 73 l 522 859 l 302 859 q 211 803 237 859 q 184 736 197 770 q 165 732 178 732 q 139 742 139 732 m 423 89 q 457 49 423 58 q 517 45 472 45 q 713 106 631 45 q 805 283 805 173 q 744 421 805 372 q 596 467 687 467 q 522 465 585 467 l 434 148 q 423 89 423 109 z "},"":{"ha":620,"x_min":53,"x_max":585,"o":"m 53 511 l 53 513 q 61 545 53 526 q 73 576 72 570 q 88 637 76 597 q 113 651 96 651 q 138 635 136 651 q 160 620 140 620 l 266 620 l 319 804 q 326 846 326 825 q 286 887 326 880 q 246 907 246 893 q 267 933 246 933 q 378 882 344 933 q 505 933 421 933 q 515 923 515 933 q 490 886 515 892 q 445 872 447 873 q 408 804 423 857 l 354 620 l 453 620 q 490 635 484 620 q 517 651 496 651 q 541 634 541 651 q 533 610 541 629 q 519 570 525 591 q 503 508 515 546 q 475 494 495 494 q 452 510 452 494 q 456 531 452 517 q 460 552 460 545 q 431 570 460 570 l 339 570 l 234 208 q 503 373 384 373 q 562 347 538 373 q 585 285 585 321 q 435 79 585 182 q 226 0 321 0 q 150 22 179 0 q 117 92 117 47 q 124 134 117 109 l 251 570 l 166 570 q 114 532 128 570 q 79 494 99 494 q 53 511 53 494 m 225 82 q 255 50 225 50 q 448 177 351 50 q 496 276 496 239 q 463 307 496 307 q 314 224 403 307 q 225 82 225 141 z "},"":{"ha":659,"x_min":0,"x_max":800,"o":"m 0 0 q 25 37 0 33 q 78 45 77 45 q 127 119 112 61 l 296 779 q 302 821 302 803 q 267 869 302 859 q 200 874 251 874 q 191 882 191 874 q 212 919 191 919 q 321 915 248 919 q 430 911 393 911 l 566 911 q 759 1059 702 911 q 767 1078 766 1077 q 787 1084 772 1084 q 800 1076 800 1084 q 760 878 800 1069 q 730 861 752 861 q 602 860 687 861 q 474 859 517 859 q 430 848 441 859 q 410 805 418 838 l 237 132 q 231 90 231 108 q 267 41 231 52 q 334 37 283 37 q 342 29 342 37 q 323 -8 342 -8 q 273 -5 317 -8 q 168 0 210 0 q 61 -4 115 0 q 9 -8 7 -8 q 0 0 0 -8 z "},"":{"ha":469,"x_min":66,"x_max":536,"o":"m 66 62 q 75 116 66 85 l 171 448 q 177 485 177 469 q 147 522 177 514 q 94 525 135 525 q 83 536 83 525 q 106 572 83 572 q 203 568 138 572 q 300 564 267 564 q 418 581 383 564 q 494 671 463 602 q 522 696 505 696 q 536 687 536 696 q 492 531 536 685 q 460 511 486 511 l 313 511 q 275 502 286 511 q 260 468 269 495 l 170 158 q 163 116 163 132 q 183 90 163 90 q 279 125 224 90 q 331 161 334 161 q 345 151 335 161 q 355 138 355 142 q 347 125 355 133 q 136 0 218 0 q 66 62 66 0 z "},"":{"ha":1055,"x_min":98,"x_max":1050,"o":"m 98 428 q 104 506 98 469 l 928 506 l 928 523 q 830 777 929 677 q 576 876 732 876 q 431 824 502 876 q 322 698 391 794 q 309 690 316 690 q 291 698 303 690 q 278 713 278 707 q 299 779 278 718 q 326 850 320 840 q 350 878 334 869 q 603 929 443 929 q 926 795 800 929 q 1050 465 1050 664 q 890 113 1050 252 q 520 -18 737 -18 q 213 111 331 -18 q 98 428 98 237 m 222 390 q 296 146 222 245 q 517 35 377 35 q 798 163 683 35 q 924 452 901 280 l 225 452 q 222 390 222 420 z "},"":{"ha":496,"x_min":16,"x_max":457,"o":"m 16 103 q 140 258 16 205 q 353 305 214 288 q 358 378 358 343 q 241 498 358 498 q 159 458 203 498 q 117 418 115 418 q 102 428 113 418 q 91 444 91 439 q 95 454 91 448 q 294 570 181 570 q 414 517 368 570 q 457 393 457 468 q 361 119 457 237 q 138 0 265 0 q 53 26 87 0 q 16 103 16 54 m 102 111 q 151 50 102 50 q 271 125 214 50 q 340 256 316 182 q 102 111 102 229 z "},"":{"ha":1055,"x_min":98,"x_max":1050,"o":"m 98 428 q 104 506 98 469 l 928 506 l 928 523 q 830 777 929 677 q 576 876 732 876 q 431 824 502 876 q 322 698 391 794 q 309 690 316 690 q 291 698 303 690 q 278 713 278 707 q 299 779 278 718 q 326 850 320 840 q 350 878 334 869 q 603 929 443 929 q 926 795 800 929 q 1050 465 1050 664 q 890 113 1050 252 q 520 -18 737 -18 q 213 111 331 -18 q 98 428 98 237 m 222 390 q 296 146 222 245 q 517 35 377 35 q 798 163 683 35 q 924 452 901 280 l 225 452 q 222 390 222 420 m 434 1112 q 453 1157 434 1138 q 498 1176 472 1176 q 544 1157 525 1176 q 563 1112 563 1138 q 544 1066 563 1085 q 498 1047 525 1047 q 453 1066 472 1047 q 434 1112 434 1085 m 719 1112 q 738 1157 719 1138 q 783 1176 757 1176 q 829 1157 810 1176 q 848 1112 848 1138 q 829 1066 848 1085 q 783 1047 810 1047 q 738 1066 757 1047 q 719 1112 719 1085 z "},"":{"ha":496,"x_min":16,"x_max":539,"o":"m 16 103 q 140 258 16 205 q 353 305 214 288 q 358 378 358 343 q 241 498 358 498 q 159 458 203 498 q 117 418 115 418 q 102 428 113 418 q 91 444 91 439 q 95 454 91 448 q 294 570 181 570 q 414 517 368 570 q 457 393 457 468 q 361 119 457 237 q 138 0 265 0 q 53 26 87 0 q 16 103 16 54 m 102 111 q 151 50 102 50 q 271 125 214 50 q 340 256 316 182 q 102 111 102 229 m 180 840 q 199 886 180 867 q 244 905 218 905 q 290 886 271 905 q 309 840 309 867 q 290 795 309 814 q 244 776 271 776 q 199 795 218 776 q 180 840 180 814 m 410 840 q 429 886 410 867 q 475 905 448 905 q 520 886 501 905 q 539 840 539 867 q 520 795 539 814 q 475 776 501 776 q 429 795 448 776 q 410 840 410 814 z "},"":{"ha":816,"x_min":144,"x_max":795,"o":"m 144 -124 q 164 -76 144 -96 q 212 -57 184 -57 q 257 -77 239 -57 q 275 -125 275 -97 q 275 -135 275 -128 q 274 -144 274 -141 q 311 -165 274 -165 q 527 -31 440 -165 q 604 225 604 88 q 561 363 604 302 q 439 430 513 430 q 368 404 393 430 q 316 355 330 362 q 278 382 278 366 q 328 463 278 401 q 398 546 363 505 l 651 859 l 366 859 q 292 836 315 859 q 269 792 283 826 q 241 769 260 769 q 213 780 213 769 q 225 826 213 787 q 241 877 240 873 q 262 971 248 918 q 287 984 270 984 q 309 979 307 984 q 310 958 310 977 q 378 911 310 911 l 774 911 q 795 891 795 911 q 782 861 795 878 l 513 529 q 666 424 602 514 q 727 245 727 338 q 692 80 727 170 q 549 -137 640 -55 q 311 -231 444 -231 q 203 -208 249 -231 q 144 -124 144 -180 z "},"":{"ha":510,"x_min":24,"x_max":547,"o":"m 24 -196 q 40 -159 24 -174 q 77 -144 55 -144 q 125 -197 125 -144 q 125 -204 125 -199 q 124 -212 124 -209 q 152 -228 124 -228 q 312 -121 244 -228 q 372 73 372 -26 q 345 164 372 129 q 259 203 314 203 q 211 178 236 203 q 170 146 182 150 q 144 170 144 158 q 147 179 144 174 q 215 247 157 195 q 256 288 229 261 q 360 396 324 355 q 306 410 330 401 q 239 448 293 415 q 174 476 193 476 q 142 461 155 476 q 130 427 130 446 q 141 398 130 415 q 153 372 153 380 q 133 355 153 355 q 96 389 111 355 q 83 441 83 416 q 121 531 83 492 q 209 570 159 570 q 324 528 250 570 q 439 486 398 486 q 482 527 463 486 q 524 568 501 568 q 547 543 547 568 q 515 485 547 519 q 309 276 494 462 q 425 214 382 267 q 467 87 467 161 q 369 -163 467 -49 q 153 -278 271 -278 q 70 -261 104 -278 q 24 -196 24 -239 z "},"":{"ha":643,"x_min":0,"x_max":0,"o":""},"":{"ha":1286,"x_min":0,"x_max":0,"o":""},"":{"ha":643,"x_min":0,"x_max":0,"o":""},"":{"ha":1286,"x_min":0,"x_max":0,"o":""},"":{"ha":429,"x_min":0,"x_max":0,"o":""},"":{"ha":321,"x_min":0,"x_max":0,"o":""},"":{"ha":214,"x_min":0,"x_max":0,"o":""},"":{"ha":214,"x_min":0,"x_max":0,"o":""},"":{"ha":161,"x_min":0,"x_max":0,"o":""},"":{"ha":257,"x_min":0,"x_max":0,"o":""},"":{"ha":71,"x_min":0,"x_max":0,"o":""},"":{"ha":415,"x_min":64,"x_max":361,"o":"m 64 285 l 64 336 q 81 353 64 353 l 344 353 q 361 336 361 353 l 361 285 q 344 268 361 268 l 81 268 q 64 285 64 268 z "},"":{"ha":415,"x_min":64,"x_max":361,"o":"m 64 285 l 64 336 q 81 353 64 353 l 344 353 q 361 336 361 353 l 361 285 q 344 268 361 268 l 81 268 q 64 285 64 268 z "},"":{"ha":415,"x_min":64,"x_max":361,"o":"m 64 285 l 64 336 q 81 353 64 353 l 344 353 q 361 336 361 353 l 361 285 q 344 268 361 268 l 81 268 q 64 285 64 268 z "},"":{"ha":694,"x_min":112,"x_max":665,"o":"m 112 286 l 112 336 q 130 353 112 353 l 648 353 q 665 336 665 353 l 665 286 q 648 268 665 268 l 130 268 q 112 286 112 268 z "},"":{"ha":1389,"x_min":112,"x_max":1360,"o":"m 112 286 l 112 336 q 130 353 112 353 l 1342 353 q 1360 336 1360 353 l 1360 286 q 1342 268 1360 268 l 130 268 q 112 286 112 268 z "},"":{"ha":333,"x_min":208,"x_max":456,"o":"m 208 783 q 274 929 208 877 q 430 977 334 977 q 456 968 456 977 q 441 931 456 941 q 429 927 436 928 q 313 876 349 920 q 298 838 298 859 q 339 767 298 803 q 380 703 380 731 q 362 661 380 677 q 317 644 343 644 q 236 690 267 644 q 208 783 208 731 z "},"":{"ha":333,"x_min":158,"x_max":406,"o":"m 158 655 q 174 692 158 683 q 185 696 178 695 q 302 747 265 701 q 316 785 316 764 q 275 856 316 820 q 234 920 234 892 q 253 962 234 945 q 298 979 272 979 q 379 933 349 979 q 406 840 406 893 q 341 694 406 747 q 186 646 281 646 q 158 655 158 646 z "},"":{"ha":333,"x_min":-18,"x_max":231,"o":"m -18 -215 q -3 -178 -18 -188 q 9 -174 1 -175 q 126 -123 89 -170 q 140 -85 140 -106 q 99 -14 140 -50 q 58 50 58 22 q 77 92 58 75 q 122 109 96 109 q 203 63 173 109 q 231 -31 231 23 q 165 -176 231 -123 q 11 -224 106 -224 q -18 -215 -18 -224 z "},"":{"ha":604,"x_min":173,"x_max":692,"o":"m 173 783 q 239 929 173 877 q 395 977 298 977 q 421 968 421 977 q 406 931 421 941 q 394 927 401 928 q 277 876 314 920 q 263 838 263 859 q 304 767 263 803 q 345 703 345 731 q 327 661 345 677 q 281 644 308 644 q 201 690 232 644 q 173 783 173 731 m 444 783 q 510 929 444 877 q 666 977 570 977 q 692 968 692 977 q 677 931 692 941 q 665 927 672 928 q 549 876 585 920 q 534 838 534 859 q 575 767 534 803 q 616 703 616 731 q 598 661 616 677 q 553 644 579 644 q 472 690 503 644 q 444 783 444 731 z "},"":{"ha":604,"x_min":158,"x_max":677,"o":"m 158 655 q 174 692 158 683 q 185 696 178 695 q 302 747 265 701 q 316 785 316 764 q 275 856 316 820 q 234 920 234 892 q 253 962 234 945 q 298 979 272 979 q 379 933 349 979 q 406 840 406 893 q 341 694 406 747 q 186 646 281 646 q 158 655 158 646 m 429 655 q 445 692 429 683 q 456 696 450 695 q 573 747 536 701 q 587 785 587 764 q 546 856 587 820 q 505 920 505 892 q 524 962 505 945 q 569 979 543 979 q 650 933 620 979 q 677 840 677 893 q 612 694 677 747 q 458 646 553 646 q 429 655 429 646 z "},"":{"ha":604,"x_min":-18,"x_max":502,"o":"m -18 -215 q -2 -178 -18 -187 q 9 -174 3 -175 q 126 -123 90 -169 q 140 -85 140 -106 q 99 -14 140 -50 q 58 50 58 22 q 77 92 58 75 q 122 109 96 109 q 203 63 173 109 q 231 -31 231 23 q 165 -176 231 -123 q 11 -224 106 -224 q -18 -215 -18 -224 m 254 -215 q 269 -178 254 -187 q 281 -174 274 -175 q 397 -123 361 -169 q 412 -85 412 -106 q 371 -14 412 -50 q 330 50 330 22 q 349 92 330 75 q 393 109 368 109 q 475 63 444 109 q 502 -31 502 23 q 437 -176 502 -123 q 282 -224 377 -224 q 254 -215 254 -224 z "},"":{"ha":608,"x_min":26,"x_max":460,"o":"m 26 395 q 90 548 26 484 q 243 612 154 612 q 397 548 333 612 q 460 395 460 484 q 397 241 460 305 q 243 178 333 178 q 90 241 154 178 q 26 395 26 305 z "},"":{"ha":1011,"x_min":33,"x_max":869,"o":"m 33 68 q 55 130 33 104 q 112 156 77 156 q 169 131 147 156 q 191 70 191 106 q 170 9 191 34 q 112 -18 147 -18 q 55 7 77 -18 q 33 68 33 33 m 372 68 q 394 130 372 104 q 451 156 416 156 q 508 131 486 156 q 530 70 530 106 q 509 9 530 34 q 451 -18 486 -18 q 394 7 416 -18 q 372 68 372 33 m 711 68 q 733 130 711 104 q 790 156 755 156 q 847 131 825 156 q 869 70 869 106 q 848 9 869 34 q 790 -18 825 -18 q 733 7 755 -18 q 711 68 711 33 z "},"":{"ha":257,"x_min":0,"x_max":0,"o":""},"":{"ha":410,"x_min":73,"x_max":358,"o":"m 73 310 q 90 334 73 321 l 330 517 q 336 520 333 520 q 349 511 340 520 q 358 498 358 502 q 355 490 358 494 l 182 304 q 277 92 277 93 q 267 81 277 89 q 255 74 258 74 l 251 76 l 78 294 q 73 310 73 301 z "},"":{"ha":410,"x_min":64,"x_max":350,"o":"m 64 98 q 68 105 64 101 l 241 292 q 146 504 146 503 q 155 514 146 507 q 168 522 165 522 l 172 519 l 345 301 q 350 286 350 294 q 333 261 350 274 l 93 78 q 86 75 90 75 q 73 85 82 75 q 64 98 64 94 z "},"":{"ha":321,"x_min":0,"x_max":0,"o":""},"":{"ha":987,"x_min":58,"x_max":1059,"o":"m 58 353 q 85 401 58 401 l 169 401 q 167 446 167 423 q 172 515 167 481 l 72 515 q 58 530 58 515 q 85 577 58 577 l 186 577 q 321 783 222 693 q 717 929 481 929 q 1053 795 930 929 q 1059 783 1059 789 q 1045 716 1059 777 q 1030 652 1032 656 q 1003 639 1023 639 q 981 649 981 639 q 983 669 981 656 q 985 690 985 683 q 928 804 985 751 q 728 876 853 876 q 480 789 592 876 q 324 577 376 707 l 868 577 q 882 564 882 577 q 854 515 882 515 l 304 515 q 289 401 290 458 l 787 401 q 801 388 801 401 q 773 339 801 339 l 292 339 q 361 165 305 239 q 516 55 420 87 q 625 35 574 35 q 682 39 646 35 q 930 123 783 50 q 944 127 939 127 q 971 100 971 127 q 903 47 971 78 q 614 -18 757 -18 q 326 83 445 -18 q 177 339 210 180 l 72 339 q 58 353 58 339 z "},"":{"ha":892,"x_min":75,"x_max":892,"o":"m 75 867 q 90 916 75 861 q 99 962 92 932 q 120 975 103 975 q 140 964 138 975 q 155 952 142 952 l 397 952 q 419 964 410 952 q 447 976 429 976 q 462 961 462 976 q 454 928 462 957 q 444 890 445 897 q 417 852 437 852 l 414 852 q 395 867 395 852 q 397 881 395 871 q 399 895 399 890 q 380 909 399 909 l 332 909 q 315 892 319 909 l 238 595 q 235 579 235 584 q 268 566 235 566 q 281 552 281 566 q 262 526 281 526 q 227 527 251 526 q 191 529 203 529 q 155 527 179 529 q 119 526 131 526 q 104 539 104 526 q 131 565 104 564 q 169 595 161 566 l 248 898 q 249 908 249 903 q 248 909 249 909 q 203 909 233 909 q 157 909 172 909 q 123 881 132 909 q 94 852 115 852 q 75 867 75 852 m 363 539 q 372 562 363 554 q 396 567 374 564 q 420 595 410 570 l 532 898 q 500 914 525 912 q 477 928 477 916 q 531 954 477 954 q 550 955 537 954 q 569 956 563 956 q 595 926 593 956 l 613 660 l 777 930 q 806 956 792 956 q 823 954 811 956 q 840 952 834 952 q 860 954 847 952 q 879 956 872 956 q 892 942 892 956 q 891 939 892 942 q 864 915 886 915 q 837 887 842 915 l 779 595 q 778 582 778 589 q 814 566 778 566 q 829 552 829 566 q 810 526 829 526 q 777 527 799 526 q 745 529 755 529 q 711 527 733 529 q 677 526 688 526 q 663 541 663 526 q 693 566 663 566 q 713 594 707 566 l 756 813 l 595 553 q 577 544 589 544 q 559 559 561 544 l 543 804 q 460 576 460 581 q 494 566 460 566 q 508 552 508 566 q 489 526 508 526 q 462 527 480 526 q 434 529 444 529 q 406 527 425 529 q 378 526 388 526 q 363 539 363 526 z "},"":{"ha":570,"x_min":0,"x_max":570,"o":"m 0 0 l 0 570 l 570 570 l 570 0 l 0 0 z "}}}
